<svg width="20" height="25" viewBox="0 0 20 25" fill="none"
  xmlns="http://www.w3.org/2000/svg">
  <path fill-rule="evenodd" clip-rule="evenodd" d="M0.584482 16.125C0.583563 15.8219 0.686001 15.6185 0.99515 15.1129C1.5107 14.202 1.61222 13.6971 1.60885 12.5847C1.60548 11.4738 1.50089 10.9694 0.979828 10.0617C0.876162 9.86046 0.563947 9.35522 0.563028 9.05212C0.561189 8.44591 1.07614 7.83814 1.6975 7.83626C2.2158 7.83468 2.63015 8.03651 3.04785 8.84301C3.77564 9.95169 4.19336 11.2644 4.19765 12.6784C4.20194 14.0923 3.7925 15.5091 3.07145 16.6221C2.65804 17.2296 2.24522 17.534 1.72692 17.5355C1.10495 17.3358 0.586321 16.7312 0.584482 16.125ZM4.94074 18.3336C4.93982 18.0305 5.04226 17.8286 5.45385 17.1196C6.27824 15.6016 6.58432 14.0851 6.57942 12.4696C6.57482 10.9541 6.25955 9.43948 5.42596 7.92649C5.01008 7.22 4.90611 6.91721 4.90519 6.61411C4.90427 6.311 5.31586 5.60352 6.04028 5.60132C6.76621 5.59912 7.0778 5.90128 7.70284 7.1118C8.64009 8.82605 9.05873 10.4418 9.06486 12.462C9.07129 14.5837 8.76521 16.1002 7.6335 18.2254C7.32496 18.9325 6.91155 19.54 6.18714 19.5422C5.4609 19.4429 4.94258 18.9398 4.94074 18.3336ZM9.60798 20.6427C9.60645 20.138 9.9159 19.7324 10.2247 19.1253C11.2534 17.0004 11.765 14.7771 11.7582 12.5539C11.7512 10.2306 11.2261 8.00892 10.0812 5.79063C9.66354 4.98412 9.55926 4.57979 9.55834 4.27669C9.55712 3.87357 10.0736 3.26579 10.798 3.26359C11.627 3.26108 11.8349 3.86666 12.3557 4.67285C13.3969 6.68989 14.3387 9.41498 14.3482 12.5475C14.3553 14.8708 13.8443 17.2972 12.6099 20.0274C12.0953 21.2414 11.5788 21.8491 10.9574 21.851C10.13 21.8535 9.60982 21.2489 9.60798 20.6427ZM14.1722 22.9537C14.1709 22.549 14.3773 22.1438 14.6865 21.6381C16.2313 18.804 16.9471 15.9738 16.9364 12.4381C16.9263 9.10402 16.297 6.47953 14.7341 3.35168C14.5249 2.84764 14.2127 2.34392 14.2115 1.93928C14.2096 1.33307 14.7264 0.826835 15.3478 0.824951C16.0722 0.822753 16.3841 1.22494 16.9058 2.33575C18.6769 5.66453 19.4111 8.89492 19.4219 12.4306C19.4329 16.0678 18.511 19.4048 16.8643 22.6424C16.5558 23.3496 16.2476 24.1598 15.3155 24.1626C14.7972 24.1642 14.1743 23.6599 14.1722 22.9537Z" fill="#17003A"/>
</svg>
