<svg width="269" height="240" viewBox="0 0 269 240" fill="none"
  xmlns="http://www.w3.org/2000/svg">
  <path d="M88.8174 23.0839L105.917 40.3096C105.823 40.6661 105.636 40.9911 105.386 41.2532C105.126 41.5048 104.803 41.6936 104.449 41.7879L87.3395 24.5622C87.5373 23.8387 88.0993 23.2726 88.8174 23.0839ZM96.7582 23L106 32.3101V35.2772L93.8129 23H96.7582ZM103.919 23C105.063 23 106 23.9436 106 25.0969V27.1937L101.837 23H103.919ZM89.3481 41.8718C88.7757 41.8718 88.2554 41.6411 87.8807 41.2532C87.4956 40.8758 87.2667 40.3516 87.2667 39.7749V37.6781L91.4296 41.8718H89.3481ZM99.4537 41.8718H96.5084L87.2667 32.5617V29.5946L99.4537 41.8718Z" fill="#3C15FC"/>
  <path d="M56.034 23.0839L73.1334 40.3096C73.0397 40.6661 72.8524 40.9911 72.6026 41.2532C72.3424 41.5048 72.0198 41.6936 71.666 41.7879L54.5562 24.5622C54.7539 23.8387 55.3159 23.2726 56.034 23.0839ZM63.9749 23L73.2167 32.3101V35.2772L61.0296 23H63.9749ZM71.1352 23C72.28 23 73.2167 23.9436 73.2167 25.0969V27.1937L69.0537 23H71.1352ZM56.5648 41.8718C55.9924 41.8718 55.472 41.6411 55.0974 41.2532C54.7123 40.8758 54.4833 40.3516 54.4833 39.7749V37.6781L58.6463 41.8718H56.5648ZM66.6704 41.8718H63.7251L54.4833 32.5617V29.5946L66.6704 41.8718Z" fill="#3C15FC"/>
  <path d="M23.2507 23.0839L40.3501 40.3096C40.2564 40.6661 40.0691 40.9911 39.8193 41.2532C39.5591 41.5048 39.2365 41.6936 38.8826 41.7879L21.7729 24.5622C21.9706 23.8387 22.5326 23.2726 23.2507 23.0839ZM31.1916 23L40.4333 32.3101V35.2772L28.2463 23H31.1916ZM38.3519 23C39.4967 23 40.4333 23.9436 40.4333 25.0969V27.1937L36.2704 23H38.3519ZM23.7815 41.8718C23.2091 41.8718 22.6887 41.6411 22.314 41.2532C21.929 40.8758 21.7 40.3516 21.7 39.7749V37.6781L25.863 41.8718H23.7815ZM33.8871 41.8718H30.9418L21.7 32.5617V29.5946L33.8871 41.8718Z" fill="#3C15FC"/>
  <path d="M-9.53263 23.0839L7.56673 40.3096C7.47307 40.6661 7.28574 40.9911 7.03596 41.2532C6.77578 41.5048 6.45314 41.6936 6.09929 41.7879L-11.0105 24.5622C-10.8127 23.8387 -10.2507 23.2726 -9.53263 23.0839ZM-1.59178 23L7.65 32.3101V35.2772L-4.53708 23H-1.59178ZM5.56852 23C6.71333 23 7.65 23.9436 7.65 25.0969V27.1937L3.48703 23H5.56852ZM-9.00185 41.8718C-9.57426 41.8718 -10.0946 41.6411 -10.4693 41.2532C-10.8544 40.8758 -11.0833 40.3516 -11.0833 39.7749V37.6781L-6.92037 41.8718H-9.00185ZM1.10374 41.8718H-1.84156L-11.0833 32.5617V29.5946L1.10374 41.8718Z" fill="#3C15FC"/>
  <path d="M-42.316 23.0839L-25.2166 40.3096C-25.3103 40.6661 -25.4976 40.9911 -25.7474 41.2532C-26.0076 41.5048 -26.3302 41.6936 -26.684 41.7879L-43.7938 24.5622C-43.5961 23.8387 -43.0341 23.2726 -42.316 23.0839ZM-34.3751 23L-25.1333 32.3101V35.2772L-37.3204 23H-34.3751ZM-27.2148 23C-26.07 23 -25.1333 23.9436 -25.1333 25.0969V27.1937L-29.2963 23H-27.2148ZM-41.7852 41.8718C-42.3576 41.8718 -42.878 41.6411 -43.2526 41.2532C-43.6377 40.8758 -43.8667 40.3516 -43.8667 39.7749V37.6781L-39.7037 41.8718H-41.7852ZM-31.6796 41.8718H-34.6249L-43.8667 32.5617V29.5946L-31.6796 41.8718Z" fill="#3C15FC"/>
  <path d="M-75.0993 23.0839L-57.9999 40.3096C-58.0936 40.6661 -58.2809 40.9911 -58.5307 41.2532C-58.7909 41.5048 -59.1135 41.6936 -59.4674 41.7879L-76.5771 24.5622C-76.3794 23.8387 -75.8174 23.2726 -75.0993 23.0839ZM-67.1585 23L-57.9167 32.3101V35.2772L-70.1037 23H-67.1585ZM-59.9981 23C-58.8533 23 -57.9167 23.9436 -57.9167 25.0969V27.1937L-62.0796 23H-59.9981ZM-74.5685 41.8718C-75.1409 41.8718 -75.6613 41.6411 -76.036 41.2532C-76.421 40.8758 -76.65 40.3516 -76.65 39.7749V37.6781L-72.487 41.8718H-74.5685ZM-64.4629 41.8718H-67.4082L-76.65 32.5617V29.5946L-64.4629 41.8718Z" fill="#3C15FC"/>
  <path d="M-107.883 23.0839L-90.7832 40.3096C-90.8769 40.6661 -91.0643 40.9911 -91.314 41.2532C-91.5742 41.5048 -91.8969 41.6936 -92.2507 41.7879L-109.36 24.5622C-109.163 23.8387 -108.601 23.2726 -107.883 23.0839ZM-99.9418 23L-90.7 32.3101V35.2772L-102.887 23H-99.9418ZM-92.7815 23C-91.6367 23 -90.7 23.9436 -90.7 25.0969V27.1937L-94.863 23H-92.7815ZM-107.352 41.8718C-107.924 41.8718 -108.445 41.6411 -108.819 41.2532C-109.204 40.8758 -109.433 40.3516 -109.433 39.7749V37.6781L-105.27 41.8718H-107.352ZM-97.2463 41.8718H-100.192L-109.433 32.5617V29.5946L-97.2463 41.8718Z" fill="#3C15FC"/>
  <path d="M-140.666 23.0839L-123.567 40.3096C-123.66 40.6661 -123.848 40.9911 -124.097 41.2532C-124.358 41.5048 -124.68 41.6936 -125.034 41.7879L-142.144 24.5622C-141.946 23.8387 -141.384 23.2726 -140.666 23.0839ZM-132.725 23L-123.483 32.3101V35.2772L-135.67 23H-132.725ZM-125.565 23C-124.42 23 -123.483 23.9436 -123.483 25.0969V27.1937L-127.646 23H-125.565ZM-140.135 41.8718C-140.708 41.8718 -141.228 41.6411 -141.603 41.2532C-141.988 40.8758 -142.217 40.3516 -142.217 39.7749V37.6781L-138.054 41.8718H-140.135ZM-130.03 41.8718H-132.975L-142.217 32.5617V29.5946L-130.03 41.8718Z" fill="#3C15FC"/>
  <path d="M-173.449 23.0839L-156.35 40.3096C-156.444 40.6661 -156.631 40.9911 -156.881 41.2532C-157.141 41.5048 -157.464 41.6936 -157.817 41.7879L-174.927 24.5622C-174.729 23.8387 -174.167 23.2726 -173.449 23.0839ZM-165.508 23L-156.267 32.3101V35.2772L-168.454 23H-165.508ZM-158.348 23C-157.203 23 -156.267 23.9436 -156.267 25.0969V27.1937L-160.43 23H-158.348ZM-172.919 41.8718C-173.491 41.8718 -174.011 41.6411 -174.386 41.2532C-174.771 40.8758 -175 40.3516 -175 39.7749V37.6781L-170.837 41.8718H-172.919ZM-162.813 41.8718H-165.758L-175 32.5617V29.5946L-162.813 41.8718Z" fill="#3C15FC"/>
  <path d="M88.8174 56.1095L105.917 73.3353C105.823 73.6917 105.636 74.0168 105.386 74.2789C105.126 74.5305 104.803 74.7192 104.449 74.8136L87.3395 57.5878C87.5373 56.8644 88.0993 56.2982 88.8174 56.1095ZM96.7582 56.0256L106 65.3357V68.3028L93.8129 56.0256H96.7582ZM103.919 56.0256C105.063 56.0256 106 56.9692 106 58.1225V60.2194L101.837 56.0256H103.919ZM89.3481 74.8974C88.7757 74.8974 88.2554 74.6668 87.8807 74.2789C87.4956 73.9014 87.2667 73.3772 87.2667 72.8006V70.7037L91.4296 74.8974H89.3481ZM99.4537 74.8974H96.5084L87.2667 65.5874V62.6203L99.4537 74.8974Z" fill="#3C15FC"/>
  <path d="M56.034 56.1095L73.1334 73.3353C73.0397 73.6917 72.8524 74.0168 72.6026 74.2789C72.3424 74.5305 72.0198 74.7192 71.666 74.8136L54.5562 57.5878C54.7539 56.8644 55.3159 56.2982 56.034 56.1095ZM63.9749 56.0256L73.2167 65.3357V68.3028L61.0296 56.0256H63.9749ZM71.1352 56.0256C72.28 56.0256 73.2167 56.9692 73.2167 58.1225V60.2194L69.0537 56.0256H71.1352ZM56.5648 74.8974C55.9924 74.8974 55.472 74.6668 55.0974 74.2789C54.7123 73.9014 54.4833 73.3772 54.4833 72.8006V70.7037L58.6463 74.8974H56.5648ZM66.6704 74.8974H63.7251L54.4833 65.5874V62.6203L66.6704 74.8974Z" fill="#3C15FC"/>
  <path d="M23.2507 56.1095L40.3501 73.3353C40.2564 73.6917 40.0691 74.0168 39.8193 74.2789C39.5591 74.5305 39.2365 74.7192 38.8826 74.8136L21.7729 57.5878C21.9706 56.8644 22.5326 56.2982 23.2507 56.1095ZM31.1916 56.0256L40.4333 65.3357V68.3028L28.2463 56.0256H31.1916ZM38.3519 56.0256C39.4967 56.0256 40.4333 56.9692 40.4333 58.1225V60.2194L36.2704 56.0256H38.3519ZM23.7815 74.8974C23.2091 74.8974 22.6887 74.6668 22.314 74.2789C21.929 73.9014 21.7 73.3772 21.7 72.8006V70.7037L25.863 74.8974H23.7815ZM33.8871 74.8974H30.9418L21.7 65.5874V62.6203L33.8871 74.8974Z" fill="#3C15FC"/>
  <path d="M-9.53263 56.1095L7.56673 73.3353C7.47307 73.6917 7.28574 74.0168 7.03596 74.2789C6.77578 74.5305 6.45314 74.7192 6.09929 74.8136L-11.0105 57.5878C-10.8127 56.8644 -10.2507 56.2982 -9.53263 56.1095ZM-1.59178 56.0256L7.65 65.3357V68.3028L-4.53708 56.0256H-1.59178ZM5.56852 56.0256C6.71333 56.0256 7.65 56.9692 7.65 58.1225V60.2194L3.48703 56.0256H5.56852ZM-9.00185 74.8974C-9.57426 74.8974 -10.0946 74.6668 -10.4693 74.2789C-10.8544 73.9014 -11.0833 73.3772 -11.0833 72.8006V70.7037L-6.92037 74.8974H-9.00185ZM1.10374 74.8974H-1.84156L-11.0833 65.5874V62.6203L1.10374 74.8974Z" fill="#3C15FC"/>
  <path d="M-42.316 56.1095L-25.2166 73.3353C-25.3103 73.6917 -25.4976 74.0168 -25.7474 74.2789C-26.0076 74.5305 -26.3302 74.7192 -26.684 74.8136L-43.7938 57.5878C-43.5961 56.8644 -43.0341 56.2982 -42.316 56.1095ZM-34.3751 56.0256L-25.1333 65.3357V68.3028L-37.3204 56.0256H-34.3751ZM-27.2148 56.0256C-26.07 56.0256 -25.1333 56.9692 -25.1333 58.1225V60.2194L-29.2963 56.0256H-27.2148ZM-41.7852 74.8974C-42.3576 74.8974 -42.878 74.6668 -43.2526 74.2789C-43.6377 73.9014 -43.8667 73.3772 -43.8667 72.8006V70.7037L-39.7037 74.8974H-41.7852ZM-31.6796 74.8974H-34.6249L-43.8667 65.5874V62.6203L-31.6796 74.8974Z" fill="#3C15FC"/>
  <path d="M-75.0993 56.1095L-57.9999 73.3353C-58.0936 73.6917 -58.2809 74.0168 -58.5307 74.2789C-58.7909 74.5305 -59.1135 74.7192 -59.4674 74.8136L-76.5771 57.5878C-76.3794 56.8644 -75.8174 56.2982 -75.0993 56.1095ZM-67.1585 56.0256L-57.9167 65.3357V68.3028L-70.1037 56.0256H-67.1585ZM-59.9981 56.0256C-58.8533 56.0256 -57.9167 56.9692 -57.9167 58.1225V60.2194L-62.0796 56.0256H-59.9981ZM-74.5685 74.8974C-75.1409 74.8974 -75.6613 74.6668 -76.036 74.2789C-76.421 73.9014 -76.65 73.3772 -76.65 72.8006V70.7037L-72.487 74.8974H-74.5685ZM-64.4629 74.8974H-67.4082L-76.65 65.5874V62.6203L-64.4629 74.8974Z" fill="#3C15FC"/>
  <path d="M-107.883 56.1095L-90.7832 73.3353C-90.8769 73.6917 -91.0643 74.0168 -91.314 74.2789C-91.5742 74.5305 -91.8969 74.7192 -92.2507 74.8136L-109.36 57.5878C-109.163 56.8644 -108.601 56.2982 -107.883 56.1095ZM-99.9418 56.0256L-90.7 65.3357V68.3028L-102.887 56.0256H-99.9418ZM-92.7815 56.0256C-91.6367 56.0256 -90.7 56.9692 -90.7 58.1225V60.2194L-94.863 56.0256H-92.7815ZM-107.352 74.8974C-107.924 74.8974 -108.445 74.6668 -108.819 74.2789C-109.204 73.9014 -109.433 73.3772 -109.433 72.8006V70.7037L-105.27 74.8974H-107.352ZM-97.2463 74.8974H-100.192L-109.433 65.5874V62.6203L-97.2463 74.8974Z" fill="#3C15FC"/>
  <path d="M-140.666 56.1095L-123.567 73.3353C-123.66 73.6917 -123.848 74.0168 -124.097 74.2789C-124.358 74.5305 -124.68 74.7192 -125.034 74.8136L-142.144 57.5878C-141.946 56.8644 -141.384 56.2982 -140.666 56.1095ZM-132.725 56.0256L-123.483 65.3357V68.3028L-135.67 56.0256H-132.725ZM-125.565 56.0256C-124.42 56.0256 -123.483 56.9692 -123.483 58.1225V60.2194L-127.646 56.0256H-125.565ZM-140.135 74.8974C-140.708 74.8974 -141.228 74.6668 -141.603 74.2789C-141.988 73.9014 -142.217 73.3772 -142.217 72.8006V70.7037L-138.054 74.8974H-140.135ZM-130.03 74.8974H-132.975L-142.217 65.5874V62.6203L-130.03 74.8974Z" fill="#3C15FC"/>
  <path d="M-173.449 56.1095L-156.35 73.3353C-156.444 73.6917 -156.631 74.0168 -156.881 74.2789C-157.141 74.5305 -157.464 74.7192 -157.817 74.8136L-174.927 57.5878C-174.729 56.8644 -174.167 56.2982 -173.449 56.1095ZM-165.508 56.0256L-156.267 65.3357V68.3028L-168.454 56.0256H-165.508ZM-158.348 56.0256C-157.203 56.0256 -156.267 56.9692 -156.267 58.1225V60.2194L-160.43 56.0256H-158.348ZM-172.919 74.8974C-173.491 74.8974 -174.011 74.6668 -174.386 74.2789C-174.771 73.9014 -175 73.3772 -175 72.8006V70.7037L-170.837 74.8974H-172.919ZM-162.813 74.8974H-165.758L-175 65.5874V62.6203L-162.813 74.8974Z" fill="#3C15FC"/>
  <path d="M88.8174 89.1352L105.917 106.361C105.823 106.717 105.636 107.042 105.386 107.305C105.126 107.556 104.803 107.745 104.449 107.839L87.3395 90.6134C87.5373 89.89 88.0993 89.3239 88.8174 89.1352ZM96.7582 89.0513L106 98.3614V101.328L93.8129 89.0513H96.7582ZM103.919 89.0513C105.063 89.0513 106 89.9949 106 91.1482V93.245L101.837 89.0513H103.919ZM89.3481 107.923C88.7757 107.923 88.2554 107.692 87.8807 107.305C87.4956 106.927 87.2667 106.403 87.2667 105.826V103.729L91.4296 107.923H89.3481ZM99.4537 107.923H96.5084L87.2667 98.613V95.6459L99.4537 107.923Z" fill="#3C15FC"/>
  <path d="M56.034 89.1352L73.1334 106.361C73.0397 106.717 72.8524 107.042 72.6026 107.305C72.3424 107.556 72.0198 107.745 71.666 107.839L54.5562 90.6134C54.7539 89.89 55.3159 89.3239 56.034 89.1352ZM63.9749 89.0513L73.2167 98.3614V101.328L61.0296 89.0513H63.9749ZM71.1352 89.0513C72.28 89.0513 73.2167 89.9949 73.2167 91.1482V93.245L69.0537 89.0513H71.1352ZM56.5648 107.923C55.9924 107.923 55.472 107.692 55.0974 107.305C54.7123 106.927 54.4833 106.403 54.4833 105.826V103.729L58.6463 107.923H56.5648ZM66.6704 107.923H63.7251L54.4833 98.613V95.6459L66.6704 107.923Z" fill="#3C15FC"/>
  <path d="M23.2507 89.1352L40.3501 106.361C40.2564 106.717 40.0691 107.042 39.8193 107.305C39.5591 107.556 39.2365 107.745 38.8826 107.839L21.7729 90.6134C21.9706 89.89 22.5326 89.3239 23.2507 89.1352ZM31.1916 89.0513L40.4333 98.3614V101.328L28.2463 89.0513H31.1916ZM38.3519 89.0513C39.4967 89.0513 40.4333 89.9949 40.4333 91.1482V93.245L36.2704 89.0513H38.3519ZM23.7815 107.923C23.2091 107.923 22.6887 107.692 22.314 107.305C21.929 106.927 21.7 106.403 21.7 105.826V103.729L25.863 107.923H23.7815ZM33.8871 107.923H30.9418L21.7 98.613V95.6459L33.8871 107.923Z" fill="#3C15FC"/>
  <path d="M-9.53263 89.1352L7.56673 106.361C7.47307 106.717 7.28574 107.042 7.03596 107.305C6.77578 107.556 6.45314 107.745 6.09929 107.839L-11.0105 90.6134C-10.8127 89.89 -10.2507 89.3239 -9.53263 89.1352ZM-1.59178 89.0513L7.65 98.3614V101.328L-4.53708 89.0513H-1.59178ZM5.56852 89.0513C6.71333 89.0513 7.65 89.9949 7.65 91.1482V93.245L3.48703 89.0513H5.56852ZM-9.00185 107.923C-9.57426 107.923 -10.0946 107.692 -10.4693 107.305C-10.8544 106.927 -11.0833 106.403 -11.0833 105.826V103.729L-6.92037 107.923H-9.00185ZM1.10374 107.923H-1.84156L-11.0833 98.613V95.6459L1.10374 107.923Z" fill="#3C15FC"/>
  <path d="M-42.316 89.1352L-25.2166 106.361C-25.3103 106.717 -25.4976 107.042 -25.7474 107.305C-26.0076 107.556 -26.3302 107.745 -26.684 107.839L-43.7938 90.6134C-43.5961 89.89 -43.0341 89.3239 -42.316 89.1352ZM-34.3751 89.0513L-25.1333 98.3614V101.328L-37.3204 89.0513H-34.3751ZM-27.2148 89.0513C-26.07 89.0513 -25.1333 89.9949 -25.1333 91.1482V93.245L-29.2963 89.0513H-27.2148ZM-41.7852 107.923C-42.3576 107.923 -42.878 107.692 -43.2526 107.305C-43.6377 106.927 -43.8667 106.403 -43.8667 105.826V103.729L-39.7037 107.923H-41.7852ZM-31.6796 107.923H-34.6249L-43.8667 98.613V95.6459L-31.6796 107.923Z" fill="#3C15FC"/>
  <path d="M-75.0993 89.1352L-57.9999 106.361C-58.0936 106.717 -58.2809 107.042 -58.5307 107.305C-58.7909 107.556 -59.1135 107.745 -59.4674 107.839L-76.5771 90.6134C-76.3794 89.89 -75.8174 89.3239 -75.0993 89.1352ZM-67.1585 89.0513L-57.9167 98.3614V101.328L-70.1037 89.0513H-67.1585ZM-59.9981 89.0513C-58.8533 89.0513 -57.9167 89.9949 -57.9167 91.1482V93.245L-62.0796 89.0513H-59.9981ZM-74.5685 107.923C-75.1409 107.923 -75.6613 107.692 -76.036 107.305C-76.421 106.927 -76.65 106.403 -76.65 105.826V103.729L-72.487 107.923H-74.5685ZM-64.4629 107.923H-67.4082L-76.65 98.613V95.6459L-64.4629 107.923Z" fill="#3C15FC"/>
  <path d="M-107.883 89.1352L-90.7832 106.361C-90.8769 106.717 -91.0643 107.042 -91.314 107.305C-91.5742 107.556 -91.8969 107.745 -92.2507 107.839L-109.36 90.6134C-109.163 89.89 -108.601 89.3239 -107.883 89.1352ZM-99.9418 89.0513L-90.7 98.3614V101.328L-102.887 89.0513H-99.9418ZM-92.7815 89.0513C-91.6367 89.0513 -90.7 89.9949 -90.7 91.1482V93.245L-94.863 89.0513H-92.7815ZM-107.352 107.923C-107.924 107.923 -108.445 107.692 -108.819 107.305C-109.204 106.927 -109.433 106.403 -109.433 105.826V103.729L-105.27 107.923H-107.352ZM-97.2463 107.923H-100.192L-109.433 98.613V95.6459L-97.2463 107.923Z" fill="#3C15FC"/>
  <path d="M-140.666 89.1352L-123.567 106.361C-123.66 106.717 -123.848 107.042 -124.097 107.305C-124.358 107.556 -124.68 107.745 -125.034 107.839L-142.144 90.6134C-141.946 89.89 -141.384 89.3239 -140.666 89.1352ZM-132.725 89.0513L-123.483 98.3614V101.328L-135.67 89.0513H-132.725ZM-125.565 89.0513C-124.42 89.0513 -123.483 89.9949 -123.483 91.1482V93.245L-127.646 89.0513H-125.565ZM-140.135 107.923C-140.708 107.923 -141.228 107.692 -141.603 107.305C-141.988 106.927 -142.217 106.403 -142.217 105.826V103.729L-138.054 107.923H-140.135ZM-130.03 107.923H-132.975L-142.217 98.613V95.6459L-130.03 107.923Z" fill="#3C15FC"/>
  <path d="M-173.449 89.1352L-156.35 106.361C-156.444 106.717 -156.631 107.042 -156.881 107.305C-157.141 107.556 -157.464 107.745 -157.817 107.839L-174.927 90.6134C-174.729 89.89 -174.167 89.3239 -173.449 89.1352ZM-165.508 89.0513L-156.267 98.3614V101.328L-168.454 89.0513H-165.508ZM-158.348 89.0513C-157.203 89.0513 -156.267 89.9949 -156.267 91.1482V93.245L-160.43 89.0513H-158.348ZM-172.919 107.923C-173.491 107.923 -174.011 107.692 -174.386 107.305C-174.771 106.927 -175 106.403 -175 105.826V103.729L-170.837 107.923H-172.919ZM-162.813 107.923H-165.758L-175 98.613V95.6459L-162.813 107.923Z" fill="#3C15FC"/>
  <path d="M88.8174 122.161L105.917 139.387C105.823 139.743 105.636 140.068 105.386 140.33C105.126 140.582 104.803 140.77 104.449 140.865L87.3395 123.639C87.5373 122.916 88.0993 122.35 88.8174 122.161ZM96.7582 122.077L106 131.387V134.354L93.8129 122.077H96.7582ZM103.919 122.077C105.063 122.077 106 123.021 106 124.174V126.271L101.837 122.077H103.919ZM89.3481 140.949C88.7757 140.949 88.2554 140.718 87.8807 140.33C87.4956 139.953 87.2667 139.428 87.2667 138.852V136.755L91.4296 140.949H89.3481ZM99.4537 140.949H96.5084L87.2667 131.639V128.672L99.4537 140.949Z" fill="#3C15FC"/>
  <path d="M56.034 122.161L73.1334 139.387C73.0397 139.743 72.8524 140.068 72.6026 140.33C72.3424 140.582 72.0198 140.77 71.666 140.865L54.5562 123.639C54.7539 122.916 55.3159 122.35 56.034 122.161ZM63.9749 122.077L73.2167 131.387V134.354L61.0296 122.077H63.9749ZM71.1352 122.077C72.28 122.077 73.2167 123.021 73.2167 124.174V126.271L69.0537 122.077H71.1352ZM56.5648 140.949C55.9924 140.949 55.472 140.718 55.0974 140.33C54.7123 139.953 54.4833 139.428 54.4833 138.852V136.755L58.6463 140.949H56.5648ZM66.6704 140.949H63.7251L54.4833 131.639V128.672L66.6704 140.949Z" fill="#3C15FC"/>
  <path d="M23.2507 122.161L40.3501 139.387C40.2564 139.743 40.0691 140.068 39.8193 140.33C39.5591 140.582 39.2365 140.77 38.8826 140.865L21.7729 123.639C21.9706 122.916 22.5326 122.35 23.2507 122.161ZM31.1916 122.077L40.4333 131.387V134.354L28.2463 122.077H31.1916ZM38.3519 122.077C39.4967 122.077 40.4333 123.021 40.4333 124.174V126.271L36.2704 122.077H38.3519ZM23.7815 140.949C23.2091 140.949 22.6887 140.718 22.314 140.33C21.929 139.953 21.7 139.428 21.7 138.852V136.755L25.863 140.949H23.7815ZM33.8871 140.949H30.9418L21.7 131.639V128.672L33.8871 140.949Z" fill="#3C15FC"/>
  <path d="M-9.53263 122.161L7.56673 139.387C7.47307 139.743 7.28574 140.068 7.03596 140.33C6.77578 140.582 6.45314 140.77 6.09929 140.865L-11.0105 123.639C-10.8127 122.916 -10.2507 122.35 -9.53263 122.161ZM-1.59178 122.077L7.65 131.387V134.354L-4.53708 122.077H-1.59178ZM5.56852 122.077C6.71333 122.077 7.65 123.021 7.65 124.174V126.271L3.48703 122.077H5.56852ZM-9.00185 140.949C-9.57426 140.949 -10.0946 140.718 -10.4693 140.33C-10.8544 139.953 -11.0833 139.428 -11.0833 138.852V136.755L-6.92037 140.949H-9.00185ZM1.10374 140.949H-1.84156L-11.0833 131.639V128.672L1.10374 140.949Z" fill="#3C15FC"/>
  <path d="M-42.316 122.161L-25.2166 139.387C-25.3103 139.743 -25.4976 140.068 -25.7474 140.33C-26.0076 140.582 -26.3302 140.77 -26.684 140.865L-43.7938 123.639C-43.5961 122.916 -43.0341 122.35 -42.316 122.161ZM-34.3751 122.077L-25.1333 131.387V134.354L-37.3204 122.077H-34.3751ZM-27.2148 122.077C-26.07 122.077 -25.1333 123.021 -25.1333 124.174V126.271L-29.2963 122.077H-27.2148ZM-41.7852 140.949C-42.3576 140.949 -42.878 140.718 -43.2526 140.33C-43.6377 139.953 -43.8667 139.428 -43.8667 138.852V136.755L-39.7037 140.949H-41.7852ZM-31.6796 140.949H-34.6249L-43.8667 131.639V128.672L-31.6796 140.949Z" fill="#3C15FC"/>
  <path d="M-75.0993 122.161L-57.9999 139.387C-58.0936 139.743 -58.2809 140.068 -58.5307 140.33C-58.7909 140.582 -59.1135 140.77 -59.4674 140.865L-76.5771 123.639C-76.3794 122.916 -75.8174 122.35 -75.0993 122.161ZM-67.1585 122.077L-57.9167 131.387V134.354L-70.1037 122.077H-67.1585ZM-59.9981 122.077C-58.8533 122.077 -57.9167 123.021 -57.9167 124.174V126.271L-62.0796 122.077H-59.9981ZM-74.5685 140.949C-75.1409 140.949 -75.6613 140.718 -76.036 140.33C-76.421 139.953 -76.65 139.428 -76.65 138.852V136.755L-72.487 140.949H-74.5685ZM-64.4629 140.949H-67.4082L-76.65 131.639V128.672L-64.4629 140.949Z" fill="#3C15FC"/>
  <path d="M-107.883 122.161L-90.7832 139.387C-90.8769 139.743 -91.0643 140.068 -91.314 140.33C-91.5742 140.582 -91.8969 140.77 -92.2507 140.865L-109.36 123.639C-109.163 122.916 -108.601 122.35 -107.883 122.161ZM-99.9418 122.077L-90.7 131.387V134.354L-102.887 122.077H-99.9418ZM-92.7815 122.077C-91.6367 122.077 -90.7 123.021 -90.7 124.174V126.271L-94.863 122.077H-92.7815ZM-107.352 140.949C-107.924 140.949 -108.445 140.718 -108.819 140.33C-109.204 139.953 -109.433 139.428 -109.433 138.852V136.755L-105.27 140.949H-107.352ZM-97.2463 140.949H-100.192L-109.433 131.639V128.672L-97.2463 140.949Z" fill="#3C15FC"/>
  <path d="M-140.666 122.161L-123.567 139.387C-123.66 139.743 -123.848 140.068 -124.097 140.33C-124.358 140.582 -124.68 140.77 -125.034 140.865L-142.144 123.639C-141.946 122.916 -141.384 122.35 -140.666 122.161ZM-132.725 122.077L-123.483 131.387V134.354L-135.67 122.077H-132.725ZM-125.565 122.077C-124.42 122.077 -123.483 123.021 -123.483 124.174V126.271L-127.646 122.077H-125.565ZM-140.135 140.949C-140.708 140.949 -141.228 140.718 -141.603 140.33C-141.988 139.953 -142.217 139.428 -142.217 138.852V136.755L-138.054 140.949H-140.135ZM-130.03 140.949H-132.975L-142.217 131.639V128.672L-130.03 140.949Z" fill="#3C15FC"/>
  <path d="M-173.449 122.161L-156.35 139.387C-156.444 139.743 -156.631 140.068 -156.881 140.33C-157.141 140.582 -157.464 140.77 -157.817 140.865L-174.927 123.639C-174.729 122.916 -174.167 122.35 -173.449 122.161ZM-165.508 122.077L-156.267 131.387V134.354L-168.454 122.077H-165.508ZM-158.348 122.077C-157.203 122.077 -156.267 123.021 -156.267 124.174V126.271L-160.43 122.077H-158.348ZM-172.919 140.949C-173.491 140.949 -174.011 140.718 -174.386 140.33C-174.771 139.953 -175 139.428 -175 138.852V136.755L-170.837 140.949H-172.919ZM-162.813 140.949H-165.758L-175 131.639V128.672L-162.813 140.949Z" fill="#3C15FC"/>
  <path d="M88.8174 155.186L105.917 172.412C105.823 172.769 105.636 173.094 105.386 173.356C105.126 173.607 104.803 173.796 104.449 173.89L87.3395 156.665C87.5373 155.941 88.0993 155.375 88.8174 155.186ZM96.7582 155.103L106 164.413V167.38L93.8129 155.103H96.7582ZM103.919 155.103C105.063 155.103 106 156.046 106 157.199V159.296L101.837 155.103H103.919ZM89.3481 173.974C88.7757 173.974 88.2554 173.744 87.8807 173.356C87.4956 172.978 87.2667 172.454 87.2667 171.878V169.781L91.4296 173.974H89.3481ZM99.4537 173.974H96.5084L87.2667 164.664V161.697L99.4537 173.974Z" fill="#3C15FC"/>
  <path d="M56.034 155.186L73.1334 172.412C73.0397 172.769 72.8524 173.094 72.6026 173.356C72.3424 173.607 72.0198 173.796 71.666 173.89L54.5562 156.665C54.7539 155.941 55.3159 155.375 56.034 155.186ZM63.9749 155.103L73.2167 164.413V167.38L61.0296 155.103H63.9749ZM71.1352 155.103C72.28 155.103 73.2167 156.046 73.2167 157.199V159.296L69.0537 155.103H71.1352ZM56.5648 173.974C55.9924 173.974 55.472 173.744 55.0974 173.356C54.7123 172.978 54.4833 172.454 54.4833 171.878V169.781L58.6463 173.974H56.5648ZM66.6704 173.974H63.7251L54.4833 164.664V161.697L66.6704 173.974Z" fill="#3C15FC"/>
  <path d="M23.2507 155.186L40.3501 172.412C40.2564 172.769 40.0691 173.094 39.8193 173.356C39.5591 173.607 39.2365 173.796 38.8826 173.89L21.7729 156.665C21.9706 155.941 22.5326 155.375 23.2507 155.186ZM31.1916 155.103L40.4333 164.413V167.38L28.2463 155.103H31.1916ZM38.3519 155.103C39.4967 155.103 40.4333 156.046 40.4333 157.199V159.296L36.2704 155.103H38.3519ZM23.7815 173.974C23.2091 173.974 22.6887 173.744 22.314 173.356C21.929 172.978 21.7 172.454 21.7 171.878V169.781L25.863 173.974H23.7815ZM33.8871 173.974H30.9418L21.7 164.664V161.697L33.8871 173.974Z" fill="#3C15FC"/>
  <path d="M-9.53263 155.186L7.56673 172.412C7.47307 172.769 7.28574 173.094 7.03596 173.356C6.77578 173.607 6.45314 173.796 6.09929 173.89L-11.0105 156.665C-10.8127 155.941 -10.2507 155.375 -9.53263 155.186ZM-1.59178 155.103L7.65 164.413V167.38L-4.53708 155.103H-1.59178ZM5.56852 155.103C6.71333 155.103 7.65 156.046 7.65 157.199V159.296L3.48703 155.103H5.56852ZM-9.00185 173.974C-9.57426 173.974 -10.0946 173.744 -10.4693 173.356C-10.8544 172.978 -11.0833 172.454 -11.0833 171.878V169.781L-6.92037 173.974H-9.00185ZM1.10374 173.974H-1.84156L-11.0833 164.664V161.697L1.10374 173.974Z" fill="#3C15FC"/>
  <path d="M-42.316 155.186L-25.2166 172.412C-25.3103 172.769 -25.4976 173.094 -25.7474 173.356C-26.0076 173.607 -26.3302 173.796 -26.684 173.89L-43.7938 156.665C-43.5961 155.941 -43.0341 155.375 -42.316 155.186ZM-34.3751 155.103L-25.1333 164.413V167.38L-37.3204 155.103H-34.3751ZM-27.2148 155.103C-26.07 155.103 -25.1333 156.046 -25.1333 157.199V159.296L-29.2963 155.103H-27.2148ZM-41.7852 173.974C-42.3576 173.974 -42.878 173.744 -43.2526 173.356C-43.6377 172.978 -43.8667 172.454 -43.8667 171.878V169.781L-39.7037 173.974H-41.7852ZM-31.6796 173.974H-34.6249L-43.8667 164.664V161.697L-31.6796 173.974Z" fill="#3C15FC"/>
  <path d="M-75.0993 155.186L-57.9999 172.412C-58.0936 172.769 -58.2809 173.094 -58.5307 173.356C-58.7909 173.607 -59.1135 173.796 -59.4674 173.89L-76.5771 156.665C-76.3794 155.941 -75.8174 155.375 -75.0993 155.186ZM-67.1585 155.103L-57.9167 164.413V167.38L-70.1037 155.103H-67.1585ZM-59.9981 155.103C-58.8533 155.103 -57.9167 156.046 -57.9167 157.199V159.296L-62.0796 155.103H-59.9981ZM-74.5685 173.974C-75.1409 173.974 -75.6613 173.744 -76.036 173.356C-76.421 172.978 -76.65 172.454 -76.65 171.878V169.781L-72.487 173.974H-74.5685ZM-64.4629 173.974H-67.4082L-76.65 164.664V161.697L-64.4629 173.974Z" fill="#3C15FC"/>
  <path d="M-107.883 155.186L-90.7832 172.412C-90.8769 172.769 -91.0643 173.094 -91.314 173.356C-91.5742 173.607 -91.8969 173.796 -92.2507 173.89L-109.36 156.665C-109.163 155.941 -108.601 155.375 -107.883 155.186ZM-99.9418 155.103L-90.7 164.413V167.38L-102.887 155.103H-99.9418ZM-92.7815 155.103C-91.6367 155.103 -90.7 156.046 -90.7 157.199V159.296L-94.863 155.103H-92.7815ZM-107.352 173.974C-107.924 173.974 -108.445 173.744 -108.819 173.356C-109.204 172.978 -109.433 172.454 -109.433 171.878V169.781L-105.27 173.974H-107.352ZM-97.2463 173.974H-100.192L-109.433 164.664V161.697L-97.2463 173.974Z" fill="#3C15FC"/>
  <path d="M-140.666 155.186L-123.567 172.412C-123.66 172.769 -123.848 173.094 -124.097 173.356C-124.358 173.607 -124.68 173.796 -125.034 173.89L-142.144 156.665C-141.946 155.941 -141.384 155.375 -140.666 155.186ZM-132.725 155.103L-123.483 164.413V167.38L-135.67 155.103H-132.725ZM-125.565 155.103C-124.42 155.103 -123.483 156.046 -123.483 157.199V159.296L-127.646 155.103H-125.565ZM-140.135 173.974C-140.708 173.974 -141.228 173.744 -141.603 173.356C-141.988 172.978 -142.217 172.454 -142.217 171.878V169.781L-138.054 173.974H-140.135ZM-130.03 173.974H-132.975L-142.217 164.664V161.697L-130.03 173.974Z" fill="#3C15FC"/>
  <path d="M-173.449 155.186L-156.35 172.412C-156.444 172.769 -156.631 173.094 -156.881 173.356C-157.141 173.607 -157.464 173.796 -157.817 173.89L-174.927 156.665C-174.729 155.941 -174.167 155.375 -173.449 155.186ZM-165.508 155.103L-156.267 164.413V167.38L-168.454 155.103H-165.508ZM-158.348 155.103C-157.203 155.103 -156.267 156.046 -156.267 157.199V159.296L-160.43 155.103H-158.348ZM-172.919 173.974C-173.491 173.974 -174.011 173.744 -174.386 173.356C-174.771 172.978 -175 172.454 -175 171.878V169.781L-170.837 173.974H-172.919ZM-162.813 173.974H-165.758L-175 164.664V161.697L-162.813 173.974Z" fill="#3C15FC"/>
  <path d="M88.8174 188.212L105.917 205.438C105.823 205.794 105.636 206.119 105.386 206.381C105.126 206.633 104.803 206.822 104.449 206.916L87.3395 189.69C87.5373 188.967 88.0993 188.401 88.8174 188.212ZM96.7582 188.128L106 197.438V200.405L93.8129 188.128H96.7582ZM103.919 188.128C105.063 188.128 106 189.072 106 190.225V192.322L101.837 188.128H103.919ZM89.3481 207C88.7757 207 88.2554 206.769 87.8807 206.381C87.4956 206.004 87.2667 205.48 87.2667 204.903V202.806L91.4296 207H89.3481ZM99.4537 207H96.5084L87.2667 197.69V194.723L99.4537 207Z" fill="#3C15FC"/>
  <path d="M56.034 188.212L73.1334 205.438C73.0397 205.794 72.8524 206.119 72.6026 206.381C72.3424 206.633 72.0198 206.822 71.666 206.916L54.5562 189.69C54.7539 188.967 55.3159 188.401 56.034 188.212ZM63.9749 188.128L73.2167 197.438V200.405L61.0296 188.128H63.9749ZM71.1352 188.128C72.28 188.128 73.2167 189.072 73.2167 190.225V192.322L69.0537 188.128H71.1352ZM56.5648 207C55.9924 207 55.472 206.769 55.0974 206.381C54.7123 206.004 54.4833 205.48 54.4833 204.903V202.806L58.6463 207H56.5648ZM66.6704 207H63.7251L54.4833 197.69V194.723L66.6704 207Z" fill="#3C15FC"/>
  <path d="M23.2507 188.212L40.3501 205.438C40.2564 205.794 40.0691 206.119 39.8193 206.381C39.5591 206.633 39.2365 206.822 38.8826 206.916L21.7729 189.69C21.9706 188.967 22.5326 188.401 23.2507 188.212ZM31.1916 188.128L40.4333 197.438V200.405L28.2463 188.128H31.1916ZM38.3519 188.128C39.4967 188.128 40.4333 189.072 40.4333 190.225V192.322L36.2704 188.128H38.3519ZM23.7815 207C23.2091 207 22.6887 206.769 22.314 206.381C21.929 206.004 21.7 205.48 21.7 204.903V202.806L25.863 207H23.7815ZM33.8871 207H30.9418L21.7 197.69V194.723L33.8871 207Z" fill="#3C15FC"/>
  <path d="M-9.53263 188.212L7.56673 205.438C7.47307 205.794 7.28574 206.119 7.03596 206.381C6.77578 206.633 6.45314 206.822 6.09929 206.916L-11.0105 189.69C-10.8127 188.967 -10.2507 188.401 -9.53263 188.212ZM-1.59178 188.128L7.65 197.438V200.405L-4.53708 188.128H-1.59178ZM5.56852 188.128C6.71333 188.128 7.65 189.072 7.65 190.225V192.322L3.48703 188.128H5.56852ZM-9.00185 207C-9.57426 207 -10.0946 206.769 -10.4693 206.381C-10.8544 206.004 -11.0833 205.48 -11.0833 204.903V202.806L-6.92037 207H-9.00185ZM1.10374 207H-1.84156L-11.0833 197.69V194.723L1.10374 207Z" fill="#3C15FC"/>
  <path d="M-42.316 188.212L-25.2166 205.438C-25.3103 205.794 -25.4976 206.119 -25.7474 206.381C-26.0076 206.633 -26.3302 206.822 -26.684 206.916L-43.7938 189.69C-43.5961 188.967 -43.0341 188.401 -42.316 188.212ZM-34.3751 188.128L-25.1333 197.438V200.405L-37.3204 188.128H-34.3751ZM-27.2148 188.128C-26.07 188.128 -25.1333 189.072 -25.1333 190.225V192.322L-29.2963 188.128H-27.2148ZM-41.7852 207C-42.3576 207 -42.878 206.769 -43.2526 206.381C-43.6377 206.004 -43.8667 205.48 -43.8667 204.903V202.806L-39.7037 207H-41.7852ZM-31.6796 207H-34.6249L-43.8667 197.69V194.723L-31.6796 207Z" fill="#3C15FC"/>
  <path d="M-75.0993 188.212L-57.9999 205.438C-58.0936 205.794 -58.2809 206.119 -58.5307 206.381C-58.7909 206.633 -59.1135 206.822 -59.4674 206.916L-76.5771 189.69C-76.3794 188.967 -75.8174 188.401 -75.0993 188.212ZM-67.1585 188.128L-57.9167 197.438V200.405L-70.1037 188.128H-67.1585ZM-59.9981 188.128C-58.8533 188.128 -57.9167 189.072 -57.9167 190.225V192.322L-62.0796 188.128H-59.9981ZM-74.5685 207C-75.1409 207 -75.6613 206.769 -76.036 206.381C-76.421 206.004 -76.65 205.48 -76.65 204.903V202.806L-72.487 207H-74.5685ZM-64.4629 207H-67.4082L-76.65 197.69V194.723L-64.4629 207Z" fill="#3C15FC"/>
  <path d="M-107.883 188.212L-90.7832 205.438C-90.8769 205.794 -91.0643 206.119 -91.314 206.381C-91.5742 206.633 -91.8969 206.822 -92.2507 206.916L-109.36 189.69C-109.163 188.967 -108.601 188.401 -107.883 188.212ZM-99.9418 188.128L-90.7 197.438V200.405L-102.887 188.128H-99.9418ZM-92.7815 188.128C-91.6367 188.128 -90.7 189.072 -90.7 190.225V192.322L-94.863 188.128H-92.7815ZM-107.352 207C-107.924 207 -108.445 206.769 -108.819 206.381C-109.204 206.004 -109.433 205.48 -109.433 204.903V202.806L-105.27 207H-107.352ZM-97.2463 207H-100.192L-109.433 197.69V194.723L-97.2463 207Z" fill="#3C15FC"/>
  <path d="M-140.666 188.212L-123.567 205.438C-123.66 205.794 -123.848 206.119 -124.097 206.381C-124.358 206.633 -124.68 206.822 -125.034 206.916L-142.144 189.69C-141.946 188.967 -141.384 188.401 -140.666 188.212ZM-132.725 188.128L-123.483 197.438V200.405L-135.67 188.128H-132.725ZM-125.565 188.128C-124.42 188.128 -123.483 189.072 -123.483 190.225V192.322L-127.646 188.128H-125.565ZM-140.135 207C-140.708 207 -141.228 206.769 -141.603 206.381C-141.988 206.004 -142.217 205.48 -142.217 204.903V202.806L-138.054 207H-140.135ZM-130.03 207H-132.975L-142.217 197.69V194.723L-130.03 207Z" fill="#3C15FC"/>
  <path d="M-173.449 188.212L-156.35 205.438C-156.444 205.794 -156.631 206.119 -156.881 206.381C-157.141 206.633 -157.464 206.822 -157.817 206.916L-174.927 189.69C-174.729 188.967 -174.167 188.401 -173.449 188.212ZM-165.508 188.128L-156.267 197.438V200.405L-168.454 188.128H-165.508ZM-158.348 188.128C-157.203 188.128 -156.267 189.072 -156.267 190.225V192.322L-160.43 188.128H-158.348ZM-172.919 207C-173.491 207 -174.011 206.769 -174.386 206.381C-174.771 206.004 -175 205.48 -175 204.903V202.806L-170.837 207H-172.919ZM-162.813 207H-165.758L-175 197.69V194.723L-162.813 207Z" fill="#3C15FC"/>
  <path d="M251.817 -43.9161L268.917 -26.6904C268.823 -26.3339 268.636 -26.0089 268.386 -25.7468C268.126 -25.4952 267.803 -25.3064 267.449 -25.2121L250.34 -42.4378C250.537 -43.1613 251.099 -43.7274 251.817 -43.9161ZM259.758 -44L269 -34.6899V-31.7228L256.813 -44H259.758ZM266.919 -44C268.063 -44 269 -43.0564 269 -41.9031V-39.8063L264.837 -44H266.919ZM252.348 -25.1282C251.776 -25.1282 251.255 -25.3589 250.881 -25.7468C250.496 -26.1242 250.267 -26.6484 250.267 -27.2251V-29.3219L254.43 -25.1282H252.348ZM262.454 -25.1282H259.508L250.267 -34.4383V-37.4054L262.454 -25.1282Z" fill="#3C15FC"/>
  <path d="M219.034 -43.9161L236.133 -26.6904C236.04 -26.3339 235.852 -26.0089 235.603 -25.7468C235.342 -25.4952 235.02 -25.3064 234.666 -25.2121L217.556 -42.4378C217.754 -43.1613 218.316 -43.7274 219.034 -43.9161ZM226.975 -44L236.217 -34.6899V-31.7228L224.03 -44H226.975ZM234.135 -44C235.28 -44 236.217 -43.0564 236.217 -41.9031V-39.8063L232.054 -44H234.135ZM219.565 -25.1282C218.992 -25.1282 218.472 -25.3589 218.097 -25.7468C217.712 -26.1242 217.483 -26.6484 217.483 -27.2251V-29.3219L221.646 -25.1282H219.565ZM229.67 -25.1282H226.725L217.483 -34.4383V-37.4054L229.67 -25.1282Z" fill="#3C15FC"/>
  <path d="M186.251 -43.9161L203.35 -26.6904C203.256 -26.3339 203.069 -26.0089 202.819 -25.7468C202.559 -25.4952 202.236 -25.3064 201.883 -25.2121L184.773 -42.4378C184.971 -43.1613 185.533 -43.7274 186.251 -43.9161ZM194.192 -44L203.433 -34.6899V-31.7228L191.246 -44H194.192ZM201.352 -44C202.497 -44 203.433 -43.0564 203.433 -41.9031V-39.8063L199.27 -44H201.352ZM186.781 -25.1282C186.209 -25.1282 185.689 -25.3589 185.314 -25.7468C184.929 -26.1242 184.7 -26.6484 184.7 -27.2251V-29.3219L188.863 -25.1282H186.781ZM196.887 -25.1282H193.942L184.7 -34.4383V-37.4054L196.887 -25.1282Z" fill="#3C15FC"/>
  <path d="M153.467 -43.9161L170.567 -26.6904C170.473 -26.3339 170.286 -26.0089 170.036 -25.7468C169.776 -25.4952 169.453 -25.3064 169.099 -25.2121L151.99 -42.4378C152.187 -43.1613 152.749 -43.7274 153.467 -43.9161ZM161.408 -44L170.65 -34.6899V-31.7228L158.463 -44H161.408ZM168.569 -44C169.713 -44 170.65 -43.0564 170.65 -41.9031V-39.8063L166.487 -44H168.569ZM153.998 -25.1282C153.426 -25.1282 152.905 -25.3589 152.531 -25.7468C152.146 -26.1242 151.917 -26.6484 151.917 -27.2251V-29.3219L156.08 -25.1282H153.998ZM164.104 -25.1282H161.158L151.917 -34.4383V-37.4054L164.104 -25.1282Z" fill="#3C15FC"/>
  <path d="M120.684 -43.9161L137.783 -26.6904C137.69 -26.3339 137.502 -26.0089 137.253 -25.7468C136.992 -25.4952 136.67 -25.3064 136.316 -25.2121L119.206 -42.4378C119.404 -43.1613 119.966 -43.7274 120.684 -43.9161ZM128.625 -44L137.867 -34.6899V-31.7228L125.68 -44H128.625ZM135.785 -44C136.93 -44 137.867 -43.0564 137.867 -41.9031V-39.8063L133.704 -44H135.785ZM121.215 -25.1282C120.642 -25.1282 120.122 -25.3589 119.747 -25.7468C119.362 -26.1242 119.133 -26.6484 119.133 -27.2251V-29.3219L123.296 -25.1282H121.215ZM131.32 -25.1282H128.375L119.133 -34.4383V-37.4054L131.32 -25.1282Z" fill="#3C15FC"/>
  <path d="M87.9007 -43.9161L105 -26.6904C104.906 -26.3339 104.719 -26.0089 104.469 -25.7468C104.209 -25.4952 103.886 -25.3064 103.533 -25.2121L86.4229 -42.4378C86.6206 -43.1613 87.1826 -43.7274 87.9007 -43.9161ZM95.8415 -44L105.083 -34.6899V-31.7228L92.8963 -44H95.8415ZM103.002 -44C104.147 -44 105.083 -43.0564 105.083 -41.9031V-39.8063L100.92 -44H103.002ZM88.4315 -25.1282C87.8591 -25.1282 87.3387 -25.3589 86.964 -25.7468C86.579 -26.1242 86.35 -26.6484 86.35 -27.2251V-29.3219L90.513 -25.1282H88.4315ZM98.5371 -25.1282H95.5918L86.35 -34.4383V-37.4054L98.5371 -25.1282Z" fill="#3C15FC"/>
  <path d="M55.1174 -43.9161L72.2168 -26.6904C72.1231 -26.3339 71.9357 -26.0089 71.686 -25.7468C71.4258 -25.4952 71.1031 -25.3064 70.7493 -25.2121L53.6395 -42.4378C53.8373 -43.1613 54.3993 -43.7274 55.1174 -43.9161ZM63.0582 -44L72.3 -34.6899V-31.7228L60.1129 -44H63.0582ZM70.2185 -44C71.3633 -44 72.3 -43.0564 72.3 -41.9031V-39.8063L68.137 -44H70.2185ZM55.6481 -25.1282C55.0757 -25.1282 54.5554 -25.3589 54.1807 -25.7468C53.7956 -26.1242 53.5667 -26.6484 53.5667 -27.2251V-29.3219L57.7296 -25.1282H55.6481ZM65.7537 -25.1282H62.8085L53.5667 -34.4383V-37.4054L65.7537 -25.1282Z" fill="#3C15FC"/>
  <path d="M22.334 -43.9161L39.4334 -26.6904C39.3397 -26.3339 39.1524 -26.0089 38.9026 -25.7468C38.6425 -25.4952 38.3198 -25.3064 37.966 -25.2121L20.8562 -42.4378C21.0539 -43.1613 21.6159 -43.7274 22.334 -43.9161ZM30.2749 -44L39.5167 -34.6899V-31.7228L27.3296 -44H30.2749ZM37.4352 -44C38.58 -44 39.5167 -43.0564 39.5167 -41.9031V-39.8063L35.3537 -44H37.4352ZM22.8648 -25.1282C22.2924 -25.1282 21.772 -25.3589 21.3974 -25.7468C21.0123 -26.1242 20.7833 -26.6484 20.7833 -27.2251V-29.3219L24.9463 -25.1282H22.8648ZM32.9704 -25.1282H30.0251L20.7833 -34.4383V-37.4054L32.9704 -25.1282Z" fill="#3C15FC"/>
  <path d="M-10.4493 -43.9161L6.65009 -26.6904C6.55643 -26.3339 6.36908 -26.0089 6.11929 -25.7468C5.8591 -25.4952 5.53647 -25.3064 5.18262 -25.2121L-11.9272 -42.4378C-11.7294 -43.1613 -11.1674 -43.7274 -10.4493 -43.9161ZM-2.50845 -44L6.73334 -34.6899V-31.7228L-5.45374 -44H-2.50845ZM4.65186 -44C5.79666 -44 6.73334 -43.0564 6.73334 -41.9031V-39.8063L2.57037 -44H4.65186ZM-9.91852 -25.1282C-10.4909 -25.1282 -11.0113 -25.3589 -11.386 -25.7468C-11.771 -26.1242 -12 -26.6484 -12 -27.2251V-29.3219L-7.83704 -25.1282H-9.91852ZM0.187073 -25.1282H-2.75821L-12 -34.4383V-37.4054L0.187073 -25.1282Z" fill="#3C15FC"/>
  <path d="M251.817 -10.8905L268.917 6.33527C268.823 6.69174 268.636 7.01675 268.386 7.27886C268.126 7.53049 267.803 7.7192 267.449 7.81356L250.34 -9.41219C250.537 -10.1356 251.099 -10.7018 251.817 -10.8905ZM259.758 -10.9744L269 -1.66427V1.3028L256.813 -10.9744H259.758ZM266.919 -10.9744C268.063 -10.9744 269 -10.0308 269 -8.87749V-6.78062L264.837 -10.9744H266.919ZM252.348 7.89744C251.776 7.89744 251.255 7.66678 250.881 7.27886C250.496 6.90142 250.267 6.37721 250.267 5.80057V3.7037L254.43 7.89744H252.348ZM262.454 7.89744H259.508L250.267 -1.41265V-4.37971L262.454 7.89744Z" fill="#3C15FC"/>
  <path d="M219.034 -10.8905L236.133 6.33527C236.04 6.69174 235.852 7.01675 235.603 7.27886C235.342 7.53049 235.02 7.7192 234.666 7.81356L217.556 -9.41219C217.754 -10.1356 218.316 -10.7018 219.034 -10.8905ZM226.975 -10.9744L236.217 -1.66427V1.3028L224.03 -10.9744H226.975ZM234.135 -10.9744C235.28 -10.9744 236.217 -10.0308 236.217 -8.87749V-6.78062L232.054 -10.9744H234.135ZM219.565 7.89744C218.992 7.89744 218.472 7.66678 218.097 7.27886C217.712 6.90142 217.483 6.37721 217.483 5.80057V3.7037L221.646 7.89744H219.565ZM229.67 7.89744H226.725L217.483 -1.41265V-4.37971L229.67 7.89744Z" fill="#3C15FC"/>
  <path d="M186.251 -10.8905L203.35 6.33527C203.256 6.69174 203.069 7.01675 202.819 7.27886C202.559 7.53049 202.236 7.7192 201.883 7.81356L184.773 -9.41219C184.971 -10.1356 185.533 -10.7018 186.251 -10.8905ZM194.192 -10.9744L203.433 -1.66427V1.3028L191.246 -10.9744H194.192ZM201.352 -10.9744C202.497 -10.9744 203.433 -10.0308 203.433 -8.87749V-6.78062L199.27 -10.9744H201.352ZM186.781 7.89744C186.209 7.89744 185.689 7.66678 185.314 7.27886C184.929 6.90142 184.7 6.37721 184.7 5.80057V3.7037L188.863 7.89744H186.781ZM196.887 7.89744H193.942L184.7 -1.41265V-4.37971L196.887 7.89744Z" fill="#3C15FC"/>
  <path d="M153.467 -10.8905L170.567 6.33527C170.473 6.69174 170.286 7.01675 170.036 7.27886C169.776 7.53049 169.453 7.7192 169.099 7.81356L151.99 -9.41219C152.187 -10.1356 152.749 -10.7018 153.467 -10.8905ZM161.408 -10.9744L170.65 -1.66427V1.3028L158.463 -10.9744H161.408ZM168.569 -10.9744C169.713 -10.9744 170.65 -10.0308 170.65 -8.87749V-6.78062L166.487 -10.9744H168.569ZM153.998 7.89744C153.426 7.89744 152.905 7.66678 152.531 7.27886C152.146 6.90142 151.917 6.37721 151.917 5.80057V3.7037L156.08 7.89744H153.998ZM164.104 7.89744H161.158L151.917 -1.41265V-4.37971L164.104 7.89744Z" fill="#3C15FC"/>
  <path d="M120.684 -10.8905L137.783 6.33527C137.69 6.69174 137.502 7.01675 137.253 7.27886C136.992 7.53049 136.67 7.7192 136.316 7.81356L119.206 -9.41219C119.404 -10.1356 119.966 -10.7018 120.684 -10.8905ZM128.625 -10.9744L137.867 -1.66427V1.3028L125.68 -10.9744H128.625ZM135.785 -10.9744C136.93 -10.9744 137.867 -10.0308 137.867 -8.87749V-6.78062L133.704 -10.9744H135.785ZM121.215 7.89744C120.642 7.89744 120.122 7.66678 119.747 7.27886C119.362 6.90142 119.133 6.37721 119.133 5.80057V3.7037L123.296 7.89744H121.215ZM131.32 7.89744H128.375L119.133 -1.41265V-4.37971L131.32 7.89744Z" fill="#3C15FC"/>
  <path d="M87.9007 -10.8905L105 6.33527C104.906 6.69174 104.719 7.01675 104.469 7.27886C104.209 7.53049 103.886 7.7192 103.533 7.81356L86.4229 -9.41219C86.6206 -10.1356 87.1826 -10.7018 87.9007 -10.8905ZM95.8415 -10.9744L105.083 -1.66427V1.3028L92.8963 -10.9744H95.8415ZM103.002 -10.9744C104.147 -10.9744 105.083 -10.0308 105.083 -8.87749V-6.78062L100.92 -10.9744H103.002ZM88.4315 7.89744C87.8591 7.89744 87.3387 7.66678 86.964 7.27886C86.579 6.90142 86.35 6.37721 86.35 5.80057V3.7037L90.513 7.89744H88.4315ZM98.5371 7.89744H95.5918L86.35 -1.41265V-4.37971L98.5371 7.89744Z" fill="#3C15FC"/>
  <path d="M55.1174 -10.8905L72.2168 6.33527C72.1231 6.69174 71.9357 7.01675 71.686 7.27886C71.4258 7.53049 71.1031 7.7192 70.7493 7.81356L53.6395 -9.41219C53.8373 -10.1356 54.3993 -10.7018 55.1174 -10.8905ZM63.0582 -10.9744L72.3 -1.66427V1.3028L60.1129 -10.9744H63.0582ZM70.2185 -10.9744C71.3633 -10.9744 72.3 -10.0308 72.3 -8.87749V-6.78062L68.137 -10.9744H70.2185ZM55.6481 7.89744C55.0757 7.89744 54.5554 7.66678 54.1807 7.27886C53.7956 6.90142 53.5667 6.37721 53.5667 5.80057V3.7037L57.7296 7.89744H55.6481ZM65.7537 7.89744H62.8085L53.5667 -1.41265V-4.37971L65.7537 7.89744Z" fill="#3C15FC"/>
  <path d="M22.334 -10.8905L39.4334 6.33527C39.3397 6.69174 39.1524 7.01675 38.9026 7.27886C38.6425 7.53049 38.3198 7.7192 37.966 7.81356L20.8562 -9.41219C21.0539 -10.1356 21.6159 -10.7018 22.334 -10.8905ZM30.2749 -10.9744L39.5167 -1.66427V1.3028L27.3296 -10.9744H30.2749ZM37.4352 -10.9744C38.58 -10.9744 39.5167 -10.0308 39.5167 -8.87749V-6.78062L35.3537 -10.9744H37.4352ZM22.8648 7.89744C22.2924 7.89744 21.772 7.66678 21.3974 7.27886C21.0123 6.90142 20.7833 6.37721 20.7833 5.80057V3.7037L24.9463 7.89744H22.8648ZM32.9704 7.89744H30.0251L20.7833 -1.41265V-4.37971L32.9704 7.89744Z" fill="#3C15FC"/>
  <path d="M-10.4493 -10.8905L6.65009 6.33527C6.55643 6.69174 6.36908 7.01675 6.11929 7.27886C5.8591 7.53049 5.53647 7.7192 5.18262 7.81356L-11.9272 -9.41219C-11.7294 -10.1356 -11.1674 -10.7018 -10.4493 -10.8905ZM-2.50845 -10.9744L6.73334 -1.66427V1.3028L-5.45374 -10.9744H-2.50845ZM4.65186 -10.9744C5.79666 -10.9744 6.73334 -10.0308 6.73334 -8.87749V-6.78062L2.57037 -10.9744H4.65186ZM-9.91852 7.89744C-10.4909 7.89744 -11.0113 7.66678 -11.386 7.27886C-11.771 6.90142 -12 6.37721 -12 5.80057V3.7037L-7.83704 7.89744H-9.91852ZM0.187073 7.89744H-2.75821L-12 -1.41265V-4.37971L0.187073 7.89744Z" fill="#3C15FC"/>
  <path d="M251.817 22.1352L268.917 39.3609C268.823 39.7174 268.636 40.0424 268.386 40.3045C268.126 40.5561 267.803 40.7448 267.449 40.8392L250.34 23.6134C250.537 22.89 251.099 22.3239 251.817 22.1352ZM259.758 22.0513L269 31.3614V34.3284L256.813 22.0513H259.758ZM266.919 22.0513C268.063 22.0513 269 22.9949 269 24.1482V26.245L264.837 22.0513H266.919ZM252.348 40.9231C251.776 40.9231 251.255 40.6924 250.881 40.3045C250.496 39.9271 250.267 39.4028 250.267 38.8262V36.7293L254.43 40.9231H252.348ZM262.454 40.9231H259.508L250.267 31.613V28.6459L262.454 40.9231Z" fill="#3C15FC"/>
  <path d="M219.034 22.1352L236.133 39.3609C236.04 39.7174 235.852 40.0424 235.603 40.3045C235.342 40.5561 235.02 40.7448 234.666 40.8392L217.556 23.6134C217.754 22.89 218.316 22.3239 219.034 22.1352ZM226.975 22.0513L236.217 31.3614V34.3284L224.03 22.0513H226.975ZM234.135 22.0513C235.28 22.0513 236.217 22.9949 236.217 24.1482V26.245L232.054 22.0513H234.135ZM219.565 40.9231C218.992 40.9231 218.472 40.6924 218.097 40.3045C217.712 39.9271 217.483 39.4028 217.483 38.8262V36.7293L221.646 40.9231H219.565ZM229.67 40.9231H226.725L217.483 31.613V28.6459L229.67 40.9231Z" fill="#3C15FC"/>
  <path d="M186.251 22.1352L203.35 39.3609C203.256 39.7174 203.069 40.0424 202.819 40.3045C202.559 40.5561 202.236 40.7448 201.883 40.8392L184.773 23.6134C184.971 22.89 185.533 22.3239 186.251 22.1352ZM194.192 22.0513L203.433 31.3614V34.3284L191.246 22.0513H194.192ZM201.352 22.0513C202.497 22.0513 203.433 22.9949 203.433 24.1482V26.245L199.27 22.0513H201.352ZM186.781 40.9231C186.209 40.9231 185.689 40.6924 185.314 40.3045C184.929 39.9271 184.7 39.4028 184.7 38.8262V36.7293L188.863 40.9231H186.781ZM196.887 40.9231H193.942L184.7 31.613V28.6459L196.887 40.9231Z" fill="#3C15FC"/>
  <path d="M153.467 22.1352L170.567 39.3609C170.473 39.7174 170.286 40.0424 170.036 40.3045C169.776 40.5561 169.453 40.7448 169.099 40.8392L151.99 23.6134C152.187 22.89 152.749 22.3239 153.467 22.1352ZM161.408 22.0513L170.65 31.3614V34.3284L158.463 22.0513H161.408ZM168.569 22.0513C169.713 22.0513 170.65 22.9949 170.65 24.1482V26.245L166.487 22.0513H168.569ZM153.998 40.9231C153.426 40.9231 152.905 40.6924 152.531 40.3045C152.146 39.9271 151.917 39.4028 151.917 38.8262V36.7293L156.08 40.9231H153.998ZM164.104 40.9231H161.158L151.917 31.613V28.6459L164.104 40.9231Z" fill="#3C15FC"/>
  <path d="M120.684 22.1352L137.783 39.3609C137.69 39.7174 137.502 40.0424 137.253 40.3045C136.992 40.5561 136.67 40.7448 136.316 40.8392L119.206 23.6134C119.404 22.89 119.966 22.3239 120.684 22.1352ZM128.625 22.0513L137.867 31.3614V34.3284L125.68 22.0513H128.625ZM135.785 22.0513C136.93 22.0513 137.867 22.9949 137.867 24.1482V26.245L133.704 22.0513H135.785ZM121.215 40.9231C120.642 40.9231 120.122 40.6924 119.747 40.3045C119.362 39.9271 119.133 39.4028 119.133 38.8262V36.7293L123.296 40.9231H121.215ZM131.32 40.9231H128.375L119.133 31.613V28.6459L131.32 40.9231Z" fill="#3C15FC"/>
  <path d="M87.9007 22.1352L105 39.3609C104.906 39.7174 104.719 40.0424 104.469 40.3045C104.209 40.5561 103.886 40.7448 103.533 40.8392L86.4229 23.6134C86.6206 22.89 87.1826 22.3239 87.9007 22.1352ZM95.8415 22.0513L105.083 31.3614V34.3284L92.8963 22.0513H95.8415ZM103.002 22.0513C104.147 22.0513 105.083 22.9949 105.083 24.1482V26.245L100.92 22.0513H103.002ZM88.4315 40.9231C87.8591 40.9231 87.3387 40.6924 86.964 40.3045C86.579 39.9271 86.35 39.4028 86.35 38.8262V36.7293L90.513 40.9231H88.4315ZM98.5371 40.9231H95.5918L86.35 31.613V28.6459L98.5371 40.9231Z" fill="#3C15FC"/>
  <path d="M55.1174 22.1352L72.2168 39.3609C72.1231 39.7174 71.9357 40.0424 71.686 40.3045C71.4258 40.5561 71.1031 40.7448 70.7493 40.8392L53.6395 23.6134C53.8373 22.89 54.3993 22.3239 55.1174 22.1352ZM63.0582 22.0513L72.3 31.3614V34.3284L60.1129 22.0513H63.0582ZM70.2185 22.0513C71.3633 22.0513 72.3 22.9949 72.3 24.1482V26.245L68.137 22.0513H70.2185ZM55.6481 40.9231C55.0757 40.9231 54.5554 40.6924 54.1807 40.3045C53.7956 39.9271 53.5667 39.4028 53.5667 38.8262V36.7293L57.7296 40.9231H55.6481ZM65.7537 40.9231H62.8085L53.5667 31.613V28.6459L65.7537 40.9231Z" fill="#3C15FC"/>
  <path d="M22.334 22.1352L39.4334 39.3609C39.3397 39.7174 39.1524 40.0424 38.9026 40.3045C38.6425 40.5561 38.3198 40.7448 37.966 40.8392L20.8562 23.6134C21.0539 22.89 21.6159 22.3239 22.334 22.1352ZM30.2749 22.0513L39.5167 31.3614V34.3284L27.3296 22.0513H30.2749ZM37.4352 22.0513C38.58 22.0513 39.5167 22.9949 39.5167 24.1482V26.245L35.3537 22.0513H37.4352ZM22.8648 40.9231C22.2924 40.9231 21.772 40.6924 21.3974 40.3045C21.0123 39.9271 20.7833 39.4028 20.7833 38.8262V36.7293L24.9463 40.9231H22.8648ZM32.9704 40.9231H30.0251L20.7833 31.613V28.6459L32.9704 40.9231Z" fill="#3C15FC"/>
  <path d="M-10.4493 22.1352L6.65009 39.3609C6.55643 39.7174 6.36908 40.0424 6.11929 40.3045C5.8591 40.5561 5.53647 40.7448 5.18262 40.8392L-11.9272 23.6134C-11.7294 22.89 -11.1674 22.3239 -10.4493 22.1352ZM-2.50845 22.0513L6.73334 31.3614V34.3284L-5.45374 22.0513H-2.50845ZM4.65186 22.0513C5.79666 22.0513 6.73334 22.9949 6.73334 24.1482V26.245L2.57037 22.0513H4.65186ZM-9.91852 40.9231C-10.4909 40.9231 -11.0113 40.6924 -11.386 40.3045C-11.771 39.9271 -12 39.4028 -12 38.8262V36.7293L-7.83704 40.9231H-9.91852ZM0.187073 40.9231H-2.75821L-12 31.613V28.6459L0.187073 40.9231Z" fill="#3C15FC"/>
  <path d="M251.817 55.1608L268.917 72.3866C268.823 72.743 268.636 73.068 268.386 73.3301C268.126 73.5818 267.803 73.7705 267.449 73.8648L250.34 56.6391C250.537 55.9157 251.099 55.3495 251.817 55.1608ZM259.758 55.0769L269 64.387V67.3541L256.813 55.0769H259.758ZM266.919 55.0769C268.063 55.0769 269 56.0205 269 57.1738V59.2707L264.837 55.0769H266.919ZM252.348 73.9487C251.776 73.9487 251.255 73.7181 250.881 73.3301C250.496 72.9527 250.267 72.4285 250.267 71.8519V69.755L254.43 73.9487H252.348ZM262.454 73.9487H259.508L250.267 64.6386V61.6716L262.454 73.9487Z" fill="#3C15FC"/>
  <path d="M219.034 55.1608L236.133 72.3866C236.04 72.743 235.852 73.068 235.603 73.3301C235.342 73.5818 235.02 73.7705 234.666 73.8648L217.556 56.6391C217.754 55.9157 218.316 55.3495 219.034 55.1608ZM226.975 55.0769L236.217 64.387V67.3541L224.03 55.0769H226.975ZM234.135 55.0769C235.28 55.0769 236.217 56.0205 236.217 57.1738V59.2707L232.054 55.0769H234.135ZM219.565 73.9487C218.992 73.9487 218.472 73.7181 218.097 73.3301C217.712 72.9527 217.483 72.4285 217.483 71.8519V69.755L221.646 73.9487H219.565ZM229.67 73.9487H226.725L217.483 64.6386V61.6716L229.67 73.9487Z" fill="#3C15FC"/>
  <path d="M186.251 55.1608L203.35 72.3866C203.256 72.743 203.069 73.068 202.819 73.3301C202.559 73.5818 202.236 73.7705 201.883 73.8648L184.773 56.6391C184.971 55.9157 185.533 55.3495 186.251 55.1608ZM194.192 55.0769L203.433 64.387V67.3541L191.246 55.0769H194.192ZM201.352 55.0769C202.497 55.0769 203.433 56.0205 203.433 57.1738V59.2707L199.27 55.0769H201.352ZM186.781 73.9487C186.209 73.9487 185.689 73.7181 185.314 73.3301C184.929 72.9527 184.7 72.4285 184.7 71.8519V69.755L188.863 73.9487H186.781ZM196.887 73.9487H193.942L184.7 64.6386V61.6716L196.887 73.9487Z" fill="#3C15FC"/>
  <path d="M153.467 55.1608L170.567 72.3866C170.473 72.743 170.286 73.068 170.036 73.3301C169.776 73.5818 169.453 73.7705 169.099 73.8648L151.99 56.6391C152.187 55.9157 152.749 55.3495 153.467 55.1608ZM161.408 55.0769L170.65 64.387V67.3541L158.463 55.0769H161.408ZM168.569 55.0769C169.713 55.0769 170.65 56.0205 170.65 57.1738V59.2707L166.487 55.0769H168.569ZM153.998 73.9487C153.426 73.9487 152.905 73.7181 152.531 73.3301C152.146 72.9527 151.917 72.4285 151.917 71.8519V69.755L156.08 73.9487H153.998ZM164.104 73.9487H161.158L151.917 64.6386V61.6716L164.104 73.9487Z" fill="#3C15FC"/>
  <path d="M120.684 55.1608L137.783 72.3866C137.69 72.743 137.502 73.068 137.253 73.3301C136.992 73.5818 136.67 73.7705 136.316 73.8648L119.206 56.6391C119.404 55.9157 119.966 55.3495 120.684 55.1608ZM128.625 55.0769L137.867 64.387V67.3541L125.68 55.0769H128.625ZM135.785 55.0769C136.93 55.0769 137.867 56.0205 137.867 57.1738V59.2707L133.704 55.0769H135.785ZM121.215 73.9487C120.642 73.9487 120.122 73.7181 119.747 73.3301C119.362 72.9527 119.133 72.4285 119.133 71.8519V69.755L123.296 73.9487H121.215ZM131.32 73.9487H128.375L119.133 64.6386V61.6716L131.32 73.9487Z" fill="#3C15FC"/>
  <path d="M87.9007 55.1608L105 72.3866C104.906 72.743 104.719 73.068 104.469 73.3301C104.209 73.5818 103.886 73.7705 103.533 73.8648L86.4229 56.6391C86.6206 55.9157 87.1826 55.3495 87.9007 55.1608ZM95.8415 55.0769L105.083 64.387V67.3541L92.8963 55.0769H95.8415ZM103.002 55.0769C104.147 55.0769 105.083 56.0205 105.083 57.1738V59.2707L100.92 55.0769H103.002ZM88.4315 73.9487C87.8591 73.9487 87.3387 73.7181 86.964 73.3301C86.579 72.9527 86.35 72.4285 86.35 71.8519V69.755L90.513 73.9487H88.4315ZM98.5371 73.9487H95.5918L86.35 64.6386V61.6716L98.5371 73.9487Z" fill="#3C15FC"/>
  <path d="M55.1174 55.1608L72.2168 72.3866C72.1231 72.743 71.9357 73.068 71.686 73.3301C71.4258 73.5818 71.1031 73.7705 70.7493 73.8648L53.6395 56.6391C53.8373 55.9157 54.3993 55.3495 55.1174 55.1608ZM63.0582 55.0769L72.3 64.387V67.3541L60.1129 55.0769H63.0582ZM70.2185 55.0769C71.3633 55.0769 72.3 56.0205 72.3 57.1738V59.2707L68.137 55.0769H70.2185ZM55.6481 73.9487C55.0757 73.9487 54.5554 73.7181 54.1807 73.3301C53.7956 72.9527 53.5667 72.4285 53.5667 71.8519V69.755L57.7296 73.9487H55.6481ZM65.7537 73.9487H62.8085L53.5667 64.6386V61.6716L65.7537 73.9487Z" fill="#3C15FC"/>
  <path d="M22.334 55.1608L39.4334 72.3866C39.3397 72.743 39.1524 73.068 38.9026 73.3301C38.6425 73.5818 38.3198 73.7705 37.966 73.8648L20.8562 56.6391C21.0539 55.9157 21.6159 55.3495 22.334 55.1608ZM30.2749 55.0769L39.5167 64.387V67.3541L27.3296 55.0769H30.2749ZM37.4352 55.0769C38.58 55.0769 39.5167 56.0205 39.5167 57.1738V59.2707L35.3537 55.0769H37.4352ZM22.8648 73.9487C22.2924 73.9487 21.772 73.7181 21.3974 73.3301C21.0123 72.9527 20.7833 72.4285 20.7833 71.8519V69.755L24.9463 73.9487H22.8648ZM32.9704 73.9487H30.0251L20.7833 64.6386V61.6716L32.9704 73.9487Z" fill="#3C15FC"/>
  <path d="M-10.4493 55.1608L6.65009 72.3866C6.55643 72.743 6.36908 73.068 6.11929 73.3301C5.8591 73.5818 5.53647 73.7705 5.18262 73.8648L-11.9272 56.6391C-11.7294 55.9157 -11.1674 55.3495 -10.4493 55.1608ZM-2.50845 55.0769L6.73334 64.387V67.3541L-5.45374 55.0769H-2.50845ZM4.65186 55.0769C5.79666 55.0769 6.73334 56.0205 6.73334 57.1738V59.2707L2.57037 55.0769H4.65186ZM-9.91852 73.9487C-10.4909 73.9487 -11.0113 73.7181 -11.386 73.3301C-11.771 72.9527 -12 72.4285 -12 71.8519V69.755L-7.83704 73.9487H-9.91852ZM0.187073 73.9487H-2.75821L-12 64.6386V61.6716L0.187073 73.9487Z" fill="#3C15FC"/>
  <path d="M121.817 122.084L138.917 139.31C138.823 139.666 138.636 139.991 138.386 140.253C138.126 140.505 137.803 140.694 137.449 140.788L120.34 123.562C120.537 122.839 121.099 122.273 121.817 122.084ZM129.758 122L139 131.31V134.277L126.813 122H129.758ZM136.919 122C138.063 122 139 122.944 139 124.097V126.194L134.837 122H136.919ZM122.348 140.872C121.776 140.872 121.255 140.641 120.881 140.253C120.496 139.876 120.267 139.352 120.267 138.775V136.678L124.43 140.872H122.348ZM132.454 140.872H129.508L120.267 131.562V128.595L132.454 140.872Z" fill="#3C15FC"/>
  <path d="M89.034 122.084L106.133 139.31C106.04 139.666 105.852 139.991 105.603 140.253C105.342 140.505 105.02 140.694 104.666 140.788L87.5562 123.562C87.7539 122.839 88.3159 122.273 89.034 122.084ZM96.9749 122L106.217 131.31V134.277L94.0296 122H96.9749ZM104.135 122C105.28 122 106.217 122.944 106.217 124.097V126.194L102.054 122H104.135ZM89.5648 140.872C88.9924 140.872 88.472 140.641 88.0974 140.253C87.7123 139.876 87.4833 139.352 87.4833 138.775V136.678L91.6463 140.872H89.5648ZM99.6704 140.872H96.7251L87.4833 131.562V128.595L99.6704 140.872Z" fill="#3C15FC"/>
  <path d="M56.2507 122.084L73.3501 139.31C73.2564 139.666 73.0691 139.991 72.8193 140.253C72.5591 140.505 72.2365 140.694 71.8826 140.788L54.7729 123.562C54.9706 122.839 55.5326 122.273 56.2507 122.084ZM64.1916 122L73.4333 131.31V134.277L61.2463 122H64.1916ZM71.3519 122C72.4967 122 73.4333 122.944 73.4333 124.097V126.194L69.2704 122H71.3519ZM56.7815 140.872C56.2091 140.872 55.6887 140.641 55.314 140.253C54.929 139.876 54.7 139.352 54.7 138.775V136.678L58.863 140.872H56.7815ZM66.8871 140.872H63.9418L54.7 131.562V128.595L66.8871 140.872Z" fill="#3C15FC"/>
  <path d="M23.4674 122.084L40.5667 139.31C40.4731 139.666 40.2857 139.991 40.036 140.253C39.7758 140.505 39.4531 140.694 39.0993 140.788L21.9895 123.562C22.1873 122.839 22.7493 122.273 23.4674 122.084ZM31.4082 122L40.65 131.31V134.277L28.4629 122H31.4082ZM38.5685 122C39.7133 122 40.65 122.944 40.65 124.097V126.194L36.487 122H38.5685ZM23.9981 140.872C23.4257 140.872 22.9054 140.641 22.5307 140.253C22.1456 139.876 21.9167 139.352 21.9167 138.775V136.678L26.0796 140.872H23.9981ZM34.1037 140.872H31.1584L21.9167 131.562V128.595L34.1037 140.872Z" fill="#3C15FC"/>
  <path d="M89.034 155.11L106.133 172.335C106.04 172.692 105.852 173.017 105.603 173.279C105.342 173.53 105.02 173.719 104.666 173.814L87.5562 156.588C87.7539 155.864 88.3159 155.298 89.034 155.11ZM96.9749 155.026L106.217 164.336V167.303L94.0296 155.026H96.9749ZM104.135 155.026C105.28 155.026 106.217 155.969 106.217 157.123V159.219L102.054 155.026H104.135ZM89.5648 173.897C88.9924 173.897 88.472 173.667 88.0974 173.279C87.7123 172.901 87.4833 172.377 87.4833 171.801V169.704L91.6463 173.897H89.5648ZM99.6704 173.897H96.7251L87.4833 164.587V161.62L99.6704 173.897Z" fill="#3C15FC"/>
  <path d="M56.2507 155.11L73.3501 172.335C73.2564 172.692 73.0691 173.017 72.8193 173.279C72.5591 173.53 72.2365 173.719 71.8826 173.814L54.7729 156.588C54.9706 155.864 55.5326 155.298 56.2507 155.11ZM64.1916 155.026L73.4333 164.336V167.303L61.2463 155.026H64.1916ZM71.3519 155.026C72.4967 155.026 73.4333 155.969 73.4333 157.123V159.219L69.2704 155.026H71.3519ZM56.7815 173.897C56.2091 173.897 55.6887 173.667 55.314 173.279C54.929 172.901 54.7 172.377 54.7 171.801V169.704L58.863 173.897H56.7815ZM66.8871 173.897H63.9418L54.7 164.587V161.62L66.8871 173.897Z" fill="#3C15FC"/>
  <path d="M23.4674 155.11L40.5667 172.335C40.4731 172.692 40.2857 173.017 40.036 173.279C39.7758 173.53 39.4531 173.719 39.0993 173.814L21.9895 156.588C22.1873 155.864 22.7493 155.298 23.4674 155.11ZM31.4082 155.026L40.65 164.336V167.303L28.4629 155.026H31.4082ZM38.5685 155.026C39.7133 155.026 40.65 155.969 40.65 157.123V159.219L36.487 155.026H38.5685ZM23.9981 173.897C23.4257 173.897 22.9054 173.667 22.5307 173.279C22.1456 172.901 21.9167 172.377 21.9167 171.801V169.704L26.0796 173.897H23.9981ZM34.1037 173.897H31.1584L21.9167 164.587V161.62L34.1037 173.897Z" fill="#3C15FC"/>
  <path d="M121.817 188.135L138.917 205.361C138.823 205.717 138.636 206.042 138.386 206.305C138.126 206.556 137.803 206.745 137.449 206.839L120.34 189.613C120.537 188.89 121.099 188.324 121.817 188.135ZM129.758 188.051L139 197.361V200.328L126.813 188.051H129.758ZM136.919 188.051C138.063 188.051 139 188.995 139 190.148V192.245L134.837 188.051H136.919ZM122.348 206.923C121.776 206.923 121.255 206.692 120.881 206.305C120.496 205.927 120.267 205.403 120.267 204.826V202.729L124.43 206.923H122.348ZM132.454 206.923H129.508L120.267 197.613V194.646L132.454 206.923Z" fill="#3C15FC"/>
  <path d="M89.034 188.135L106.133 205.361C106.04 205.717 105.852 206.042 105.603 206.305C105.342 206.556 105.02 206.745 104.666 206.839L87.5562 189.613C87.7539 188.89 88.3159 188.324 89.034 188.135ZM96.9749 188.051L106.217 197.361V200.328L94.0296 188.051H96.9749ZM104.135 188.051C105.28 188.051 106.217 188.995 106.217 190.148V192.245L102.054 188.051H104.135ZM89.5648 206.923C88.9924 206.923 88.472 206.692 88.0974 206.305C87.7123 205.927 87.4833 205.403 87.4833 204.826V202.729L91.6463 206.923H89.5648ZM99.6704 206.923H96.7251L87.4833 197.613V194.646L99.6704 206.923Z" fill="#3C15FC"/>
  <path d="M56.2507 188.135L73.3501 205.361C73.2564 205.717 73.0691 206.042 72.8193 206.305C72.5591 206.556 72.2365 206.745 71.8826 206.839L54.7729 189.613C54.9706 188.89 55.5326 188.324 56.2507 188.135ZM64.1916 188.051L73.4333 197.361V200.328L61.2463 188.051H64.1916ZM71.3519 188.051C72.4967 188.051 73.4333 188.995 73.4333 190.148V192.245L69.2704 188.051H71.3519ZM56.7815 206.923C56.2091 206.923 55.6887 206.692 55.314 206.305C54.929 205.927 54.7 205.403 54.7 204.826V202.729L58.863 206.923H56.7815ZM66.8871 206.923H63.9418L54.7 197.613V194.646L66.8871 206.923Z" fill="#3C15FC"/>
  <path d="M23.4674 188.135L40.5667 205.361C40.4731 205.717 40.2857 206.042 40.036 206.305C39.7758 206.556 39.4531 206.745 39.0993 206.839L21.9895 189.613C22.1873 188.89 22.7493 188.324 23.4674 188.135ZM31.4082 188.051L40.65 197.361V200.328L28.4629 188.051H31.4082ZM38.5685 188.051C39.7133 188.051 40.65 188.995 40.65 190.148V192.245L36.487 188.051H38.5685ZM23.9981 206.923C23.4257 206.923 22.9054 206.692 22.5307 206.305C22.1456 205.927 21.9167 205.403 21.9167 204.826V202.729L26.0796 206.923H23.9981ZM34.1037 206.923H31.1584L21.9167 197.613V194.646L34.1037 206.923Z" fill="#3C15FC"/>
  <path d="M121.817 221.161L138.917 238.387C138.823 238.743 138.636 239.068 138.386 239.33C138.126 239.582 137.803 239.77 137.449 239.865L120.34 222.639C120.537 221.916 121.099 221.35 121.817 221.161ZM129.758 221.077L139 230.387V233.354L126.813 221.077H129.758ZM136.919 221.077C138.063 221.077 139 222.021 139 223.174V225.271L134.837 221.077H136.919ZM122.348 239.949C121.776 239.949 121.255 239.718 120.881 239.33C120.496 238.953 120.267 238.428 120.267 237.852V235.755L124.43 239.949H122.348ZM132.454 239.949H129.508L120.267 230.639V227.672L132.454 239.949Z" fill="#3C15FC"/>
  <path d="M89.034 221.161L106.133 238.387C106.04 238.743 105.852 239.068 105.603 239.33C105.342 239.582 105.02 239.77 104.666 239.865L87.5562 222.639C87.7539 221.916 88.3159 221.35 89.034 221.161ZM96.9749 221.077L106.217 230.387V233.354L94.0296 221.077H96.9749ZM104.135 221.077C105.28 221.077 106.217 222.021 106.217 223.174V225.271L102.054 221.077H104.135ZM89.5648 239.949C88.9924 239.949 88.472 239.718 88.0974 239.33C87.7123 238.953 87.4833 238.428 87.4833 237.852V235.755L91.6463 239.949H89.5648ZM99.6704 239.949H96.7251L87.4833 230.639V227.672L99.6704 239.949Z" fill="#3C15FC"/>
  <path d="M56.2507 221.161L73.3501 238.387C73.2564 238.743 73.0691 239.068 72.8193 239.33C72.5591 239.582 72.2365 239.77 71.8826 239.865L54.7729 222.639C54.9706 221.916 55.5326 221.35 56.2507 221.161ZM64.1916 221.077L73.4333 230.387V233.354L61.2463 221.077H64.1916ZM71.3519 221.077C72.4967 221.077 73.4333 222.021 73.4333 223.174V225.271L69.2704 221.077H71.3519ZM56.7815 239.949C56.2091 239.949 55.6887 239.718 55.314 239.33C54.929 238.953 54.7 238.428 54.7 237.852V235.755L58.863 239.949H56.7815ZM66.8871 239.949H63.9418L54.7 230.639V227.672L66.8871 239.949Z" fill="#3C15FC"/>
  <path d="M23.4674 221.161L40.5667 238.387C40.4731 238.743 40.2857 239.068 40.036 239.33C39.7758 239.582 39.4531 239.77 39.0993 239.865L21.9895 222.639C22.1873 221.916 22.7493 221.35 23.4674 221.161ZM31.4082 221.077L40.65 230.387V233.354L28.4629 221.077H31.4082ZM38.5685 221.077C39.7133 221.077 40.65 222.021 40.65 223.174V225.271L36.487 221.077H38.5685ZM23.9981 239.949C23.4257 239.949 22.9054 239.718 22.5307 239.33C22.1456 238.953 21.9167 238.428 21.9167 237.852V235.755L26.0796 239.949H23.9981ZM34.1037 239.949H31.1584L21.9167 230.639V227.672L34.1037 239.949Z" fill="#3C15FC"/>
  <path d="M-9.53273 221.161L7.56664 238.387C7.47296 238.743 7.28563 239.068 7.03586 239.33C6.77568 239.582 6.45303 239.771 6.09918 239.865L-11.0106 222.639C-10.8129 221.916 -10.2508 221.35 -9.53273 221.161ZM-1.59189 221.077L7.6499 230.387V233.354L-4.53717 221.077H-1.59189ZM5.56842 221.077C6.71324 221.077 7.6499 222.021 7.6499 223.174V225.271L3.48694 221.077H5.56842ZM-9.00195 239.949C-9.57436 239.949 -10.0947 239.718 -10.4694 239.33C-10.8545 238.953 -11.0834 238.429 -11.0834 237.852V235.755L-6.92047 239.949H-9.00195ZM1.10364 239.949H-1.84166L-11.0834 230.639V227.672L1.10364 239.949Z" fill="#3C15FC"/>
</svg>
