<svg width="287" height="383" viewBox="0 0 287 383" fill="none"
  xmlns="http://www.w3.org/2000/svg">
  <path d="M115.183 349.814L98.0833 332.588C98.1769 332.231 98.3643 331.906 98.614 331.644C98.8742 331.393 99.1969 331.204 99.5507 331.11L116.66 348.335C116.463 349.059 115.901 349.625 115.183 349.814ZM107.242 349.897L98 340.587V337.62L110.187 349.897H107.242ZM100.081 349.897C98.9367 349.897 98 348.954 98 347.801V345.704L102.163 349.897H100.081ZM114.652 331.026C115.224 331.026 115.745 331.256 116.119 331.644C116.504 332.022 116.733 332.546 116.733 333.123V335.219L112.57 331.026H114.652ZM104.546 331.026H107.492L116.733 340.336V343.303L104.546 331.026Z" fill="#3C15FC"/>
  <path d="M147.966 349.814L130.867 332.588C130.96 332.231 131.148 331.906 131.397 331.644C131.658 331.393 131.98 331.204 132.334 331.11L149.444 348.335C149.246 349.059 148.684 349.625 147.966 349.814ZM140.025 349.897L130.783 340.587V337.62L142.97 349.897H140.025ZM132.865 349.897C131.72 349.897 130.783 348.954 130.783 347.801V345.704L134.946 349.897H132.865ZM147.435 331.026C148.008 331.026 148.528 331.256 148.903 331.644C149.288 332.022 149.517 332.546 149.517 333.123V335.219L145.354 331.026H147.435ZM137.33 331.026H140.275L149.517 340.336V343.303L137.33 331.026Z" fill="#3C15FC"/>
  <path d="M180.749 349.814L163.65 332.588C163.744 332.231 163.931 331.906 164.181 331.644C164.441 331.393 164.764 331.204 165.117 331.11L182.227 348.335C182.029 349.059 181.467 349.625 180.749 349.814ZM172.808 349.897L163.567 340.587V337.62L175.754 349.897H172.808ZM165.648 349.897C164.503 349.897 163.567 348.954 163.567 347.801V345.704L167.73 349.897H165.648ZM180.219 331.026C180.791 331.026 181.311 331.256 181.686 331.644C182.071 332.022 182.3 332.546 182.3 333.123V335.219L178.137 331.026H180.219ZM170.113 331.026H173.058L182.3 340.336V343.303L170.113 331.026Z" fill="#3C15FC"/>
  <path d="M213.533 349.814L196.433 332.588C196.527 332.231 196.714 331.906 196.964 331.644C197.224 331.393 197.547 331.204 197.901 331.11L215.01 348.335C214.813 349.059 214.251 349.625 213.533 349.814ZM205.592 349.897L196.35 340.587V337.62L208.537 349.897H205.592ZM198.431 349.897C197.287 349.897 196.35 348.954 196.35 347.801V345.704L200.513 349.897H198.431ZM213.002 331.026C213.574 331.026 214.095 331.256 214.469 331.644C214.854 332.022 215.083 332.546 215.083 333.123V335.219L210.92 331.026H213.002ZM202.896 331.026H205.842L215.083 340.336V343.303L202.896 331.026Z" fill="#3C15FC"/>
  <path d="M246.316 349.814L229.217 332.588C229.31 332.231 229.498 331.906 229.747 331.644C230.008 331.393 230.33 331.204 230.684 331.11L247.794 348.335C247.596 349.059 247.034 349.625 246.316 349.814ZM238.375 349.897L229.133 340.587V337.62L241.32 349.897H238.375ZM231.215 349.897C230.07 349.897 229.133 348.954 229.133 347.801V345.704L233.296 349.897H231.215ZM245.785 331.026C246.358 331.026 246.878 331.256 247.253 331.644C247.638 332.022 247.867 332.546 247.867 333.123V335.219L243.704 331.026H245.785ZM235.68 331.026H238.625L247.867 340.336V343.303L235.68 331.026Z" fill="#3C15FC"/>
  <path d="M279.099 349.814L262 332.588C262.094 332.231 262.281 331.906 262.531 331.644C262.791 331.393 263.114 331.204 263.467 331.11L280.577 348.335C280.379 349.059 279.817 349.625 279.099 349.814ZM271.158 349.897L261.917 340.587V337.62L274.104 349.897H271.158ZM263.998 349.897C262.853 349.897 261.917 348.954 261.917 347.801V345.704L266.08 349.897H263.998ZM278.569 331.026C279.141 331.026 279.661 331.256 280.036 331.644C280.421 332.022 280.65 332.546 280.65 333.123V335.219L276.487 331.026H278.569ZM268.463 331.026H271.408L280.65 340.336V343.303L268.463 331.026Z" fill="#3C15FC"/>
  <path d="M311.883 349.814L294.783 332.588C294.877 332.231 295.064 331.906 295.314 331.644C295.574 331.393 295.897 331.204 296.251 331.11L313.36 348.335C313.163 349.059 312.601 349.625 311.883 349.814ZM303.942 349.897L294.7 340.587V337.62L306.887 349.897H303.942ZM296.781 349.897C295.637 349.897 294.7 348.954 294.7 347.801V345.704L298.863 349.897H296.781ZM311.352 331.026C311.924 331.026 312.445 331.256 312.819 331.644C313.204 332.022 313.433 332.546 313.433 333.123V335.219L309.27 331.026H311.352ZM301.246 331.026H304.192L313.433 340.336V343.303L301.246 331.026Z" fill="#3C15FC"/>
  <path d="M344.666 349.814L327.567 332.588C327.66 332.231 327.848 331.906 328.097 331.644C328.358 331.393 328.68 331.204 329.034 331.11L346.144 348.335C345.946 349.059 345.384 349.625 344.666 349.814ZM336.725 349.897L327.483 340.587V337.62L339.67 349.897H336.725ZM329.565 349.897C328.42 349.897 327.483 348.954 327.483 347.801V345.704L331.646 349.897H329.565ZM344.135 331.026C344.708 331.026 345.228 331.256 345.603 331.644C345.988 332.022 346.217 332.546 346.217 333.123V335.219L342.054 331.026H344.135ZM334.03 331.026H336.975L346.217 340.336V343.303L334.03 331.026Z" fill="#3C15FC"/>
  <path d="M377.449 349.814L360.35 332.588C360.444 332.231 360.631 331.906 360.881 331.644C361.141 331.393 361.464 331.204 361.817 331.11L378.927 348.335C378.729 349.059 378.167 349.625 377.449 349.814ZM369.508 349.897L360.267 340.587V337.62L372.454 349.897H369.508ZM362.348 349.897C361.203 349.897 360.267 348.954 360.267 347.801V345.704L364.43 349.897H362.348ZM376.919 331.026C377.491 331.026 378.011 331.256 378.386 331.644C378.771 332.022 379 332.546 379 333.123V335.219L374.837 331.026H376.919ZM366.813 331.026H369.758L379 340.336V343.303L366.813 331.026Z" fill="#3C15FC"/>
  <path d="M115.183 316.788L98.0833 299.562C98.1769 299.206 98.3643 298.881 98.614 298.619C98.8742 298.367 99.1969 298.178 99.5507 298.084L116.66 315.31C116.463 316.033 115.901 316.599 115.183 316.788ZM107.242 316.872L98 307.562V304.595L110.187 316.872H107.242ZM100.081 316.872C98.9367 316.872 98 315.928 98 314.775V312.678L102.163 316.872H100.081ZM114.652 298C115.224 298 115.745 298.231 116.119 298.619C116.504 298.996 116.733 299.52 116.733 300.097V302.194L112.57 298H114.652ZM104.546 298H107.492L116.733 307.31V310.277L104.546 298Z" fill="#3C15FC"/>
  <path d="M147.966 316.788L130.867 299.562C130.96 299.206 131.148 298.881 131.397 298.619C131.658 298.367 131.98 298.178 132.334 298.084L149.444 315.31C149.246 316.033 148.684 316.599 147.966 316.788ZM140.025 316.872L130.783 307.562V304.595L142.97 316.872H140.025ZM132.865 316.872C131.72 316.872 130.783 315.928 130.783 314.775V312.678L134.946 316.872H132.865ZM147.435 298C148.008 298 148.528 298.231 148.903 298.619C149.288 298.996 149.517 299.52 149.517 300.097V302.194L145.354 298H147.435ZM137.33 298H140.275L149.517 307.31V310.277L137.33 298Z" fill="#3C15FC"/>
  <path d="M180.749 316.788L163.65 299.562C163.744 299.206 163.931 298.881 164.181 298.619C164.441 298.367 164.764 298.178 165.117 298.084L182.227 315.31C182.029 316.033 181.467 316.599 180.749 316.788ZM172.808 316.872L163.567 307.562V304.595L175.754 316.872H172.808ZM165.648 316.872C164.503 316.872 163.567 315.928 163.567 314.775V312.678L167.73 316.872H165.648ZM180.219 298C180.791 298 181.311 298.231 181.686 298.619C182.071 298.996 182.3 299.52 182.3 300.097V302.194L178.137 298H180.219ZM170.113 298H173.058L182.3 307.31V310.277L170.113 298Z" fill="#3C15FC"/>
  <path d="M213.533 316.788L196.433 299.562C196.527 299.206 196.714 298.881 196.964 298.619C197.224 298.367 197.547 298.178 197.901 298.084L215.01 315.31C214.813 316.033 214.251 316.599 213.533 316.788ZM205.592 316.872L196.35 307.562V304.595L208.537 316.872H205.592ZM198.431 316.872C197.287 316.872 196.35 315.928 196.35 314.775V312.678L200.513 316.872H198.431ZM213.002 298C213.574 298 214.095 298.231 214.469 298.619C214.854 298.996 215.083 299.52 215.083 300.097V302.194L210.92 298H213.002ZM202.896 298H205.842L215.083 307.31V310.277L202.896 298Z" fill="#3C15FC"/>
  <path d="M246.316 316.788L229.217 299.562C229.31 299.206 229.498 298.881 229.747 298.619C230.008 298.367 230.33 298.178 230.684 298.084L247.794 315.31C247.596 316.033 247.034 316.599 246.316 316.788ZM238.375 316.872L229.133 307.562V304.595L241.32 316.872H238.375ZM231.215 316.872C230.07 316.872 229.133 315.928 229.133 314.775V312.678L233.296 316.872H231.215ZM245.785 298C246.358 298 246.878 298.231 247.253 298.619C247.638 298.996 247.867 299.52 247.867 300.097V302.194L243.704 298H245.785ZM235.68 298H238.625L247.867 307.31V310.277L235.68 298Z" fill="#3C15FC"/>
  <path d="M279.099 316.788L262 299.562C262.094 299.206 262.281 298.881 262.531 298.619C262.791 298.367 263.114 298.178 263.467 298.084L280.577 315.31C280.379 316.033 279.817 316.599 279.099 316.788ZM271.158 316.872L261.917 307.562V304.595L274.104 316.872H271.158ZM263.998 316.872C262.853 316.872 261.917 315.928 261.917 314.775V312.678L266.08 316.872H263.998ZM278.569 298C279.141 298 279.661 298.231 280.036 298.619C280.421 298.996 280.65 299.52 280.65 300.097V302.194L276.487 298H278.569ZM268.463 298H271.408L280.65 307.31V310.277L268.463 298Z" fill="#3C15FC"/>
  <path d="M311.883 316.788L294.783 299.562C294.877 299.206 295.064 298.881 295.314 298.619C295.574 298.367 295.897 298.178 296.251 298.084L313.36 315.31C313.163 316.033 312.601 316.599 311.883 316.788ZM303.942 316.872L294.7 307.562V304.595L306.887 316.872H303.942ZM296.781 316.872C295.637 316.872 294.7 315.928 294.7 314.775V312.678L298.863 316.872H296.781ZM311.352 298C311.924 298 312.445 298.231 312.819 298.619C313.204 298.996 313.433 299.52 313.433 300.097V302.194L309.27 298H311.352ZM301.246 298H304.192L313.433 307.31V310.277L301.246 298Z" fill="#3C15FC"/>
  <path d="M344.666 316.788L327.567 299.562C327.66 299.206 327.848 298.881 328.097 298.619C328.358 298.367 328.68 298.178 329.034 298.084L346.144 315.31C345.946 316.033 345.384 316.599 344.666 316.788ZM336.725 316.872L327.483 307.562V304.595L339.67 316.872H336.725ZM329.565 316.872C328.42 316.872 327.483 315.928 327.483 314.775V312.678L331.646 316.872H329.565ZM344.135 298C344.708 298 345.228 298.231 345.603 298.619C345.988 298.996 346.217 299.52 346.217 300.097V302.194L342.054 298H344.135ZM334.03 298H336.975L346.217 307.31V310.277L334.03 298Z" fill="#3C15FC"/>
  <path d="M377.449 316.788L360.35 299.562C360.444 299.206 360.631 298.881 360.881 298.619C361.141 298.367 361.464 298.178 361.817 298.084L378.927 315.31C378.729 316.033 378.167 316.599 377.449 316.788ZM369.508 316.872L360.267 307.562V304.595L372.454 316.872H369.508ZM362.348 316.872C361.203 316.872 360.267 315.928 360.267 314.775V312.678L364.43 316.872H362.348ZM376.919 298C377.491 298 378.011 298.231 378.386 298.619C378.771 298.996 379 299.52 379 300.097V302.194L374.837 298H376.919ZM366.813 298H369.758L379 307.31V310.277L366.813 298Z" fill="#3C15FC"/>
  <path d="M115.183 283.762L98.0833 266.537C98.1769 266.18 98.3643 265.855 98.614 265.593C98.8742 265.341 99.1969 265.153 99.5507 265.058L116.66 282.284C116.463 283.007 115.901 283.574 115.183 283.762ZM107.242 283.846L98 274.536V271.569L110.187 283.846H107.242ZM100.081 283.846C98.9367 283.846 98 282.903 98 281.749V279.652L102.163 283.846H100.081ZM114.652 264.974C115.224 264.974 115.745 265.205 116.119 265.593C116.504 265.97 116.733 266.495 116.733 267.071V269.168L112.57 264.974H114.652ZM104.546 264.974H107.492L116.733 274.284V277.252L104.546 264.974Z" fill="#3C15FC"/>
  <path d="M147.966 283.762L130.867 266.537C130.96 266.18 131.148 265.855 131.397 265.593C131.658 265.341 131.98 265.153 132.334 265.058L149.444 282.284C149.246 283.007 148.684 283.574 147.966 283.762ZM140.025 283.846L130.783 274.536V271.569L142.97 283.846H140.025ZM132.865 283.846C131.72 283.846 130.783 282.903 130.783 281.749V279.652L134.946 283.846H132.865ZM147.435 264.974C148.008 264.974 148.528 265.205 148.903 265.593C149.288 265.97 149.517 266.495 149.517 267.071V269.168L145.354 264.974H147.435ZM137.33 264.974H140.275L149.517 274.284V277.252L137.33 264.974Z" fill="#3C15FC"/>
  <path d="M180.749 283.762L163.65 266.537C163.744 266.18 163.931 265.855 164.181 265.593C164.441 265.341 164.764 265.153 165.117 265.058L182.227 282.284C182.029 283.007 181.467 283.574 180.749 283.762ZM172.808 283.846L163.567 274.536V271.569L175.754 283.846H172.808ZM165.648 283.846C164.503 283.846 163.567 282.903 163.567 281.749V279.652L167.73 283.846H165.648ZM180.219 264.974C180.791 264.974 181.311 265.205 181.686 265.593C182.071 265.97 182.3 266.495 182.3 267.071V269.168L178.137 264.974H180.219ZM170.113 264.974H173.058L182.3 274.284V277.252L170.113 264.974Z" fill="#3C15FC"/>
  <path d="M213.533 283.762L196.433 266.537C196.527 266.18 196.714 265.855 196.964 265.593C197.224 265.341 197.547 265.153 197.901 265.058L215.01 282.284C214.813 283.007 214.251 283.574 213.533 283.762ZM205.592 283.846L196.35 274.536V271.569L208.537 283.846H205.592ZM198.431 283.846C197.287 283.846 196.35 282.903 196.35 281.749V279.652L200.513 283.846H198.431ZM213.002 264.974C213.574 264.974 214.095 265.205 214.469 265.593C214.854 265.97 215.083 266.495 215.083 267.071V269.168L210.92 264.974H213.002ZM202.896 264.974H205.842L215.083 274.284V277.252L202.896 264.974Z" fill="#3C15FC"/>
  <path d="M246.316 283.762L229.217 266.537C229.31 266.18 229.498 265.855 229.747 265.593C230.008 265.341 230.33 265.153 230.684 265.058L247.794 282.284C247.596 283.007 247.034 283.574 246.316 283.762ZM238.375 283.846L229.133 274.536V271.569L241.32 283.846H238.375ZM231.215 283.846C230.07 283.846 229.133 282.903 229.133 281.749V279.652L233.296 283.846H231.215ZM245.785 264.974C246.358 264.974 246.878 265.205 247.253 265.593C247.638 265.97 247.867 266.495 247.867 267.071V269.168L243.704 264.974H245.785ZM235.68 264.974H238.625L247.867 274.284V277.252L235.68 264.974Z" fill="#3C15FC"/>
  <path d="M311.883 283.762L294.783 266.537C294.877 266.18 295.064 265.855 295.314 265.593C295.574 265.341 295.897 265.153 296.251 265.058L313.36 282.284C313.163 283.007 312.601 283.574 311.883 283.762ZM303.942 283.846L294.7 274.536V271.569L306.887 283.846H303.942ZM296.781 283.846C295.637 283.846 294.7 282.903 294.7 281.749V279.652L298.863 283.846H296.781ZM311.352 264.974C311.924 264.974 312.445 265.205 312.819 265.593C313.204 265.97 313.433 266.495 313.433 267.071V269.168L309.27 264.974H311.352ZM301.246 264.974H304.192L313.433 274.284V277.252L301.246 264.974Z" fill="#3C15FC"/>
  <path d="M344.666 283.762L327.567 266.537C327.66 266.18 327.848 265.855 328.097 265.593C328.358 265.341 328.68 265.153 329.034 265.058L346.144 282.284C345.946 283.007 345.384 283.574 344.666 283.762ZM336.725 283.846L327.483 274.536V271.569L339.67 283.846H336.725ZM329.565 283.846C328.42 283.846 327.483 282.903 327.483 281.749V279.652L331.646 283.846H329.565ZM344.135 264.974C344.708 264.974 345.228 265.205 345.603 265.593C345.988 265.97 346.217 266.495 346.217 267.071V269.168L342.054 264.974H344.135ZM334.03 264.974H336.975L346.217 274.284V277.252L334.03 264.974Z" fill="#3C15FC"/>
  <path d="M377.449 283.762L360.35 266.537C360.444 266.18 360.631 265.855 360.881 265.593C361.141 265.341 361.464 265.153 361.817 265.058L378.927 282.284C378.729 283.007 378.167 283.574 377.449 283.762ZM369.508 283.846L360.267 274.536V271.569L372.454 283.846H369.508ZM362.348 283.846C361.203 283.846 360.267 282.903 360.267 281.749V279.652L364.43 283.846H362.348ZM376.919 264.974C377.491 264.974 378.011 265.205 378.386 265.593C378.771 265.97 379 266.495 379 267.071V269.168L374.837 264.974H376.919ZM366.813 264.974H369.758L379 274.284V277.252L366.813 264.974Z" fill="#3C15FC"/>
  <path d="M115.183 250.737L98.0833 233.511C98.1769 233.154 98.3643 232.829 98.614 232.567C98.8742 232.316 99.1969 232.127 99.5507 232.033L116.66 249.258C116.463 249.982 115.901 250.548 115.183 250.737ZM107.242 250.821L98 241.51V238.543L110.187 250.821H107.242ZM100.081 250.821C98.9367 250.821 98 249.877 98 248.724V246.627L102.163 250.821H100.081ZM114.652 231.949C115.224 231.949 115.745 232.179 116.119 232.567C116.504 232.945 116.733 233.469 116.733 234.046V236.142L112.57 231.949H114.652ZM104.546 231.949H107.492L116.733 241.259V244.226L104.546 231.949Z" fill="#3C15FC"/>
  <path d="M147.966 250.737L130.867 233.511C130.96 233.154 131.148 232.829 131.397 232.567C131.658 232.316 131.98 232.127 132.334 232.033L149.444 249.258C149.246 249.982 148.684 250.548 147.966 250.737ZM140.025 250.821L130.783 241.51V238.543L142.97 250.821H140.025ZM132.865 250.821C131.72 250.821 130.783 249.877 130.783 248.724V246.627L134.946 250.821H132.865ZM147.435 231.949C148.008 231.949 148.528 232.179 148.903 232.567C149.288 232.945 149.517 233.469 149.517 234.046V236.142L145.354 231.949H147.435ZM137.33 231.949H140.275L149.517 241.259V244.226L137.33 231.949Z" fill="#3C15FC"/>
  <path d="M180.749 250.737L163.65 233.511C163.744 233.154 163.931 232.829 164.181 232.567C164.441 232.316 164.764 232.127 165.117 232.033L182.227 249.258C182.029 249.982 181.467 250.548 180.749 250.737ZM172.808 250.821L163.567 241.51V238.543L175.754 250.821H172.808ZM165.648 250.821C164.503 250.821 163.567 249.877 163.567 248.724V246.627L167.73 250.821H165.648ZM180.219 231.949C180.791 231.949 181.311 232.179 181.686 232.567C182.071 232.945 182.3 233.469 182.3 234.046V236.142L178.137 231.949H180.219ZM170.113 231.949H173.058L182.3 241.259V244.226L170.113 231.949Z" fill="#3C15FC"/>
  <path d="M213.533 250.737L196.433 233.511C196.527 233.154 196.714 232.829 196.964 232.567C197.224 232.316 197.547 232.127 197.901 232.033L215.01 249.258C214.813 249.982 214.251 250.548 213.533 250.737ZM205.592 250.821L196.35 241.51V238.543L208.537 250.821H205.592ZM198.431 250.821C197.287 250.821 196.35 249.877 196.35 248.724V246.627L200.513 250.821H198.431ZM213.002 231.949C213.574 231.949 214.095 232.179 214.469 232.567C214.854 232.945 215.083 233.469 215.083 234.046V236.142L210.92 231.949H213.002ZM202.896 231.949H205.842L215.083 241.259V244.226L202.896 231.949Z" fill="#3C15FC"/>
  <path d="M246.316 250.737L229.217 233.511C229.31 233.154 229.498 232.829 229.747 232.567C230.008 232.316 230.33 232.127 230.684 232.033L247.794 249.258C247.596 249.982 247.034 250.548 246.316 250.737ZM238.375 250.821L229.133 241.51V238.543L241.32 250.821H238.375ZM231.215 250.821C230.07 250.821 229.133 249.877 229.133 248.724V246.627L233.296 250.821H231.215ZM245.785 231.949C246.358 231.949 246.878 232.179 247.253 232.567C247.638 232.945 247.867 233.469 247.867 234.046V236.142L243.704 231.949H245.785ZM235.68 231.949H238.625L247.867 241.259V244.226L235.68 231.949Z" fill="#3C15FC"/>
  <path d="M311.883 250.737L294.783 233.511C294.877 233.154 295.064 232.829 295.314 232.567C295.574 232.316 295.897 232.127 296.251 232.033L313.36 249.258C313.163 249.982 312.601 250.548 311.883 250.737ZM303.942 250.821L294.7 241.51V238.543L306.887 250.821H303.942ZM296.781 250.821C295.637 250.821 294.7 249.877 294.7 248.724V246.627L298.863 250.821H296.781ZM311.352 231.949C311.924 231.949 312.445 232.179 312.819 232.567C313.204 232.945 313.433 233.469 313.433 234.046V236.142L309.27 231.949H311.352ZM301.246 231.949H304.192L313.433 241.259V244.226L301.246 231.949Z" fill="#3C15FC"/>
  <path d="M344.666 250.737L327.567 233.511C327.66 233.154 327.848 232.829 328.097 232.567C328.358 232.316 328.68 232.127 329.034 232.033L346.144 249.258C345.946 249.982 345.384 250.548 344.666 250.737ZM336.725 250.821L327.483 241.51V238.543L339.67 250.821H336.725ZM329.565 250.821C328.42 250.821 327.483 249.877 327.483 248.724V246.627L331.646 250.821H329.565ZM344.135 231.949C344.708 231.949 345.228 232.179 345.603 232.567C345.988 232.945 346.217 233.469 346.217 234.046V236.142L342.054 231.949H344.135ZM334.03 231.949H336.975L346.217 241.259V244.226L334.03 231.949Z" fill="#3C15FC"/>
  <path d="M377.449 250.737L360.35 233.511C360.444 233.154 360.631 232.829 360.881 232.567C361.141 232.316 361.464 232.127 361.817 232.033L378.927 249.258C378.729 249.982 378.167 250.548 377.449 250.737ZM369.508 250.821L360.267 241.51V238.543L372.454 250.821H369.508ZM362.348 250.821C361.203 250.821 360.267 249.877 360.267 248.724V246.627L364.43 250.821H362.348ZM376.919 231.949C377.491 231.949 378.011 232.179 378.386 232.567C378.771 232.945 379 233.469 379 234.046V236.142L374.837 231.949H376.919ZM366.813 231.949H369.758L379 241.259V244.226L366.813 231.949Z" fill="#3C15FC"/>
  <path d="M82.4995 382.916L65.4002 365.69C65.4938 365.334 65.6812 365.009 65.9309 364.747C66.1911 364.495 66.5137 364.306 66.8676 364.212L83.9774 381.438C83.7796 382.161 83.2176 382.727 82.4995 382.916ZM74.5587 383L65.3169 373.69V370.723L77.504 383H74.5587ZM67.3984 383C66.2536 383 65.3169 382.056 65.3169 380.903V378.806L69.4799 383H67.3984ZM81.9687 364.128C82.5412 364.128 83.0615 364.359 83.4362 364.747C83.8213 365.124 84.0502 365.648 84.0502 366.225V368.322L79.8873 364.128H81.9687ZM71.8632 364.128H74.8084L84.0502 373.438V376.405L71.8632 364.128Z" fill="#3C15FC"/>
  <path d="M115.283 382.916L98.1835 365.69C98.2772 365.334 98.4645 365.009 98.7143 364.747C98.9744 364.495 99.2971 364.306 99.6509 364.212L116.761 381.438C116.563 382.161 116.001 382.727 115.283 382.916ZM107.342 383L98.1002 373.69V370.723L110.287 383H107.342ZM100.182 383C99.0369 383 98.1002 382.056 98.1002 380.903V378.806L102.263 383H100.182ZM114.752 364.128C115.324 364.128 115.845 364.359 116.22 364.747C116.605 365.124 116.834 365.648 116.834 366.225V368.322L112.671 364.128H114.752ZM104.646 364.128H107.592L116.834 373.438V376.405L104.646 364.128Z" fill="#3C15FC"/>
  <path d="M82.4995 349.89L65.4002 332.665C65.4938 332.308 65.6812 331.983 65.9309 331.721C66.1911 331.47 66.5137 331.281 66.8676 331.186L83.9774 348.412C83.7796 349.136 83.2176 349.702 82.4995 349.89ZM74.5587 349.974L65.3169 340.664V337.697L77.504 349.974H74.5587ZM67.3984 349.974C66.2536 349.974 65.3169 349.031 65.3169 347.877V345.781L69.4799 349.974H67.3984ZM81.9687 331.103C82.5412 331.103 83.0615 331.333 83.4362 331.721C83.8213 332.099 84.0502 332.623 84.0502 333.199V335.296L79.8873 331.103H81.9687ZM71.8632 331.103H74.8084L84.0502 340.413V343.38L71.8632 331.103Z" fill="#3C15FC"/>
  <path d="M115.283 349.89L98.1835 332.665C98.2772 332.308 98.4645 331.983 98.7143 331.721C98.9744 331.47 99.2971 331.281 99.6509 331.186L116.761 348.412C116.563 349.136 116.001 349.702 115.283 349.89ZM107.342 349.974L98.1002 340.664V337.697L110.287 349.974H107.342ZM100.182 349.974C99.0369 349.974 98.1002 349.031 98.1002 347.877V345.781L102.263 349.974H100.182ZM114.752 331.103C115.324 331.103 115.845 331.333 116.22 331.721C116.605 332.099 116.834 332.623 116.834 333.199V335.296L112.671 331.103H114.752ZM104.646 331.103H107.592L116.834 340.413V343.38L104.646 331.103Z" fill="#3C15FC"/>
  <path d="M180.183 216.865L163.083 199.639C163.177 199.283 163.364 198.958 163.614 198.696C163.874 198.444 164.197 198.255 164.551 198.161L181.66 215.387C181.463 216.11 180.901 216.676 180.183 216.865ZM172.242 216.949L163 207.639V204.672L175.187 216.949H172.242ZM165.081 216.949C163.937 216.949 163 216.005 163 214.852V212.755L167.163 216.949H165.081ZM179.652 198.077C180.224 198.077 180.745 198.308 181.119 198.696C181.504 199.073 181.733 199.597 181.733 200.174V202.271L177.57 198.077H179.652ZM169.546 198.077H172.492L181.733 207.387V210.354L169.546 198.077Z" fill="#3C15FC"/>
  <path d="M212.966 216.865L195.867 199.639C195.96 199.283 196.148 198.958 196.397 198.696C196.658 198.444 196.98 198.255 197.334 198.161L214.444 215.387C214.246 216.11 213.684 216.676 212.966 216.865ZM205.025 216.949L195.783 207.639V204.672L207.97 216.949H205.025ZM197.865 216.949C196.72 216.949 195.783 216.005 195.783 214.852V212.755L199.946 216.949H197.865ZM212.435 198.077C213.008 198.077 213.528 198.308 213.903 198.696C214.288 199.073 214.517 199.597 214.517 200.174V202.271L210.354 198.077H212.435ZM202.33 198.077H205.275L214.517 207.387V210.354L202.33 198.077Z" fill="#3C15FC"/>
  <path d="M245.749 216.865L228.65 199.639C228.744 199.283 228.931 198.958 229.181 198.696C229.441 198.444 229.764 198.255 230.117 198.161L247.227 215.387C247.029 216.11 246.467 216.676 245.749 216.865ZM237.808 216.949L228.567 207.639V204.672L240.754 216.949H237.808ZM230.648 216.949C229.503 216.949 228.567 216.005 228.567 214.852V212.755L232.73 216.949H230.648ZM245.219 198.077C245.791 198.077 246.311 198.308 246.686 198.696C247.071 199.073 247.3 199.597 247.3 200.174V202.271L243.137 198.077H245.219ZM235.113 198.077H238.058L247.3 207.387V210.354L235.113 198.077Z" fill="#3C15FC"/>
  <path d="M311.316 216.865L294.217 199.639C294.31 199.283 294.498 198.958 294.747 198.696C295.008 198.444 295.33 198.255 295.684 198.161L312.794 215.387C312.596 216.11 312.034 216.676 311.316 216.865ZM303.375 216.949L294.133 207.639V204.672L306.32 216.949H303.375ZM296.215 216.949C295.07 216.949 294.133 216.005 294.133 214.852V212.755L298.296 216.949H296.215ZM310.785 198.077C311.358 198.077 311.878 198.308 312.253 198.696C312.638 199.073 312.867 199.597 312.867 200.174V202.271L308.704 198.077H310.785ZM300.68 198.077H303.625L312.867 207.387V210.354L300.68 198.077Z" fill="#3C15FC"/>
  <path d="M344.099 216.865L327 199.639C327.094 199.283 327.281 198.958 327.531 198.696C327.791 198.444 328.114 198.255 328.467 198.161L345.577 215.387C345.379 216.11 344.817 216.676 344.099 216.865ZM336.158 216.949L326.917 207.639V204.672L339.104 216.949H336.158ZM328.998 216.949C327.853 216.949 326.917 216.005 326.917 214.852V212.755L331.08 216.949H328.998ZM343.569 198.077C344.141 198.077 344.661 198.308 345.036 198.696C345.421 199.073 345.65 199.597 345.65 200.174V202.271L341.487 198.077H343.569ZM333.463 198.077H336.408L345.65 207.387V210.354L333.463 198.077Z" fill="#3C15FC"/>
  <path d="M376.883 216.865L359.783 199.639C359.877 199.283 360.064 198.958 360.314 198.696C360.574 198.444 360.897 198.255 361.251 198.161L378.36 215.387C378.163 216.11 377.601 216.676 376.883 216.865ZM368.942 216.949L359.7 207.639V204.672L371.887 216.949H368.942ZM361.781 216.949C360.637 216.949 359.7 216.005 359.7 214.852V212.755L363.863 216.949H361.781ZM376.352 198.077C376.924 198.077 377.445 198.308 377.819 198.696C378.204 199.073 378.433 199.597 378.433 200.174V202.271L374.27 198.077H376.352ZM366.246 198.077H369.192L378.433 207.387V210.354L366.246 198.077Z" fill="#3C15FC"/>
  <path d="M409.666 216.865L392.567 199.639C392.66 199.283 392.848 198.958 393.097 198.696C393.358 198.444 393.68 198.255 394.034 198.161L411.144 215.387C410.946 216.11 410.384 216.676 409.666 216.865ZM401.725 216.949L392.483 207.639V204.672L404.67 216.949H401.725ZM394.565 216.949C393.42 216.949 392.483 216.005 392.483 214.852V212.755L396.646 216.949H394.565ZM409.135 198.077C409.708 198.077 410.228 198.308 410.603 198.696C410.988 199.073 411.217 199.597 411.217 200.174V202.271L407.054 198.077H409.135ZM399.03 198.077H401.975L411.217 207.387V210.354L399.03 198.077Z" fill="#3C15FC"/>
  <path d="M442.449 216.865L425.35 199.639C425.444 199.283 425.631 198.958 425.881 198.696C426.141 198.444 426.464 198.255 426.817 198.161L443.927 215.387C443.729 216.11 443.167 216.676 442.449 216.865ZM434.508 216.949L425.267 207.639V204.672L437.454 216.949H434.508ZM427.348 216.949C426.203 216.949 425.267 216.005 425.267 214.852V212.755L429.43 216.949H427.348ZM441.919 198.077C442.491 198.077 443.011 198.308 443.386 198.696C443.771 199.073 444 199.597 444 200.174V202.271L439.837 198.077H441.919ZM431.813 198.077H434.758L444 207.387V210.354L431.813 198.077Z" fill="#3C15FC"/>
  <path d="M180.183 183.839L163.083 166.613C163.177 166.257 163.364 165.932 163.614 165.67C163.874 165.418 164.197 165.23 164.551 165.135L181.66 182.361C181.463 183.084 180.901 183.65 180.183 183.839ZM172.242 183.923L163 174.613V171.646L175.187 183.923H172.242ZM165.081 183.923C163.937 183.923 163 182.979 163 181.826V179.729L167.163 183.923H165.081ZM179.652 165.051C180.224 165.051 180.745 165.282 181.119 165.67C181.504 166.047 181.733 166.572 181.733 167.148V169.245L177.57 165.051H179.652ZM169.546 165.051H172.492L181.733 174.361V177.328L169.546 165.051Z" fill="#3C15FC"/>
  <path d="M212.966 183.839L195.867 166.613C195.96 166.257 196.148 165.932 196.397 165.67C196.658 165.418 196.98 165.23 197.334 165.135L214.444 182.361C214.246 183.084 213.684 183.65 212.966 183.839ZM205.025 183.923L195.783 174.613V171.646L207.97 183.923H205.025ZM197.865 183.923C196.72 183.923 195.783 182.979 195.783 181.826V179.729L199.946 183.923H197.865ZM212.435 165.051C213.008 165.051 213.528 165.282 213.903 165.67C214.288 166.047 214.517 166.572 214.517 167.148V169.245L210.354 165.051H212.435ZM202.33 165.051H205.275L214.517 174.361V177.328L202.33 165.051Z" fill="#3C15FC"/>
  <path d="M245.749 183.839L228.65 166.613C228.744 166.257 228.931 165.932 229.181 165.67C229.441 165.418 229.764 165.23 230.117 165.135L247.227 182.361C247.029 183.084 246.467 183.65 245.749 183.839ZM237.808 183.923L228.567 174.613V171.646L240.754 183.923H237.808ZM230.648 183.923C229.503 183.923 228.567 182.979 228.567 181.826V179.729L232.73 183.923H230.648ZM245.219 165.051C245.791 165.051 246.311 165.282 246.686 165.67C247.071 166.047 247.3 166.572 247.3 167.148V169.245L243.137 165.051H245.219ZM235.113 165.051H238.058L247.3 174.361V177.328L235.113 165.051Z" fill="#3C15FC"/>
  <path d="M311.316 183.839L294.217 166.613C294.31 166.257 294.498 165.932 294.747 165.67C295.008 165.418 295.33 165.23 295.684 165.135L312.794 182.361C312.596 183.084 312.034 183.65 311.316 183.839ZM303.375 183.923L294.133 174.613V171.646L306.32 183.923H303.375ZM296.215 183.923C295.07 183.923 294.133 182.979 294.133 181.826V179.729L298.296 183.923H296.215ZM310.785 165.051C311.358 165.051 311.878 165.282 312.253 165.67C312.638 166.047 312.867 166.572 312.867 167.148V169.245L308.704 165.051H310.785ZM300.68 165.051H303.625L312.867 174.361V177.328L300.68 165.051Z" fill="#3C15FC"/>
  <path d="M344.099 183.839L327 166.613C327.094 166.257 327.281 165.932 327.531 165.67C327.791 165.418 328.114 165.23 328.467 165.135L345.577 182.361C345.379 183.084 344.817 183.65 344.099 183.839ZM336.158 183.923L326.917 174.613V171.646L339.104 183.923H336.158ZM328.998 183.923C327.853 183.923 326.917 182.979 326.917 181.826V179.729L331.08 183.923H328.998ZM343.569 165.051C344.141 165.051 344.661 165.282 345.036 165.67C345.421 166.047 345.65 166.572 345.65 167.148V169.245L341.487 165.051H343.569ZM333.463 165.051H336.408L345.65 174.361V177.328L333.463 165.051Z" fill="#3C15FC"/>
  <path d="M376.883 183.839L359.783 166.613C359.877 166.257 360.064 165.932 360.314 165.67C360.574 165.418 360.897 165.23 361.251 165.135L378.36 182.361C378.163 183.084 377.601 183.65 376.883 183.839ZM368.942 183.923L359.7 174.613V171.646L371.887 183.923H368.942ZM361.781 183.923C360.637 183.923 359.7 182.979 359.7 181.826V179.729L363.863 183.923H361.781ZM376.352 165.051C376.924 165.051 377.445 165.282 377.819 165.67C378.204 166.047 378.433 166.572 378.433 167.148V169.245L374.27 165.051H376.352ZM366.246 165.051H369.192L378.433 174.361V177.328L366.246 165.051Z" fill="#3C15FC"/>
  <path d="M409.666 183.839L392.567 166.613C392.66 166.257 392.848 165.932 393.097 165.67C393.358 165.418 393.68 165.23 394.034 165.135L411.144 182.361C410.946 183.084 410.384 183.65 409.666 183.839ZM401.725 183.923L392.483 174.613V171.646L404.67 183.923H401.725ZM394.565 183.923C393.42 183.923 392.483 182.979 392.483 181.826V179.729L396.646 183.923H394.565ZM409.135 165.051C409.708 165.051 410.228 165.282 410.603 165.67C410.988 166.047 411.217 166.572 411.217 167.148V169.245L407.054 165.051H409.135ZM399.03 165.051H401.975L411.217 174.361V177.328L399.03 165.051Z" fill="#3C15FC"/>
  <path d="M442.449 183.839L425.35 166.613C425.444 166.257 425.631 165.932 425.881 165.67C426.141 165.418 426.464 165.23 426.817 165.135L443.927 182.361C443.729 183.084 443.167 183.65 442.449 183.839ZM434.508 183.923L425.267 174.613V171.646L437.454 183.923H434.508ZM427.348 183.923C426.203 183.923 425.267 182.979 425.267 181.826V179.729L429.43 183.923H427.348ZM441.919 165.051C442.491 165.051 443.011 165.282 443.386 165.67C443.771 166.047 444 166.572 444 167.148V169.245L439.837 165.051H441.919ZM431.813 165.051H434.758L444 174.361V177.328L431.813 165.051Z" fill="#3C15FC"/>
  <path d="M180.183 150.814L163.083 133.588C163.177 133.231 163.364 132.906 163.614 132.644C163.874 132.393 164.197 132.204 164.551 132.11L181.66 149.335C181.463 150.059 180.901 150.625 180.183 150.814ZM172.242 150.897L163 141.587V138.62L175.187 150.897H172.242ZM165.081 150.897C163.937 150.897 163 149.954 163 148.801V146.704L167.163 150.897H165.081ZM179.652 132.026C180.224 132.026 180.745 132.256 181.119 132.644C181.504 133.022 181.733 133.546 181.733 134.123V136.219L177.57 132.026H179.652ZM169.546 132.026H172.492L181.733 141.336V144.303L169.546 132.026Z" fill="#3C15FC"/>
  <path d="M212.966 150.814L195.867 133.588C195.96 133.231 196.148 132.906 196.397 132.644C196.658 132.393 196.98 132.204 197.334 132.11L214.444 149.335C214.246 150.059 213.684 150.625 212.966 150.814ZM205.025 150.897L195.783 141.587V138.62L207.97 150.897H205.025ZM197.865 150.897C196.72 150.897 195.783 149.954 195.783 148.801V146.704L199.946 150.897H197.865ZM212.435 132.026C213.008 132.026 213.528 132.256 213.903 132.644C214.288 133.022 214.517 133.546 214.517 134.123V136.219L210.354 132.026H212.435ZM202.33 132.026H205.275L214.517 141.336V144.303L202.33 132.026Z" fill="#3C15FC"/>
  <path d="M245.749 150.814L228.65 133.588C228.744 133.231 228.931 132.906 229.181 132.644C229.441 132.393 229.764 132.204 230.117 132.11L247.227 149.335C247.029 150.059 246.467 150.625 245.749 150.814ZM237.808 150.897L228.567 141.587V138.62L240.754 150.897H237.808ZM230.648 150.897C229.503 150.897 228.567 149.954 228.567 148.801V146.704L232.73 150.897H230.648ZM245.219 132.026C245.791 132.026 246.311 132.256 246.686 132.644C247.071 133.022 247.3 133.546 247.3 134.123V136.219L243.137 132.026H245.219ZM235.113 132.026H238.058L247.3 141.336V144.303L235.113 132.026Z" fill="#3C15FC"/>
  <path d="M278.533 150.814L261.433 133.588C261.527 133.231 261.714 132.906 261.964 132.644C262.224 132.393 262.547 132.204 262.901 132.11L280.01 149.335C279.813 150.059 279.251 150.625 278.533 150.814ZM270.592 150.897L261.35 141.587V138.62L273.537 150.897H270.592ZM263.431 150.897C262.287 150.897 261.35 149.954 261.35 148.801V146.704L265.513 150.897H263.431ZM278.002 132.026C278.574 132.026 279.095 132.256 279.469 132.644C279.854 133.022 280.083 133.546 280.083 134.123V136.219L275.92 132.026H278.002ZM267.896 132.026H270.842L280.083 141.336V144.303L267.896 132.026Z" fill="#3C15FC"/>
  <path d="M311.316 150.814L294.217 133.588C294.31 133.231 294.498 132.906 294.747 132.644C295.008 132.393 295.33 132.204 295.684 132.11L312.794 149.335C312.596 150.059 312.034 150.625 311.316 150.814ZM303.375 150.897L294.133 141.587V138.62L306.32 150.897H303.375ZM296.215 150.897C295.07 150.897 294.133 149.954 294.133 148.801V146.704L298.296 150.897H296.215ZM310.785 132.026C311.358 132.026 311.878 132.256 312.253 132.644C312.638 133.022 312.867 133.546 312.867 134.123V136.219L308.704 132.026H310.785ZM300.68 132.026H303.625L312.867 141.336V144.303L300.68 132.026Z" fill="#3C15FC"/>
  <path d="M344.099 150.814L327 133.588C327.094 133.231 327.281 132.906 327.531 132.644C327.791 132.393 328.114 132.204 328.467 132.11L345.577 149.335C345.379 150.059 344.817 150.625 344.099 150.814ZM336.158 150.897L326.917 141.587V138.62L339.104 150.897H336.158ZM328.998 150.897C327.853 150.897 326.917 149.954 326.917 148.801V146.704L331.08 150.897H328.998ZM343.569 132.026C344.141 132.026 344.661 132.256 345.036 132.644C345.421 133.022 345.65 133.546 345.65 134.123V136.219L341.487 132.026H343.569ZM333.463 132.026H336.408L345.65 141.336V144.303L333.463 132.026Z" fill="#3C15FC"/>
  <path d="M376.883 150.814L359.783 133.588C359.877 133.231 360.064 132.906 360.314 132.644C360.574 132.393 360.897 132.204 361.251 132.11L378.36 149.335C378.163 150.059 377.601 150.625 376.883 150.814ZM368.942 150.897L359.7 141.587V138.62L371.887 150.897H368.942ZM361.781 150.897C360.637 150.897 359.7 149.954 359.7 148.801V146.704L363.863 150.897H361.781ZM376.352 132.026C376.924 132.026 377.445 132.256 377.819 132.644C378.204 133.022 378.433 133.546 378.433 134.123V136.219L374.27 132.026H376.352ZM366.246 132.026H369.192L378.433 141.336V144.303L366.246 132.026Z" fill="#3C15FC"/>
  <path d="M409.666 150.814L392.567 133.588C392.66 133.231 392.848 132.906 393.097 132.644C393.358 132.393 393.68 132.204 394.034 132.11L411.144 149.335C410.946 150.059 410.384 150.625 409.666 150.814ZM401.725 150.897L392.483 141.587V138.62L404.67 150.897H401.725ZM394.565 150.897C393.42 150.897 392.483 149.954 392.483 148.801V146.704L396.646 150.897H394.565ZM409.135 132.026C409.708 132.026 410.228 132.256 410.603 132.644C410.988 133.022 411.217 133.546 411.217 134.123V136.219L407.054 132.026H409.135ZM399.03 132.026H401.975L411.217 141.336V144.303L399.03 132.026Z" fill="#3C15FC"/>
  <path d="M442.449 150.814L425.35 133.588C425.444 133.231 425.631 132.906 425.881 132.644C426.141 132.393 426.464 132.204 426.817 132.11L443.927 149.335C443.729 150.059 443.167 150.625 442.449 150.814ZM434.508 150.897L425.267 141.587V138.62L437.454 150.897H434.508ZM427.348 150.897C426.203 150.897 425.267 149.954 425.267 148.801V146.704L429.43 150.897H427.348ZM441.919 132.026C442.491 132.026 443.011 132.256 443.386 132.644C443.771 133.022 444 133.546 444 134.123V136.219L439.837 132.026H441.919ZM431.813 132.026H434.758L444 141.336V144.303L431.813 132.026Z" fill="#3C15FC"/>
  <path d="M180.183 117.788L163.083 100.562C163.177 100.206 163.364 99.8807 163.614 99.6186C163.874 99.367 164.197 99.1782 164.551 99.0839L181.66 116.31C181.463 117.033 180.901 117.599 180.183 117.788ZM172.242 117.872L163 108.562V105.595L175.187 117.872H172.242ZM165.081 117.872C163.937 117.872 163 116.928 163 115.775V113.678L167.163 117.872H165.081ZM179.652 99C180.224 99 180.745 99.2307 181.119 99.6186C181.504 99.996 181.733 100.52 181.733 101.097V103.194L177.57 99H179.652ZM169.546 99H172.492L181.733 108.31V111.277L169.546 99Z" fill="#3C15FC"/>
  <path d="M212.966 117.788L195.867 100.562C195.96 100.206 196.148 99.8807 196.397 99.6186C196.658 99.367 196.98 99.1782 197.334 99.0839L214.444 116.31C214.246 117.033 213.684 117.599 212.966 117.788ZM205.025 117.872L195.783 108.562V105.595L207.97 117.872H205.025ZM197.865 117.872C196.72 117.872 195.783 116.928 195.783 115.775V113.678L199.946 117.872H197.865ZM212.435 99C213.008 99 213.528 99.2307 213.903 99.6186C214.288 99.996 214.517 100.52 214.517 101.097V103.194L210.354 99H212.435ZM202.33 99H205.275L214.517 108.31V111.277L202.33 99Z" fill="#3C15FC"/>
  <path d="M245.749 117.788L228.65 100.562C228.744 100.206 228.931 99.8807 229.181 99.6186C229.441 99.367 229.764 99.1782 230.117 99.0839L247.227 116.31C247.029 117.033 246.467 117.599 245.749 117.788ZM237.808 117.872L228.567 108.562V105.595L240.754 117.872H237.808ZM230.648 117.872C229.503 117.872 228.567 116.928 228.567 115.775V113.678L232.73 117.872H230.648ZM245.219 99C245.791 99 246.311 99.2307 246.686 99.6186C247.071 99.996 247.3 100.52 247.3 101.097V103.194L243.137 99H245.219ZM235.113 99H238.058L247.3 108.31V111.277L235.113 99Z" fill="#3C15FC"/>
  <path d="M278.533 117.788L261.433 100.562C261.527 100.206 261.714 99.8807 261.964 99.6186C262.224 99.367 262.547 99.1782 262.901 99.0839L280.01 116.31C279.813 117.033 279.251 117.599 278.533 117.788ZM270.592 117.872L261.35 108.562V105.595L273.537 117.872H270.592ZM263.431 117.872C262.287 117.872 261.35 116.928 261.35 115.775V113.678L265.513 117.872H263.431ZM278.002 99C278.574 99 279.095 99.2307 279.469 99.6186C279.854 99.996 280.083 100.52 280.083 101.097V103.194L275.92 99H278.002ZM267.896 99H270.842L280.083 108.31V111.277L267.896 99Z" fill="#3C15FC"/>
  <path d="M311.316 117.788L294.217 100.562C294.31 100.206 294.498 99.8807 294.747 99.6186C295.008 99.367 295.33 99.1782 295.684 99.0839L312.794 116.31C312.596 117.033 312.034 117.599 311.316 117.788ZM303.375 117.872L294.133 108.562V105.595L306.32 117.872H303.375ZM296.215 117.872C295.07 117.872 294.133 116.928 294.133 115.775V113.678L298.296 117.872H296.215ZM310.785 99C311.358 99 311.878 99.2307 312.253 99.6186C312.638 99.996 312.867 100.52 312.867 101.097V103.194L308.704 99H310.785ZM300.68 99H303.625L312.867 108.31V111.277L300.68 99Z" fill="#3C15FC"/>
  <path d="M344.099 117.788L327 100.562C327.094 100.206 327.281 99.8807 327.531 99.6186C327.791 99.367 328.114 99.1782 328.467 99.0839L345.577 116.31C345.379 117.033 344.817 117.599 344.099 117.788ZM336.158 117.872L326.917 108.562V105.595L339.104 117.872H336.158ZM328.998 117.872C327.853 117.872 326.917 116.928 326.917 115.775V113.678L331.08 117.872H328.998ZM343.569 99C344.141 99 344.661 99.2307 345.036 99.6186C345.421 99.996 345.65 100.52 345.65 101.097V103.194L341.487 99H343.569ZM333.463 99H336.408L345.65 108.31V111.277L333.463 99Z" fill="#3C15FC"/>
  <path d="M376.883 117.788L359.783 100.562C359.877 100.206 360.064 99.8807 360.314 99.6186C360.574 99.367 360.897 99.1782 361.251 99.0839L378.36 116.31C378.163 117.033 377.601 117.599 376.883 117.788ZM368.942 117.872L359.7 108.562V105.595L371.887 117.872H368.942ZM361.781 117.872C360.637 117.872 359.7 116.928 359.7 115.775V113.678L363.863 117.872H361.781ZM376.352 99C376.924 99 377.445 99.2307 377.819 99.6186C378.204 99.996 378.433 100.52 378.433 101.097V103.194L374.27 99H376.352ZM366.246 99H369.192L378.433 108.31V111.277L366.246 99Z" fill="#3C15FC"/>
  <path d="M409.666 117.788L392.567 100.562C392.66 100.206 392.848 99.8807 393.097 99.6186C393.358 99.367 393.68 99.1782 394.034 99.0839L411.144 116.31C410.946 117.033 410.384 117.599 409.666 117.788ZM401.725 117.872L392.483 108.562V105.595L404.67 117.872H401.725ZM394.565 117.872C393.42 117.872 392.483 116.928 392.483 115.775V113.678L396.646 117.872H394.565ZM409.135 99C409.708 99 410.228 99.2307 410.603 99.6186C410.988 99.996 411.217 100.52 411.217 101.097V103.194L407.054 99H409.135ZM399.03 99H401.975L411.217 108.31V111.277L399.03 99Z" fill="#3C15FC"/>
  <path d="M442.449 117.788L425.35 100.562C425.444 100.206 425.631 99.8807 425.881 99.6186C426.141 99.367 426.464 99.1782 426.817 99.0839L443.927 116.31C443.729 117.033 443.167 117.599 442.449 117.788ZM434.508 117.872L425.267 108.562V105.595L437.454 117.872H434.508ZM427.348 117.872C426.203 117.872 425.267 116.928 425.267 115.775V113.678L429.43 117.872H427.348ZM441.919 99C442.491 99 443.011 99.2307 443.386 99.6186C443.771 99.996 444 100.52 444 101.097V103.194L439.837 99H441.919ZM431.813 99H434.758L444 108.31V111.277L431.813 99Z" fill="#3C15FC"/>
  <path d="M180.183 84.7623L163.083 67.5365C163.177 67.1801 163.364 66.8551 163.614 66.5929C163.874 66.3413 164.197 66.1526 164.551 66.0582L181.66 83.284C181.463 84.0074 180.901 84.5736 180.183 84.7623ZM172.242 84.8462L163 75.5361V72.569L175.187 84.8462H172.242ZM165.081 84.8462C163.937 84.8462 163 83.9026 163 82.7493V80.6524L167.163 84.8462H165.081ZM179.652 65.9744C180.224 65.9744 180.745 66.205 181.119 66.5929C181.504 66.9704 181.733 67.4946 181.733 68.0712V70.1681L177.57 65.9744H179.652ZM169.546 65.9744H172.492L181.733 75.2845V78.2515L169.546 65.9744Z" fill="#3C15FC"/>
  <path d="M212.966 84.7623L195.867 67.5365C195.96 67.1801 196.148 66.8551 196.397 66.5929C196.658 66.3413 196.98 66.1526 197.334 66.0582L214.444 83.284C214.246 84.0074 213.684 84.5736 212.966 84.7623ZM205.025 84.8462L195.783 75.5361V72.569L207.97 84.8462H205.025ZM197.865 84.8462C196.72 84.8462 195.783 83.9026 195.783 82.7493V80.6524L199.946 84.8462H197.865ZM212.435 65.9744C213.008 65.9744 213.528 66.205 213.903 66.5929C214.288 66.9704 214.517 67.4946 214.517 68.0712V70.1681L210.354 65.9744H212.435ZM202.33 65.9744H205.275L214.517 75.2845V78.2515L202.33 65.9744Z" fill="#3C15FC"/>
  <path d="M245.749 84.7623L228.65 67.5365C228.744 67.1801 228.931 66.8551 229.181 66.5929C229.441 66.3413 229.764 66.1526 230.117 66.0582L247.227 83.284C247.029 84.0074 246.467 84.5736 245.749 84.7623ZM237.808 84.8462L228.567 75.5361V72.569L240.754 84.8462H237.808ZM230.648 84.8462C229.503 84.8462 228.567 83.9026 228.567 82.7493V80.6524L232.73 84.8462H230.648ZM245.219 65.9744C245.791 65.9744 246.311 66.205 246.686 66.5929C247.071 66.9704 247.3 67.4946 247.3 68.0712V70.1681L243.137 65.9744H245.219ZM235.113 65.9744H238.058L247.3 75.2845V78.2515L235.113 65.9744Z" fill="#3C15FC"/>
  <path d="M278.533 84.7623L261.433 67.5365C261.527 67.1801 261.714 66.8551 261.964 66.5929C262.224 66.3413 262.547 66.1526 262.901 66.0582L280.01 83.284C279.813 84.0074 279.251 84.5736 278.533 84.7623ZM270.592 84.8462L261.35 75.5361V72.569L273.537 84.8462H270.592ZM263.431 84.8462C262.287 84.8462 261.35 83.9026 261.35 82.7493V80.6524L265.513 84.8462H263.431ZM278.002 65.9744C278.574 65.9744 279.095 66.205 279.469 66.5929C279.854 66.9704 280.083 67.4946 280.083 68.0712V70.1681L275.92 65.9744H278.002ZM267.896 65.9744H270.842L280.083 75.2845V78.2515L267.896 65.9744Z" fill="#3C15FC"/>
  <path d="M311.316 84.7623L294.217 67.5365C294.31 67.1801 294.498 66.8551 294.747 66.5929C295.008 66.3413 295.33 66.1526 295.684 66.0582L312.794 83.284C312.596 84.0074 312.034 84.5736 311.316 84.7623ZM303.375 84.8462L294.133 75.5361V72.569L306.32 84.8462H303.375ZM296.215 84.8462C295.07 84.8462 294.133 83.9026 294.133 82.7493V80.6524L298.296 84.8462H296.215ZM310.785 65.9744C311.358 65.9744 311.878 66.205 312.253 66.5929C312.638 66.9704 312.867 67.4946 312.867 68.0712V70.1681L308.704 65.9744H310.785ZM300.68 65.9744H303.625L312.867 75.2845V78.2515L300.68 65.9744Z" fill="#3C15FC"/>
  <path d="M344.099 84.7623L327 67.5365C327.094 67.1801 327.281 66.8551 327.531 66.5929C327.791 66.3413 328.114 66.1526 328.467 66.0582L345.577 83.284C345.379 84.0074 344.817 84.5736 344.099 84.7623ZM336.158 84.8462L326.917 75.5361V72.569L339.104 84.8462H336.158ZM328.998 84.8462C327.853 84.8462 326.917 83.9026 326.917 82.7493V80.6524L331.08 84.8462H328.998ZM343.569 65.9744C344.141 65.9744 344.661 66.205 345.036 66.5929C345.421 66.9704 345.65 67.4946 345.65 68.0712V70.1681L341.487 65.9744H343.569ZM333.463 65.9744H336.408L345.65 75.2845V78.2515L333.463 65.9744Z" fill="#3C15FC"/>
  <path d="M376.883 84.7623L359.783 67.5365C359.877 67.1801 360.064 66.8551 360.314 66.5929C360.574 66.3413 360.897 66.1526 361.251 66.0582L378.36 83.284C378.163 84.0074 377.601 84.5736 376.883 84.7623ZM368.942 84.8462L359.7 75.5361V72.569L371.887 84.8462H368.942ZM361.781 84.8462C360.637 84.8462 359.7 83.9026 359.7 82.7493V80.6524L363.863 84.8462H361.781ZM376.352 65.9744C376.924 65.9744 377.445 66.205 377.819 66.5929C378.204 66.9704 378.433 67.4946 378.433 68.0712V70.1681L374.27 65.9744H376.352ZM366.246 65.9744H369.192L378.433 75.2845V78.2515L366.246 65.9744Z" fill="#3C15FC"/>
  <path d="M409.666 84.7623L392.567 67.5365C392.66 67.1801 392.848 66.8551 393.097 66.5929C393.358 66.3413 393.68 66.1526 394.034 66.0582L411.144 83.284C410.946 84.0074 410.384 84.5736 409.666 84.7623ZM401.725 84.8462L392.483 75.5361V72.569L404.67 84.8462H401.725ZM394.565 84.8462C393.42 84.8462 392.483 83.9026 392.483 82.7493V80.6524L396.646 84.8462H394.565ZM409.135 65.9744C409.708 65.9744 410.228 66.205 410.603 66.5929C410.988 66.9704 411.217 67.4946 411.217 68.0712V70.1681L407.054 65.9744H409.135ZM399.03 65.9744H401.975L411.217 75.2845V78.2515L399.03 65.9744Z" fill="#3C15FC"/>
  <path d="M442.449 84.7623L425.35 67.5365C425.444 67.1801 425.631 66.8551 425.881 66.5929C426.141 66.3413 426.464 66.1526 426.817 66.0582L443.927 83.284C443.729 84.0074 443.167 84.5736 442.449 84.7623ZM434.508 84.8462L425.267 75.5361V72.569L437.454 84.8462H434.508ZM427.348 84.8462C426.203 84.8462 425.267 83.9026 425.267 82.7493V80.6524L429.43 84.8462H427.348ZM441.919 65.9744C442.491 65.9744 443.011 66.205 443.386 66.5929C443.771 66.9704 444 67.4946 444 68.0712V70.1681L439.837 65.9744H441.919ZM431.813 65.9744H434.758L444 75.2845V78.2515L431.813 65.9744Z" fill="#3C15FC"/>
  <path d="M180.183 51.7366L163.083 34.5109C163.177 34.1544 163.364 33.8294 163.614 33.5673C163.874 33.3157 164.197 33.127 164.551 33.0326L181.66 50.2583C181.463 50.9818 180.901 51.5479 180.183 51.7366ZM172.242 51.8205L163 42.5104V39.5434L175.187 51.8205H172.242ZM165.081 51.8205C163.937 51.8205 163 50.8769 163 49.7237V47.6268L167.163 51.8205H165.081ZM179.652 32.9487C180.224 32.9487 180.745 33.1794 181.119 33.5673C181.504 33.9447 181.733 34.4689 181.733 35.0456V37.1425L177.57 32.9487H179.652ZM169.546 32.9487H172.492L181.733 42.2588V45.2259L169.546 32.9487Z" fill="#3C15FC"/>
  <path d="M212.966 51.7366L195.867 34.5109C195.96 34.1544 196.148 33.8294 196.397 33.5673C196.658 33.3157 196.98 33.127 197.334 33.0326L214.444 50.2583C214.246 50.9818 213.684 51.5479 212.966 51.7366ZM205.025 51.8205L195.783 42.5104V39.5434L207.97 51.8205H205.025ZM197.865 51.8205C196.72 51.8205 195.783 50.8769 195.783 49.7237V47.6268L199.946 51.8205H197.865ZM212.435 32.9487C213.008 32.9487 213.528 33.1794 213.903 33.5673C214.288 33.9447 214.517 34.4689 214.517 35.0456V37.1425L210.354 32.9487H212.435ZM202.33 32.9487H205.275L214.517 42.2588V45.2259L202.33 32.9487Z" fill="#3C15FC"/>
  <path d="M245.749 51.7366L228.65 34.5109C228.744 34.1544 228.931 33.8294 229.181 33.5673C229.441 33.3157 229.764 33.127 230.117 33.0326L247.227 50.2583C247.029 50.9818 246.467 51.5479 245.749 51.7366ZM237.808 51.8205L228.567 42.5104V39.5434L240.754 51.8205H237.808ZM230.648 51.8205C229.503 51.8205 228.567 50.8769 228.567 49.7237V47.6268L232.73 51.8205H230.648ZM245.219 32.9487C245.791 32.9487 246.311 33.1794 246.686 33.5673C247.071 33.9447 247.3 34.4689 247.3 35.0456V37.1425L243.137 32.9487H245.219ZM235.113 32.9487H238.058L247.3 42.2588V45.2259L235.113 32.9487Z" fill="#3C15FC"/>
  <path d="M278.533 51.7366L261.433 34.5109C261.527 34.1544 261.714 33.8294 261.964 33.5673C262.224 33.3157 262.547 33.127 262.901 33.0326L280.01 50.2583C279.813 50.9818 279.251 51.5479 278.533 51.7366ZM270.592 51.8205L261.35 42.5104V39.5434L273.537 51.8205H270.592ZM263.431 51.8205C262.287 51.8205 261.35 50.8769 261.35 49.7237V47.6268L265.513 51.8205H263.431ZM278.002 32.9487C278.574 32.9487 279.095 33.1794 279.469 33.5673C279.854 33.9447 280.083 34.4689 280.083 35.0456V37.1425L275.92 32.9487H278.002ZM267.896 32.9487H270.842L280.083 42.2588V45.2259L267.896 32.9487Z" fill="#3C15FC"/>
  <path d="M311.316 51.7366L294.217 34.5109C294.31 34.1544 294.498 33.8294 294.747 33.5673C295.008 33.3157 295.33 33.127 295.684 33.0326L312.794 50.2583C312.596 50.9818 312.034 51.5479 311.316 51.7366ZM303.375 51.8205L294.133 42.5104V39.5434L306.32 51.8205H303.375ZM296.215 51.8205C295.07 51.8205 294.133 50.8769 294.133 49.7237V47.6268L298.296 51.8205H296.215ZM310.785 32.9487C311.358 32.9487 311.878 33.1794 312.253 33.5673C312.638 33.9447 312.867 34.4689 312.867 35.0456V37.1425L308.704 32.9487H310.785ZM300.68 32.9487H303.625L312.867 42.2588V45.2259L300.68 32.9487Z" fill="#3C15FC"/>
  <path d="M344.099 51.7366L327 34.5109C327.094 34.1544 327.281 33.8294 327.531 33.5673C327.791 33.3157 328.114 33.127 328.467 33.0326L345.577 50.2583C345.379 50.9818 344.817 51.5479 344.099 51.7366ZM336.158 51.8205L326.917 42.5104V39.5434L339.104 51.8205H336.158ZM328.998 51.8205C327.853 51.8205 326.917 50.8769 326.917 49.7237V47.6268L331.08 51.8205H328.998ZM343.569 32.9487C344.141 32.9487 344.661 33.1794 345.036 33.5673C345.421 33.9447 345.65 34.4689 345.65 35.0456V37.1425L341.487 32.9487H343.569ZM333.463 32.9487H336.408L345.65 42.2588V45.2259L333.463 32.9487Z" fill="#3C15FC"/>
  <path d="M376.883 51.7366L359.783 34.5109C359.877 34.1544 360.064 33.8294 360.314 33.5673C360.574 33.3157 360.897 33.127 361.251 33.0326L378.36 50.2583C378.163 50.9818 377.601 51.5479 376.883 51.7366ZM368.942 51.8205L359.7 42.5104V39.5434L371.887 51.8205H368.942ZM361.781 51.8205C360.637 51.8205 359.7 50.8769 359.7 49.7237V47.6268L363.863 51.8205H361.781ZM376.352 32.9487C376.924 32.9487 377.445 33.1794 377.819 33.5673C378.204 33.9447 378.433 34.4689 378.433 35.0456V37.1425L374.27 32.9487H376.352ZM366.246 32.9487H369.192L378.433 42.2588V45.2259L366.246 32.9487Z" fill="#3C15FC"/>
  <path d="M409.666 51.7366L392.567 34.5109C392.66 34.1544 392.848 33.8294 393.097 33.5673C393.358 33.3157 393.68 33.127 394.034 33.0326L411.144 50.2583C410.946 50.9818 410.384 51.5479 409.666 51.7366ZM401.725 51.8205L392.483 42.5104V39.5434L404.67 51.8205H401.725ZM394.565 51.8205C393.42 51.8205 392.483 50.8769 392.483 49.7237V47.6268L396.646 51.8205H394.565ZM409.135 32.9487C409.708 32.9487 410.228 33.1794 410.603 33.5673C410.988 33.9447 411.217 34.4689 411.217 35.0456V37.1425L407.054 32.9487H409.135ZM399.03 32.9487H401.975L411.217 42.2588V45.2259L399.03 32.9487Z" fill="#3C15FC"/>
  <path d="M442.449 51.7366L425.35 34.5109C425.444 34.1544 425.631 33.8294 425.881 33.5673C426.141 33.3157 426.464 33.127 426.817 33.0326L443.927 50.2583C443.729 50.9818 443.167 51.5479 442.449 51.7366ZM434.508 51.8205L425.267 42.5104V39.5434L437.454 51.8205H434.508ZM427.348 51.8205C426.203 51.8205 425.267 50.8769 425.267 49.7237V47.6268L429.43 51.8205H427.348ZM441.919 32.9487C442.491 32.9487 443.011 33.1794 443.386 33.5673C443.771 33.9447 444 34.4689 444 35.0456V37.1425L439.837 32.9487H441.919ZM431.813 32.9487H434.758L444 42.2588V45.2259L431.813 32.9487Z" fill="#3C15FC"/>
  <path d="M17.1826 283.865L0.0832592 266.639C0.176926 266.283 0.364259 265.958 0.614037 265.696C0.874222 265.444 1.19685 265.255 1.5507 265.161L18.6605 282.387C18.4627 283.11 17.9007 283.676 17.1826 283.865ZM9.24178 283.949L0 274.639V271.672L12.1871 283.949H9.24178ZM2.08148 283.949C0.936667 283.949 0 283.005 0 281.852V279.755L4.16296 283.949H2.08148ZM16.6519 265.077C17.2243 265.077 17.7446 265.308 18.1193 265.696C18.5044 266.073 18.7333 266.597 18.7333 267.174V269.271L14.5704 265.077H16.6519ZM6.54626 265.077H9.49156L18.7333 274.387V277.354L6.54626 265.077Z" fill="#3C15FC"/>
  <path d="M49.966 283.865L32.8666 266.639C32.9603 266.283 33.1476 265.958 33.3974 265.696C33.6576 265.444 33.9802 265.255 34.334 265.161L51.4438 282.387C51.2461 283.11 50.6841 283.676 49.966 283.865ZM42.0251 283.949L32.7833 274.639V271.672L44.9704 283.949H42.0251ZM34.8648 283.949C33.72 283.949 32.7833 283.005 32.7833 281.852V279.755L36.9463 283.949H34.8648ZM49.4352 265.077C50.0076 265.077 50.528 265.308 50.9026 265.696C51.2877 266.073 51.5167 266.597 51.5167 267.174V269.271L47.3537 265.077H49.4352ZM39.3296 265.077H42.2749L51.5167 274.387V277.354L39.3296 265.077Z" fill="#3C15FC"/>
  <path d="M82.7493 283.865L65.6499 266.639C65.7436 266.283 65.9309 265.958 66.1807 265.696C66.4409 265.444 66.7635 265.255 67.1174 265.161L84.2271 282.387C84.0294 283.11 83.4674 283.676 82.7493 283.865ZM74.8084 283.949L65.5667 274.639V271.672L77.7537 283.949H74.8084ZM67.6481 283.949C66.5033 283.949 65.5667 283.005 65.5667 281.852V279.755L69.7296 283.949H67.6481ZM82.2185 265.077C82.7909 265.077 83.3113 265.308 83.686 265.696C84.071 266.073 84.3 266.597 84.3 267.174V269.271L80.137 265.077H82.2185ZM72.1129 265.077H75.0582L84.3 274.387V277.354L72.1129 265.077Z" fill="#3C15FC"/>
  <path d="M115.533 283.865L98.4333 266.639C98.5269 266.283 98.7143 265.958 98.964 265.696C99.2242 265.444 99.5469 265.255 99.9007 265.161L117.01 282.387C116.813 283.11 116.251 283.676 115.533 283.865ZM107.592 283.949L98.35 274.639V271.672L110.537 283.949H107.592ZM100.431 283.949C99.2867 283.949 98.35 283.005 98.35 281.852V279.755L102.513 283.949H100.431ZM115.002 265.077C115.574 265.077 116.095 265.308 116.469 265.696C116.854 266.073 117.083 266.597 117.083 267.174V269.271L112.92 265.077H115.002ZM104.896 265.077H107.842L117.083 274.387V277.354L104.896 265.077Z" fill="#3C15FC"/>
  <path d="M148.316 283.865L131.217 266.639C131.31 266.283 131.498 265.958 131.747 265.696C132.008 265.444 132.33 265.255 132.684 265.161L149.794 282.387C149.596 283.11 149.034 283.676 148.316 283.865ZM140.375 283.949L131.133 274.639V271.672L143.32 283.949H140.375ZM133.215 283.949C132.07 283.949 131.133 283.005 131.133 281.852V279.755L135.296 283.949H133.215ZM147.785 265.077C148.358 265.077 148.878 265.308 149.253 265.696C149.638 266.073 149.867 266.597 149.867 267.174V269.271L145.704 265.077H147.785ZM137.68 265.077H140.625L149.867 274.387V277.354L137.68 265.077Z" fill="#3C15FC"/>
  <path d="M181.099 283.865L164 266.639C164.094 266.283 164.281 265.958 164.531 265.696C164.791 265.444 165.114 265.255 165.467 265.161L182.577 282.387C182.379 283.11 181.817 283.676 181.099 283.865ZM173.158 283.949L163.917 274.639V271.672L176.104 283.949H173.158ZM165.998 283.949C164.853 283.949 163.917 283.005 163.917 281.852V279.755L168.08 283.949H165.998ZM180.569 265.077C181.141 265.077 181.661 265.308 182.036 265.696C182.421 266.073 182.65 266.597 182.65 267.174V269.271L178.487 265.077H180.569ZM170.463 265.077H173.408L182.65 274.387V277.354L170.463 265.077Z" fill="#3C15FC"/>
  <path d="M213.883 283.865L196.783 266.639C196.877 266.283 197.064 265.958 197.314 265.696C197.574 265.444 197.897 265.255 198.251 265.161L215.36 282.387C215.163 283.11 214.601 283.676 213.883 283.865ZM205.942 283.949L196.7 274.639V271.672L208.887 283.949H205.942ZM198.781 283.949C197.637 283.949 196.7 283.005 196.7 281.852V279.755L200.863 283.949H198.781ZM213.352 265.077C213.924 265.077 214.445 265.308 214.819 265.696C215.204 266.073 215.433 266.597 215.433 267.174V269.271L211.27 265.077H213.352ZM203.246 265.077H206.192L215.433 274.387V277.354L203.246 265.077Z" fill="#3C15FC"/>
  <path d="M246.666 283.865L229.567 266.639C229.66 266.283 229.848 265.958 230.097 265.696C230.358 265.444 230.68 265.255 231.034 265.161L248.144 282.387C247.946 283.11 247.384 283.676 246.666 283.865ZM238.725 283.949L229.483 274.639V271.672L241.67 283.949H238.725ZM231.565 283.949C230.42 283.949 229.483 283.005 229.483 281.852V279.755L233.646 283.949H231.565ZM246.135 265.077C246.708 265.077 247.228 265.308 247.603 265.696C247.988 266.073 248.217 266.597 248.217 267.174V269.271L244.054 265.077H246.135ZM236.03 265.077H238.975L248.217 274.387V277.354L236.03 265.077Z" fill="#3C15FC"/>
  <path d="M17.1826 250.839L0.0832592 233.613C0.176926 233.257 0.364259 232.932 0.614037 232.67C0.874222 232.418 1.19685 232.23 1.5507 232.135L18.6605 249.361C18.4627 250.084 17.9007 250.65 17.1826 250.839ZM9.24178 250.923L0 241.613V238.646L12.1871 250.923H9.24178ZM2.08148 250.923C0.936667 250.923 0 249.979 0 248.826V246.729L4.16296 250.923H2.08148ZM16.6519 232.051C17.2243 232.051 17.7446 232.282 18.1193 232.67C18.5044 233.047 18.7333 233.572 18.7333 234.148V236.245L14.5704 232.051H16.6519ZM6.54626 232.051H9.49156L18.7333 241.361V244.328L6.54626 232.051Z" fill="#3C15FC"/>
  <path d="M49.966 250.839L32.8666 233.613C32.9603 233.257 33.1476 232.932 33.3974 232.67C33.6576 232.418 33.9802 232.23 34.334 232.135L51.4438 249.361C51.2461 250.084 50.6841 250.65 49.966 250.839ZM42.0251 250.923L32.7833 241.613V238.646L44.9704 250.923H42.0251ZM34.8648 250.923C33.72 250.923 32.7833 249.979 32.7833 248.826V246.729L36.9463 250.923H34.8648ZM49.4352 232.051C50.0076 232.051 50.528 232.282 50.9026 232.67C51.2877 233.047 51.5167 233.572 51.5167 234.148V236.245L47.3537 232.051H49.4352ZM39.3296 232.051H42.2749L51.5167 241.361V244.328L39.3296 232.051Z" fill="#3C15FC"/>
  <path d="M82.7493 250.839L65.6499 233.613C65.7436 233.257 65.9309 232.932 66.1807 232.67C66.4409 232.418 66.7635 232.23 67.1174 232.135L84.2271 249.361C84.0294 250.084 83.4674 250.65 82.7493 250.839ZM74.8084 250.923L65.5667 241.613V238.646L77.7537 250.923H74.8084ZM67.6481 250.923C66.5033 250.923 65.5667 249.979 65.5667 248.826V246.729L69.7296 250.923H67.6481ZM82.2185 232.051C82.7909 232.051 83.3113 232.282 83.686 232.67C84.071 233.047 84.3 233.572 84.3 234.148V236.245L80.137 232.051H82.2185ZM72.1129 232.051H75.0582L84.3 241.361V244.328L72.1129 232.051Z" fill="#3C15FC"/>
  <path d="M115.533 250.839L98.4333 233.613C98.5269 233.257 98.7143 232.932 98.964 232.67C99.2242 232.418 99.5469 232.23 99.9007 232.135L117.01 249.361C116.813 250.084 116.251 250.65 115.533 250.839ZM107.592 250.923L98.35 241.613V238.646L110.537 250.923H107.592ZM100.431 250.923C99.2867 250.923 98.35 249.979 98.35 248.826V246.729L102.513 250.923H100.431ZM115.002 232.051C115.574 232.051 116.095 232.282 116.469 232.67C116.854 233.047 117.083 233.572 117.083 234.148V236.245L112.92 232.051H115.002ZM104.896 232.051H107.842L117.083 241.361V244.328L104.896 232.051Z" fill="#3C15FC"/>
  <path d="M148.316 250.839L131.217 233.613C131.31 233.257 131.498 232.932 131.747 232.67C132.008 232.418 132.33 232.23 132.684 232.135L149.794 249.361C149.596 250.084 149.034 250.65 148.316 250.839ZM140.375 250.923L131.133 241.613V238.646L143.32 250.923H140.375ZM133.215 250.923C132.07 250.923 131.133 249.979 131.133 248.826V246.729L135.296 250.923H133.215ZM147.785 232.051C148.358 232.051 148.878 232.282 149.253 232.67C149.638 233.047 149.867 233.572 149.867 234.148V236.245L145.704 232.051H147.785ZM137.68 232.051H140.625L149.867 241.361V244.328L137.68 232.051Z" fill="#3C15FC"/>
  <path d="M181.099 250.839L164 233.613C164.094 233.257 164.281 232.932 164.531 232.67C164.791 232.418 165.114 232.23 165.467 232.135L182.577 249.361C182.379 250.084 181.817 250.65 181.099 250.839ZM173.158 250.923L163.917 241.613V238.646L176.104 250.923H173.158ZM165.998 250.923C164.853 250.923 163.917 249.979 163.917 248.826V246.729L168.08 250.923H165.998ZM180.569 232.051C181.141 232.051 181.661 232.282 182.036 232.67C182.421 233.047 182.65 233.572 182.65 234.148V236.245L178.487 232.051H180.569ZM170.463 232.051H173.408L182.65 241.361V244.328L170.463 232.051Z" fill="#3C15FC"/>
  <path d="M213.883 250.839L196.783 233.613C196.877 233.257 197.064 232.932 197.314 232.67C197.574 232.418 197.897 232.23 198.251 232.135L215.36 249.361C215.163 250.084 214.601 250.65 213.883 250.839ZM205.942 250.923L196.7 241.613V238.646L208.887 250.923H205.942ZM198.781 250.923C197.637 250.923 196.7 249.979 196.7 248.826V246.729L200.863 250.923H198.781ZM213.352 232.051C213.924 232.051 214.445 232.282 214.819 232.67C215.204 233.047 215.433 233.572 215.433 234.148V236.245L211.27 232.051H213.352ZM203.246 232.051H206.192L215.433 241.361V244.328L203.246 232.051Z" fill="#3C15FC"/>
  <path d="M246.666 250.839L229.567 233.613C229.66 233.257 229.848 232.932 230.097 232.67C230.358 232.418 230.68 232.23 231.034 232.135L248.144 249.361C247.946 250.084 247.384 250.65 246.666 250.839ZM238.725 250.923L229.483 241.613V238.646L241.67 250.923H238.725ZM231.565 250.923C230.42 250.923 229.483 249.979 229.483 248.826V246.729L233.646 250.923H231.565ZM246.135 232.051C246.708 232.051 247.228 232.282 247.603 232.67C247.988 233.047 248.217 233.572 248.217 234.148V236.245L244.054 232.051H246.135ZM236.03 232.051H238.975L248.217 241.361V244.328L236.03 232.051Z" fill="#3C15FC"/>
  <path d="M17.1826 217.814L0.0832592 200.588C0.176926 200.231 0.364259 199.906 0.614037 199.644C0.874222 199.393 1.19685 199.204 1.5507 199.11L18.6605 216.335C18.4627 217.059 17.9007 217.625 17.1826 217.814ZM9.24178 217.897L0 208.587V205.62L12.1871 217.897H9.24178ZM2.08148 217.897C0.936667 217.897 0 216.954 0 215.801V213.704L4.16296 217.897H2.08148ZM16.6519 199.026C17.2243 199.026 17.7446 199.256 18.1193 199.644C18.5044 200.022 18.7333 200.546 18.7333 201.123V203.219L14.5704 199.026H16.6519ZM6.54626 199.026H9.49156L18.7333 208.336V211.303L6.54626 199.026Z" fill="#3C15FC"/>
  <path d="M49.966 217.814L32.8666 200.588C32.9603 200.231 33.1476 199.906 33.3974 199.644C33.6576 199.393 33.9802 199.204 34.334 199.11L51.4438 216.335C51.2461 217.059 50.6841 217.625 49.966 217.814ZM42.0251 217.897L32.7833 208.587V205.62L44.9704 217.897H42.0251ZM34.8648 217.897C33.72 217.897 32.7833 216.954 32.7833 215.801V213.704L36.9463 217.897H34.8648ZM49.4352 199.026C50.0076 199.026 50.528 199.256 50.9026 199.644C51.2877 200.022 51.5167 200.546 51.5167 201.123V203.219L47.3537 199.026H49.4352ZM39.3296 199.026H42.2749L51.5167 208.336V211.303L39.3296 199.026Z" fill="#3C15FC"/>
  <path d="M82.7493 217.814L65.6499 200.588C65.7436 200.231 65.9309 199.906 66.1807 199.644C66.4409 199.393 66.7635 199.204 67.1174 199.11L84.2271 216.335C84.0294 217.059 83.4674 217.625 82.7493 217.814ZM74.8084 217.897L65.5667 208.587V205.62L77.7537 217.897H74.8084ZM67.6481 217.897C66.5033 217.897 65.5667 216.954 65.5667 215.801V213.704L69.7296 217.897H67.6481ZM82.2185 199.026C82.7909 199.026 83.3113 199.256 83.686 199.644C84.071 200.022 84.3 200.546 84.3 201.123V203.219L80.137 199.026H82.2185ZM72.1129 199.026H75.0582L84.3 208.336V211.303L72.1129 199.026Z" fill="#3C15FC"/>
  <path d="M115.533 217.814L98.4333 200.588C98.5269 200.231 98.7143 199.906 98.964 199.644C99.2242 199.393 99.5469 199.204 99.9007 199.11L117.01 216.335C116.813 217.059 116.251 217.625 115.533 217.814ZM107.592 217.897L98.35 208.587V205.62L110.537 217.897H107.592ZM100.431 217.897C99.2867 217.897 98.35 216.954 98.35 215.801V213.704L102.513 217.897H100.431ZM115.002 199.026C115.574 199.026 116.095 199.256 116.469 199.644C116.854 200.022 117.083 200.546 117.083 201.123V203.219L112.92 199.026H115.002ZM104.896 199.026H107.842L117.083 208.336V211.303L104.896 199.026Z" fill="#3C15FC"/>
  <path d="M148.316 217.814L131.217 200.588C131.31 200.231 131.498 199.906 131.747 199.644C132.008 199.393 132.33 199.204 132.684 199.11L149.794 216.335C149.596 217.059 149.034 217.625 148.316 217.814ZM140.375 217.897L131.133 208.587V205.62L143.32 217.897H140.375ZM133.215 217.897C132.07 217.897 131.133 216.954 131.133 215.801V213.704L135.296 217.897H133.215ZM147.785 199.026C148.358 199.026 148.878 199.256 149.253 199.644C149.638 200.022 149.867 200.546 149.867 201.123V203.219L145.704 199.026H147.785ZM137.68 199.026H140.625L149.867 208.336V211.303L137.68 199.026Z" fill="#3C15FC"/>
  <path d="M181.099 217.814L164 200.588C164.094 200.231 164.281 199.906 164.531 199.644C164.791 199.393 165.114 199.204 165.467 199.11L182.577 216.335C182.379 217.059 181.817 217.625 181.099 217.814ZM173.158 217.897L163.917 208.587V205.62L176.104 217.897H173.158ZM165.998 217.897C164.853 217.897 163.917 216.954 163.917 215.801V213.704L168.08 217.897H165.998ZM180.569 199.026C181.141 199.026 181.661 199.256 182.036 199.644C182.421 200.022 182.65 200.546 182.65 201.123V203.219L178.487 199.026H180.569ZM170.463 199.026H173.408L182.65 208.336V211.303L170.463 199.026Z" fill="#3C15FC"/>
  <path d="M213.883 217.814L196.783 200.588C196.877 200.231 197.064 199.906 197.314 199.644C197.574 199.393 197.897 199.204 198.251 199.11L215.36 216.335C215.163 217.059 214.601 217.625 213.883 217.814ZM205.942 217.897L196.7 208.587V205.62L208.887 217.897H205.942ZM198.781 217.897C197.637 217.897 196.7 216.954 196.7 215.801V213.704L200.863 217.897H198.781ZM213.352 199.026C213.924 199.026 214.445 199.256 214.819 199.644C215.204 200.022 215.433 200.546 215.433 201.123V203.219L211.27 199.026H213.352ZM203.246 199.026H206.192L215.433 208.336V211.303L203.246 199.026Z" fill="#3C15FC"/>
  <path d="M246.666 217.814L229.567 200.588C229.66 200.231 229.848 199.906 230.097 199.644C230.358 199.393 230.68 199.204 231.034 199.11L248.144 216.335C247.946 217.059 247.384 217.625 246.666 217.814ZM238.725 217.897L229.483 208.587V205.62L241.67 217.897H238.725ZM231.565 217.897C230.42 217.897 229.483 216.954 229.483 215.801V213.704L233.646 217.897H231.565ZM246.135 199.026C246.708 199.026 247.228 199.256 247.603 199.644C247.988 200.022 248.217 200.546 248.217 201.123V203.219L244.054 199.026H246.135ZM236.03 199.026H238.975L248.217 208.336V211.303L236.03 199.026Z" fill="#3C15FC"/>
  <path d="M17.1826 184.788L0.0832592 167.562C0.176926 167.206 0.364259 166.881 0.614037 166.619C0.874222 166.367 1.19685 166.178 1.5507 166.084L18.6605 183.31C18.4627 184.033 17.9007 184.599 17.1826 184.788ZM9.24178 184.872L0 175.562V172.595L12.1871 184.872H9.24178ZM2.08148 184.872C0.936667 184.872 0 183.928 0 182.775V180.678L4.16296 184.872H2.08148ZM16.6519 166C17.2243 166 17.7446 166.231 18.1193 166.619C18.5044 166.996 18.7333 167.52 18.7333 168.097V170.194L14.5704 166H16.6519ZM6.54626 166H9.49156L18.7333 175.31V178.277L6.54626 166Z" fill="#3C15FC"/>
  <path d="M49.966 184.788L32.8666 167.562C32.9603 167.206 33.1476 166.881 33.3974 166.619C33.6576 166.367 33.9802 166.178 34.334 166.084L51.4438 183.31C51.2461 184.033 50.6841 184.599 49.966 184.788ZM42.0251 184.872L32.7833 175.562V172.595L44.9704 184.872H42.0251ZM34.8648 184.872C33.72 184.872 32.7833 183.928 32.7833 182.775V180.678L36.9463 184.872H34.8648ZM49.4352 166C50.0076 166 50.528 166.231 50.9026 166.619C51.2877 166.996 51.5167 167.52 51.5167 168.097V170.194L47.3537 166H49.4352ZM39.3296 166H42.2749L51.5167 175.31V178.277L39.3296 166Z" fill="#3C15FC"/>
  <path d="M82.7493 184.788L65.6499 167.562C65.7436 167.206 65.9309 166.881 66.1807 166.619C66.4409 166.367 66.7635 166.178 67.1174 166.084L84.2271 183.31C84.0294 184.033 83.4674 184.599 82.7493 184.788ZM74.8084 184.872L65.5667 175.562V172.595L77.7537 184.872H74.8084ZM67.6481 184.872C66.5033 184.872 65.5667 183.928 65.5667 182.775V180.678L69.7296 184.872H67.6481ZM82.2185 166C82.7909 166 83.3113 166.231 83.686 166.619C84.071 166.996 84.3 167.52 84.3 168.097V170.194L80.137 166H82.2185ZM72.1129 166H75.0582L84.3 175.31V178.277L72.1129 166Z" fill="#3C15FC"/>
  <path d="M115.533 184.788L98.4333 167.562C98.5269 167.206 98.7143 166.881 98.964 166.619C99.2242 166.367 99.5469 166.178 99.9007 166.084L117.01 183.31C116.813 184.033 116.251 184.599 115.533 184.788ZM107.592 184.872L98.35 175.562V172.595L110.537 184.872H107.592ZM100.431 184.872C99.2867 184.872 98.35 183.928 98.35 182.775V180.678L102.513 184.872H100.431ZM115.002 166C115.574 166 116.095 166.231 116.469 166.619C116.854 166.996 117.083 167.52 117.083 168.097V170.194L112.92 166H115.002ZM104.896 166H107.842L117.083 175.31V178.277L104.896 166Z" fill="#3C15FC"/>
  <path d="M148.316 184.788L131.217 167.562C131.31 167.206 131.498 166.881 131.747 166.619C132.008 166.367 132.33 166.178 132.684 166.084L149.794 183.31C149.596 184.033 149.034 184.599 148.316 184.788ZM140.375 184.872L131.133 175.562V172.595L143.32 184.872H140.375ZM133.215 184.872C132.07 184.872 131.133 183.928 131.133 182.775V180.678L135.296 184.872H133.215ZM147.785 166C148.358 166 148.878 166.231 149.253 166.619C149.638 166.996 149.867 167.52 149.867 168.097V170.194L145.704 166H147.785ZM137.68 166H140.625L149.867 175.31V178.277L137.68 166Z" fill="#3C15FC"/>
  <path d="M181.099 184.788L164 167.562C164.094 167.206 164.281 166.881 164.531 166.619C164.791 166.367 165.114 166.178 165.467 166.084L182.577 183.31C182.379 184.033 181.817 184.599 181.099 184.788ZM173.158 184.872L163.917 175.562V172.595L176.104 184.872H173.158ZM165.998 184.872C164.853 184.872 163.917 183.928 163.917 182.775V180.678L168.08 184.872H165.998ZM180.569 166C181.141 166 181.661 166.231 182.036 166.619C182.421 166.996 182.65 167.52 182.65 168.097V170.194L178.487 166H180.569ZM170.463 166H173.408L182.65 175.31V178.277L170.463 166Z" fill="#3C15FC"/>
  <path d="M213.883 184.788L196.783 167.562C196.877 167.206 197.064 166.881 197.314 166.619C197.574 166.367 197.897 166.178 198.251 166.084L215.36 183.31C215.163 184.033 214.601 184.599 213.883 184.788ZM205.942 184.872L196.7 175.562V172.595L208.887 184.872H205.942ZM198.781 184.872C197.637 184.872 196.7 183.928 196.7 182.775V180.678L200.863 184.872H198.781ZM213.352 166C213.924 166 214.445 166.231 214.819 166.619C215.204 166.996 215.433 167.52 215.433 168.097V170.194L211.27 166H213.352ZM203.246 166H206.192L215.433 175.31V178.277L203.246 166Z" fill="#3C15FC"/>
  <path d="M246.666 184.788L229.567 167.562C229.66 167.206 229.848 166.881 230.097 166.619C230.358 166.367 230.68 166.178 231.034 166.084L248.144 183.31C247.946 184.033 247.384 184.599 246.666 184.788ZM238.725 184.872L229.483 175.562V172.595L241.67 184.872H238.725ZM231.565 184.872C230.42 184.872 229.483 183.928 229.483 182.775V180.678L233.646 184.872H231.565ZM246.135 166C246.708 166 247.228 166.231 247.603 166.619C247.988 166.996 248.217 167.52 248.217 168.097V170.194L244.054 166H246.135ZM236.03 166H238.975L248.217 175.31V178.277L236.03 166Z" fill="#3C15FC"/>
  <path d="M179.966 117.865L162.867 100.639C162.96 100.283 163.148 99.9576 163.397 99.6955C163.658 99.4439 163.98 99.2552 164.334 99.1608L181.444 116.387C181.246 117.11 180.684 117.676 179.966 117.865ZM172.025 117.949L162.783 108.639V105.672L174.97 117.949H172.025ZM164.865 117.949C163.72 117.949 162.783 117.005 162.783 115.852V113.755L166.946 117.949H164.865ZM179.435 99.0769C180.008 99.0769 180.528 99.3076 180.903 99.6955C181.288 100.073 181.517 100.597 181.517 101.174V103.271L177.354 99.0769H179.435ZM169.33 99.0769H172.275L181.517 108.387V111.354L169.33 99.0769Z" fill="#3C15FC"/>
  <path d="M212.749 117.865L195.65 100.639C195.744 100.283 195.931 99.9576 196.181 99.6955C196.441 99.4439 196.764 99.2552 197.117 99.1608L214.227 116.387C214.029 117.11 213.467 117.676 212.749 117.865ZM204.808 117.949L195.567 108.639V105.672L207.754 117.949H204.808ZM197.648 117.949C196.503 117.949 195.567 117.005 195.567 115.852V113.755L199.73 117.949H197.648ZM212.219 99.0769C212.791 99.0769 213.311 99.3076 213.686 99.6955C214.071 100.073 214.3 100.597 214.3 101.174V103.271L210.137 99.0769H212.219ZM202.113 99.0769H205.058L214.3 108.387V111.354L202.113 99.0769Z" fill="#3C15FC"/>
  <path d="M245.533 117.865L228.433 100.639C228.527 100.283 228.714 99.9576 228.964 99.6955C229.224 99.4439 229.547 99.2552 229.901 99.1608L247.01 116.387C246.813 117.11 246.251 117.676 245.533 117.865ZM237.592 117.949L228.35 108.639V105.672L240.537 117.949H237.592ZM230.431 117.949C229.287 117.949 228.35 117.005 228.35 115.852V113.755L232.513 117.949H230.431ZM245.002 99.0769C245.574 99.0769 246.095 99.3076 246.469 99.6955C246.854 100.073 247.083 100.597 247.083 101.174V103.271L242.92 99.0769H245.002ZM234.896 99.0769H237.842L247.083 108.387V111.354L234.896 99.0769Z" fill="#3C15FC"/>
  <path d="M179.966 84.8392L162.867 67.6135C162.96 67.257 163.148 66.932 163.397 66.6699C163.658 66.4182 163.98 66.2295 164.334 66.1352L181.444 83.3609C181.246 84.0843 180.684 84.6505 179.966 84.8392ZM172.025 84.9231L162.783 75.613V72.6459L174.97 84.9231H172.025ZM164.865 84.9231C163.72 84.9231 162.783 83.9795 162.783 82.8262V80.7294L166.946 84.9231H164.865ZM179.435 66.0513C180.008 66.0513 180.528 66.2819 180.903 66.6699C181.288 67.0473 181.517 67.5715 181.517 68.1482V70.245L177.354 66.0513H179.435ZM169.33 66.0513H172.275L181.517 75.3614V78.3284L169.33 66.0513Z" fill="#3C15FC"/>
  <path d="M212.749 84.8392L195.65 67.6135C195.744 67.257 195.931 66.932 196.181 66.6699C196.441 66.4182 196.764 66.2295 197.117 66.1352L214.227 83.3609C214.029 84.0843 213.467 84.6505 212.749 84.8392ZM204.808 84.9231L195.567 75.613V72.6459L207.754 84.9231H204.808ZM197.648 84.9231C196.503 84.9231 195.567 83.9795 195.567 82.8262V80.7294L199.73 84.9231H197.648ZM212.219 66.0513C212.791 66.0513 213.311 66.2819 213.686 66.6699C214.071 67.0473 214.3 67.5715 214.3 68.1482V70.245L210.137 66.0513H212.219ZM202.113 66.0513H205.058L214.3 75.3614V78.3284L202.113 66.0513Z" fill="#3C15FC"/>
  <path d="M245.533 84.8392L228.433 67.6135C228.527 67.257 228.714 66.932 228.964 66.6699C229.224 66.4182 229.547 66.2295 229.901 66.1352L247.01 83.3609C246.813 84.0843 246.251 84.6505 245.533 84.8392ZM237.592 84.9231L228.35 75.613V72.6459L240.537 84.9231H237.592ZM230.431 84.9231C229.287 84.9231 228.35 83.9795 228.35 82.8262V80.7294L232.513 84.9231H230.431ZM245.002 66.0513C245.574 66.0513 246.095 66.2819 246.469 66.6699C246.854 67.0473 247.083 67.5715 247.083 68.1482V70.245L242.92 66.0513H245.002ZM234.896 66.0513H237.842L247.083 75.3614V78.3284L234.896 66.0513Z" fill="#3C15FC"/>
  <path d="M147.183 51.8136L130.083 34.5878C130.177 34.2314 130.364 33.9063 130.614 33.6442C130.874 33.3926 131.197 33.2039 131.551 33.1095L148.66 50.3353C148.463 51.0587 147.901 51.6249 147.183 51.8136ZM139.242 51.8974L130 42.5874V39.6203L142.187 51.8974H139.242ZM132.081 51.8974C130.937 51.8974 130 50.9538 130 49.8006V47.7037L134.163 51.8974H132.081ZM146.652 33.0257C147.224 33.0257 147.745 33.2563 148.119 33.6442C148.504 34.0217 148.733 34.5459 148.733 35.1225V37.2194L144.57 33.0257H146.652ZM136.546 33.0257H139.492L148.733 42.3357V45.3028L136.546 33.0257Z" fill="#3C15FC"/>
  <path d="M179.966 51.8136L162.867 34.5878C162.96 34.2314 163.148 33.9063 163.397 33.6442C163.658 33.3926 163.98 33.2039 164.334 33.1095L181.444 50.3353C181.246 51.0587 180.684 51.6249 179.966 51.8136ZM172.025 51.8974L162.783 42.5874V39.6203L174.97 51.8974H172.025ZM164.865 51.8974C163.72 51.8974 162.783 50.9538 162.783 49.8006V47.7037L166.946 51.8974H164.865ZM179.435 33.0257C180.008 33.0257 180.528 33.2563 180.903 33.6442C181.288 34.0217 181.517 34.5459 181.517 35.1225V37.2194L177.354 33.0257H179.435ZM169.33 33.0257H172.275L181.517 42.3357V45.3028L169.33 33.0257Z" fill="#3C15FC"/>
  <path d="M212.749 51.8136L195.65 34.5878C195.744 34.2314 195.931 33.9063 196.181 33.6442C196.441 33.3926 196.764 33.2039 197.117 33.1095L214.227 50.3353C214.029 51.0587 213.467 51.6249 212.749 51.8136ZM204.808 51.8974L195.567 42.5874V39.6203L207.754 51.8974H204.808ZM197.648 51.8974C196.503 51.8974 195.567 50.9538 195.567 49.8006V47.7037L199.73 51.8974H197.648ZM212.219 33.0257C212.791 33.0257 213.311 33.2563 213.686 33.6442C214.071 34.0217 214.3 34.5459 214.3 35.1225V37.2194L210.137 33.0257H212.219ZM202.113 33.0257H205.058L214.3 42.3357V45.3028L202.113 33.0257Z" fill="#3C15FC"/>
  <path d="M245.533 51.8136L228.433 34.5878C228.527 34.2314 228.714 33.9063 228.964 33.6442C229.224 33.3926 229.547 33.2039 229.901 33.1095L247.01 50.3353C246.813 51.0587 246.251 51.6249 245.533 51.8136ZM237.592 51.8974L228.35 42.5874V39.6203L240.537 51.8974H237.592ZM230.431 51.8974C229.287 51.8974 228.35 50.9538 228.35 49.8006V47.7037L232.513 51.8974H230.431ZM245.002 33.0257C245.574 33.0257 246.095 33.2563 246.469 33.6442C246.854 34.0217 247.083 34.5459 247.083 35.1225V37.2194L242.92 33.0257H245.002ZM234.896 33.0257H237.842L247.083 42.3357V45.3028L234.896 33.0257Z" fill="#3C15FC"/>
  <path d="M147.183 18.7879L130.083 1.56218C130.177 1.20571 130.364 0.880692 130.614 0.618584C130.874 0.366959 131.197 0.178246 131.551 0.0838852L148.66 17.3096C148.463 18.0331 147.901 18.5992 147.183 18.7879ZM139.242 18.8718L130 9.56171V6.59465L142.187 18.8718H139.242ZM132.081 18.8718C130.937 18.8718 130 17.9282 130 16.7749V14.6781L134.163 18.8718H132.081ZM146.652 7.62939e-06C147.224 7.62939e-06 147.745 0.230667 148.119 0.618584C148.504 0.996017 148.733 1.52024 148.733 2.09688V4.19374L144.57 7.62939e-06H146.652ZM136.546 7.62939e-06H139.492L148.733 9.3101V12.2772L136.546 7.62939e-06Z" fill="#3C15FC"/>
  <path d="M179.966 18.7879L162.867 1.56218C162.96 1.20571 163.148 0.880692 163.397 0.618584C163.658 0.366959 163.98 0.178246 164.334 0.0838852L181.444 17.3096C181.246 18.0331 180.684 18.5992 179.966 18.7879ZM172.025 18.8718L162.783 9.56171V6.59465L174.97 18.8718H172.025ZM164.865 18.8718C163.72 18.8718 162.783 17.9282 162.783 16.7749V14.6781L166.946 18.8718H164.865ZM179.435 7.62939e-06C180.008 7.62939e-06 180.528 0.230667 180.903 0.618584C181.288 0.996017 181.517 1.52024 181.517 2.09688V4.19374L177.354 7.62939e-06H179.435ZM169.33 7.62939e-06H172.275L181.517 9.3101V12.2772L169.33 7.62939e-06Z" fill="#3C15FC"/>
  <path d="M212.749 18.7879L195.65 1.56218C195.744 1.20571 195.931 0.880692 196.181 0.618584C196.441 0.366959 196.764 0.178246 197.117 0.0838852L214.227 17.3096C214.029 18.0331 213.467 18.5992 212.749 18.7879ZM204.808 18.8718L195.567 9.56171V6.59465L207.754 18.8718H204.808ZM197.648 18.8718C196.503 18.8718 195.567 17.9282 195.567 16.7749V14.6781L199.73 18.8718H197.648ZM212.219 7.62939e-06C212.791 7.62939e-06 213.311 0.230667 213.686 0.618584C214.071 0.996017 214.3 1.52024 214.3 2.09688V4.19374L210.137 7.62939e-06H212.219ZM202.113 7.62939e-06H205.058L214.3 9.3101V12.2772L202.113 7.62939e-06Z" fill="#3C15FC"/>
  <path d="M245.533 18.7879L228.433 1.56218C228.527 1.20571 228.714 0.880692 228.964 0.618584C229.224 0.366959 229.547 0.178246 229.901 0.0838852L247.01 17.3096C246.813 18.0331 246.251 18.5992 245.533 18.7879ZM237.592 18.8718L228.35 9.56171V6.59465L240.537 18.8718H237.592ZM230.431 18.8718C229.287 18.8718 228.35 17.9282 228.35 16.7749V14.6781L232.513 18.8718H230.431ZM245.002 7.62939e-06C245.574 7.62939e-06 246.095 0.230667 246.469 0.618584C246.854 0.996017 247.083 1.52024 247.083 2.09688V4.19374L242.92 7.62939e-06H245.002ZM234.896 7.62939e-06H237.842L247.083 9.3101V12.2772L234.896 7.62939e-06Z" fill="#3C15FC"/>
  <g clip-path="url(#clip0_0_1)">
    <path d="M107.781 94.0582L114.09 99.2872L92.6011 97.1736L86.2917 91.9446L107.781 94.0582Z" fill="#3C15FC"/>
    <path d="M114.09 99.5616H114.065L92.5761 97.448C92.5212 97.4423 92.4693 97.4203 92.4271 97.3849L86.115 92.1695C86.0566 92.1369 86.0121 92.0842 85.9899 92.0213C85.9676 91.9585 85.9692 91.8897 85.9942 91.8278C86.0192 91.766 86.066 91.7153 86.1258 91.6853C86.1856 91.6552 86.2544 91.6478 86.3193 91.6645L107.819 93.7863C107.875 93.7894 107.927 93.8107 107.969 93.8467L114.278 99.062C114.323 99.0993 114.356 99.15 114.37 99.2068C114.384 99.2636 114.38 99.3235 114.358 99.3777C114.339 99.4326 114.302 99.48 114.254 99.5131C114.206 99.5461 114.149 99.5631 114.09 99.5616ZM92.7141 96.9073L113.224 98.9248L107.668 94.3243L87.1583 92.3041L92.7141 96.9073Z" fill="#1B152D"/>
    <path d="M135.784 82.6448C133.716 80.932 130.863 79.8011 127.346 79.4552C118.238 78.5576 110.751 83.8828 108.027 93.0151L107.773 94.0582L114.082 99.2872L114.339 98.2441C117.052 89.1118 124.534 83.7867 133.658 84.6815C137.172 85.0274 140.028 86.161 142.093 87.8711L135.784 82.6448Z" fill="#3C15FC"/>
    <path d="M114.09 99.5616C114.026 99.5617 113.963 99.5394 113.914 99.4984L107.604 94.2831C107.565 94.2503 107.535 94.2072 107.519 94.1587C107.503 94.1103 107.501 94.0583 107.513 94.0086L107.767 92.9655C110.527 83.696 118.214 78.294 127.363 79.197C130.824 79.5374 133.791 80.6628 135.949 82.4498L142.258 87.6651C142.289 87.6872 142.315 87.7153 142.334 87.7477C142.354 87.7801 142.366 87.8162 142.371 87.8536C142.376 87.891 142.373 87.929 142.362 87.9652C142.351 88.0014 142.333 88.035 142.309 88.0639C142.284 88.0928 142.254 88.1164 142.22 88.1333C142.187 88.1502 142.149 88.1599 142.112 88.1619C142.074 88.1639 142.036 88.1581 142 88.1449C141.965 88.1316 141.932 88.1113 141.905 88.0851C139.835 86.3695 136.968 85.288 133.625 84.9586C129.229 84.5249 125.125 85.5543 121.757 87.9286C118.39 90.303 115.926 93.8906 114.609 98.3236L114.361 99.3502C114.35 99.3959 114.327 99.438 114.295 99.4727C114.264 99.5073 114.223 99.5331 114.178 99.5478C114.15 99.5566 114.12 99.5612 114.09 99.5616ZM108.095 93.9565L113.927 98.8012L114.079 98.1864C116.839 88.9168 124.523 83.5175 133.675 84.4179C135.538 84.5837 137.364 85.0356 139.087 85.7574L135.607 82.8533C133.534 81.1377 130.669 80.0562 127.327 79.7268C122.93 79.2959 118.826 80.3225 115.459 82.6968C112.092 85.0712 109.619 88.6615 108.3 93.0918L108.095 93.9565Z" fill="#1B152D"/>
    <path d="M120.662 142.953L126.971 148.182L105.921 146.11L99.6113 140.884L120.662 142.953Z" fill="#3C15FC"/>
    <path d="M126.971 148.457H126.943L105.887 146.384C105.832 146.379 105.779 146.357 105.736 146.321L99.4347 141.092C99.3897 141.055 99.3579 141.004 99.344 140.947C99.3301 140.89 99.3348 140.83 99.3574 140.776C99.3798 140.723 99.4186 140.678 99.4681 140.648C99.5177 140.618 99.5755 140.604 99.6334 140.609L120.681 142.679C120.737 142.684 120.79 142.706 120.833 142.742L127.139 147.971C127.183 148.007 127.215 148.056 127.229 148.11C127.244 148.165 127.242 148.222 127.223 148.276C127.203 148.329 127.168 148.375 127.122 148.407C127.075 148.439 127.019 148.457 126.963 148.457H126.971ZM106.034 145.846L126.104 147.82L120.548 143.217L100.478 141.243L106.034 145.846Z" fill="#1B152D"/>
    <path d="M133.681 59.5489C156.354 61.7805 168.084 76.5262 163.367 95.8037C160.303 108.326 152.377 116.517 139.504 122.347C127.388 127.735 123.449 131.545 121.49 139.552L120.662 142.945L99.6114 140.875L100.359 137.307C102.598 123.857 108.802 116.767 121.396 111.082C133.192 105.661 137.266 101.958 139.165 94.198C141.063 86.4381 136.385 80.3444 127.346 79.455C118.238 78.5574 110.751 83.8826 108.027 93.0149L107.773 94.058L86.2917 91.9389L86.5457 90.8958C92.0242 70.1607 109.338 57.1636 133.681 59.5489Z" fill="#E6CFF1"/>
    <path d="M120.662 143.228H120.634L99.5838 141.155C99.5452 141.152 99.5078 141.14 99.474 141.121C99.4403 141.102 99.4109 141.076 99.3878 141.045C99.3649 141.014 99.3488 140.979 99.3408 140.941C99.3327 140.903 99.3327 140.864 99.3409 140.826L100.089 137.257C102.269 124.151 108.211 116.739 121.283 110.84C133.106 105.389 137.056 101.653 138.897 94.1349C139.763 90.5912 139.261 87.3687 137.442 84.8186C135.419 81.9776 131.831 80.1715 127.322 79.7268C122.925 79.2959 118.821 80.3225 115.454 82.6968C112.086 85.0712 109.619 88.6615 108.3 93.0918L108.049 94.1349C108.033 94.1992 107.994 94.2558 107.94 94.2941C107.886 94.3324 107.82 94.35 107.753 94.3435L86.2641 92.2134C86.2248 92.2099 86.1868 92.198 86.1525 92.1786C86.1182 92.1592 86.0885 92.1327 86.0654 92.1009C86.0426 92.0685 86.0272 92.0317 86.02 91.9928C86.0129 91.954 86.0142 91.9141 86.024 91.8758L86.2917 90.841C92.0297 69.0601 110.201 56.9715 133.708 59.2745C145.446 60.4273 154.772 65.08 159.972 72.3704C164.556 78.8018 165.823 86.9185 163.635 95.8669C160.659 108.027 153.028 116.52 139.623 122.594C127.702 127.895 123.698 131.713 121.763 139.613L120.935 143.005C120.923 143.068 120.889 143.125 120.839 143.166C120.789 143.206 120.726 143.228 120.662 143.228ZM99.9426 140.639L120.449 142.657L121.222 139.497C123.206 131.392 127.28 127.491 139.391 122.106C152.639 116.108 160.165 107.73 163.099 95.7544C165.246 86.9706 164.01 79.0104 159.511 72.6971C154.416 65.5384 145.231 60.9708 133.653 59.8234C110.439 57.5479 92.4906 69.4801 86.8134 90.97L86.634 91.7029L107.568 93.7616L107.767 92.9381C110.527 83.6685 118.214 78.2665 127.363 79.1696C132.027 79.628 135.762 81.5192 137.881 84.492C139.797 87.1738 140.327 90.55 139.421 94.2529C137.533 101.972 133.515 105.801 121.501 111.324C108.648 117.148 102.78 124.441 100.644 137.354L99.9426 140.639Z" fill="#1B152D"/>
    <path d="M161.435 72.8262L155.125 67.6108C163.063 74.1986 166.215 84.1819 163.367 95.8258C160.303 108.348 152.376 116.539 139.504 122.369C127.388 127.757 123.449 131.567 121.49 139.574L120.662 142.967L126.971 148.182L127.799 144.79C129.758 136.78 133.697 132.973 145.811 127.584C158.683 121.752 166.61 113.563 169.673 101.041C172.527 89.3945 169.367 79.403 161.435 72.8262Z" fill="#3C15FC"/>
    <path d="M126.971 148.457C126.907 148.457 126.844 148.434 126.794 148.394L120.485 143.164C120.445 143.132 120.415 143.089 120.399 143.041C120.382 142.992 120.38 142.94 120.391 142.89L121.219 139.5C123.204 131.394 127.277 127.494 139.388 122.108C152.636 116.111 160.162 107.733 163.096 95.7571C165.876 84.3986 162.98 74.4758 154.946 67.8193C154.918 67.7963 154.895 67.768 154.878 67.7361C154.861 67.7041 154.851 67.6692 154.847 67.6332C154.844 67.5973 154.848 67.561 154.859 67.5265C154.869 67.4921 154.887 67.46 154.91 67.4323C154.933 67.4045 154.962 67.3815 154.994 67.3647C155.026 67.3479 155.061 67.3375 155.097 67.3342C155.134 67.3309 155.17 67.3347 155.205 67.3454C155.239 67.3561 155.271 67.3735 155.299 67.3966L161.611 72.6147C169.817 79.4139 172.778 89.5316 169.947 101.104C166.971 113.267 159.337 121.76 145.935 127.834C134.017 133.135 130.01 136.953 128.078 144.853L127.25 148.243C127.239 148.288 127.216 148.33 127.185 148.365C127.153 148.4 127.112 148.426 127.068 148.44C127.037 148.451 127.004 148.457 126.971 148.457ZM120.971 142.852L126.808 147.688L127.534 144.726C129.516 136.621 133.592 132.717 145.7 127.335C158.948 121.334 166.477 112.959 169.408 100.983C172.188 89.6249 169.292 79.7021 161.258 73.0457L159.155 71.3026C164.363 77.8163 165.953 86.3557 163.623 95.8779C160.648 108.038 153.017 116.531 139.612 122.605C127.691 127.906 123.687 131.724 121.752 139.624L120.971 142.852Z" fill="#1B152D"/>
    <path d="M116.834 160.342L111.416 182.496L90.3682 180.427L95.7888 158.272L116.834 160.342Z" fill="#E6CFF1"/>
    <path d="M111.408 182.771H111.38L90.3351 180.701C90.2644 180.692 90.2 180.655 90.1557 180.6C90.1329 180.568 90.1171 180.532 90.1095 180.493C90.1019 180.455 90.1026 180.415 90.1115 180.377L95.5321 158.22C95.5484 158.157 95.5871 158.101 95.6413 158.063C95.6955 158.025 95.7616 158.008 95.8275 158.015L116.872 160.084C116.912 160.088 116.95 160.1 116.984 160.119C117.018 160.138 117.048 160.165 117.071 160.197C117.094 160.229 117.11 160.266 117.118 160.305C117.125 160.343 117.125 160.383 117.115 160.422L111.684 182.562C111.668 182.623 111.633 182.677 111.583 182.715C111.532 182.753 111.471 182.773 111.408 182.771ZM90.7077 180.185L111.198 182.2L116.486 160.587L95.9958 158.569L90.7077 180.185Z" fill="#1B152D"/>
    <path d="M116.834 160.342L123.146 165.571L117.725 187.726L111.416 182.496L116.834 160.342Z" fill="#3C15FC"/>
    <path d="M117.725 188.011C117.661 188.011 117.598 187.989 117.548 187.948L111.239 182.708C111.199 182.675 111.169 182.632 111.153 182.584C111.136 182.535 111.134 182.483 111.145 182.433L116.566 160.287C116.577 160.242 116.599 160.199 116.631 160.165C116.663 160.13 116.703 160.104 116.748 160.09C116.794 160.073 116.844 160.068 116.893 160.077C116.941 160.086 116.987 160.107 117.024 160.139L123.336 165.368C123.375 165.401 123.405 165.444 123.421 165.492C123.437 165.541 123.439 165.593 123.427 165.643L117.993 187.791C117.981 187.836 117.959 187.878 117.927 187.912C117.895 187.946 117.855 187.972 117.811 187.986C117.783 187.999 117.755 188.007 117.725 188.011ZM111.722 182.398L117.562 187.234L122.837 165.673L116.999 160.836L111.722 182.398Z" fill="#1B152D"/>
    <path d="M111.416 182.496L117.725 187.725L96.6802 185.656L90.3682 180.427L111.416 182.496Z" fill="#3C15FC"/>
    <path d="M117.725 188.011H117.697L96.6526 185.939C96.598 185.934 96.5461 185.913 96.5036 185.878L90.1915 180.638C90.1465 180.601 90.1148 180.55 90.1009 180.493C90.087 180.436 90.0916 180.377 90.1142 180.323C90.1367 180.269 90.1754 180.225 90.225 180.194C90.2745 180.164 90.3323 180.151 90.3902 180.155L111.435 182.225C111.49 182.231 111.542 182.253 111.584 182.288L117.896 187.503C117.94 187.539 117.971 187.588 117.986 187.642C118.001 187.697 117.999 187.755 117.98 187.808C117.96 187.861 117.925 187.907 117.878 187.939C117.832 187.972 117.776 187.989 117.719 187.989L117.725 188.011ZM96.7796 185.39L116.847 187.366L111.303 182.763L91.2375 180.789L96.7796 185.39Z" fill="#1B152D"/>
  </g>
  <defs>
    <clipPath id="clip0_0_1">
      <rect width="85" height="129" fill="white" transform="translate(86 59)"/>
    </clipPath>
  </defs>
</svg>
