<svg width="74" height="20" viewBox="0 0 74 20" fill="none"
  xmlns="http://www.w3.org/2000/svg">
  <path d="M8.04131 0.530334C11.8597 0.530334 14.8183 3.26134 14.8183 7.53487C14.8183 11.8084 11.8597 14.5394 8.04131 14.5394C6.34707 14.5394 4.95628 14.0084 3.94479 12.8957V19.2428H0V0.73263H3.76778V2.30043C4.75398 1.11194 6.22063 0.530334 8.04131 0.530334ZM7.35855 11.3027C9.33095 11.3027 10.8229 9.88657 10.8229 7.53487C10.8229 5.18317 9.33095 3.76709 7.35855 3.76709C5.38616 3.76709 3.89422 5.18317 3.89422 7.53487C3.89422 9.88657 5.38616 11.3027 7.35855 11.3027Z" fill="#FFFAFD"/>
  <path d="M27.4423 0.73263H31.3871V14.3371H27.6193V12.7693C26.6331 13.9578 25.1918 14.5394 23.3711 14.5394C19.5274 14.5394 16.5688 11.8084 16.5688 7.53487C16.5688 3.26134 19.5274 0.530334 23.3711 0.530334C25.04 0.530334 26.4561 1.06136 27.4423 2.174V0.73263ZM24.0538 11.3027C26.0009 11.3027 27.5182 9.88657 27.5182 7.53487C27.5182 5.18317 26.0009 3.76709 24.0538 3.76709C22.0814 3.76709 20.5642 5.18317 20.5642 7.53487C20.5642 9.88657 22.0814 11.3027 24.0538 11.3027Z" fill="#FFFAFD"/>
  <path d="M44.9013 0.73263H48.8461V14.3371H45.0783V12.7693C44.0921 13.9578 42.6507 14.5394 40.8301 14.5394C36.9864 14.5394 34.0278 11.8084 34.0278 7.53487C34.0278 3.26134 36.9864 0.530334 40.8301 0.530334C42.499 0.530334 43.9151 1.06136 44.9013 2.174V0.73263ZM41.5128 11.3027C43.4599 11.3027 44.9772 9.88657 44.9772 7.53487C44.9772 5.18317 43.4599 3.76709 41.5128 3.76709C39.5404 3.76709 38.0232 5.18317 38.0232 7.53487C38.0232 9.88657 39.5404 11.3027 41.5128 11.3027Z" fill="#FFFAFD"/>
  <path d="M62.2591 0.73263H66.2039V12.0613C66.2039 17.1187 63.5488 19.4451 58.7948 19.4451C53.8638 19.4451 58.7948 19.4451 53.8638 19.4451V16.2589C58.4661 16.2589 58.4661 16.2589 58.4661 16.2589C61.1212 16.2589 62.2591 15.0199 62.2591 12.567V12.1118C61.2224 13.1486 59.8063 13.6796 58.2385 13.6796C54.8247 13.6796 52.4224 11.7831 52.4224 7.56016V0.73263H56.3672V6.97855C56.3672 9.27968 57.3787 10.2912 59.1235 10.2912C60.9442 10.2912 62.2591 9.12796 62.2591 6.62453V0.73263Z" fill="#FFFAFD"/>
  <path d="M68.8668 19.4452C54.1429 19.4452 54.0398 19.7177 54.0398 18.4431L56.8157 16.3096C57.2455 16.6131 58.7912 16.3096 68.4369 16.3096C69.4231 16.3096 70.0553 15.6774 70.0553 14.3372V0.732727H74V14.3119C74 17.4475 72.1541 19.4452 68.8668 19.4452Z" fill="#FFFAFD"/>
  <rect x="70.0552" y="0.732727" width="3.94477" height="4.00928" fill="#7C27FF"/>
</svg>
